<svg width="512" height="385" viewBox="0 0 512 385" fill="none" xmlns="http://www.w3.org/2000/svg">
<g clip-path="url(#clip0_1134_1430)">
<path d="M290.448 156.592C307.308 157.51 322.39 160.642 334.833 166.041" stroke="black" stroke-width="30" stroke-miterlimit="10"/>
<path d="M47.187 290.181C61.3 251.033 107.733 208.321 170.757 181.053C184.654 175.059 198.498 170.199 212.126 166.419" stroke="black" stroke-width="30" stroke-miterlimit="10"/>
<path d="M367.207 196.172C387.192 242.663 331.602 311.348 243.153 349.524C154.704 387.7 66.7405 380.95 46.8099 334.459" stroke="black" stroke-width="30" stroke-miterlimit="10"/>
<path d="M217.513 84.2356C192.626 87.6914 165.801 95.143 138.921 106.752C50.419 144.928 -5.11726 213.559 14.8133 260.104C20.5231 273.442 31.8351 283.485 47.187 290.181C85.2705 306.758 148.079 302.384 211.21 275.17C221.93 270.526 232.218 265.45 241.86 259.996C268.524 245.093 290.879 227.49 307.415 209.131C320.29 194.876 329.662 180.243 334.78 166.041C340.489 150.274 340.974 135.155 335.264 121.818C327.454 103.621 309.193 91.4712 284.522 85.7475" stroke="black" stroke-width="30" stroke-miterlimit="10"/>
<path d="M14.8672 260.104L46.7561 334.405" stroke="black" stroke-width="30" stroke-miterlimit="10"/>
<path d="M367.153 196.118L335.264 121.818" stroke="black" stroke-width="30" stroke-miterlimit="10"/>
<path d="M293.572 47.3556C332.571 61.5569 375.233 107.994 402.382 171.225C429.531 234.456 433.894 297.417 417.357 335.593" stroke="black" stroke-width="30" stroke-miterlimit="10"/>
<path d="M249.455 46.8696C234.804 53.1872 224.03 66.3626 217.512 84.2356C209.486 105.942 207.655 134.615 212.18 166.419C215.735 190.934 223.061 217.339 234.427 243.743C236.851 249.305 239.328 254.705 241.914 259.996" stroke="black" stroke-width="30" stroke-miterlimit="10"/>
<path d="M286.731 326.629C320.289 363.293 358.158 380.68 387.353 368.045" stroke="black" stroke-width="30" stroke-miterlimit="10"/>
<path d="M307.469 209.131C299.982 191.42 294.326 173.709 290.501 156.592C284.684 131.051 282.745 106.86 284.63 85.7476C285.869 71.2223 288.939 58.263 293.68 47.3016C300.305 31.9664 310.378 20.6269 323.683 14.8492C370.062 -5.18371 438.58 50.5414 476.61 139.205C514.693 227.922 507.96 316.046 461.581 336.079C448.276 341.802 433.193 341.37 417.464 335.647C393.44 326.899 368.015 305.894 345.661 276.25" stroke="black" stroke-width="30" stroke-miterlimit="10"/>
<path d="M461.527 336.079L387.353 368.045" stroke="black" stroke-width="30" stroke-miterlimit="10"/>
<path d="M249.455 46.8696L323.575 14.9033" stroke="black" stroke-width="30" stroke-miterlimit="10"/>
</g>
<defs>
<clipPath id="clip0_1134_1430">
<rect width="512" height="385" fill="white"/>
</clipPath>
</defs>
</svg>
