<svg width="25" height="25" viewBox="0 0 25 25" fill="none" xmlns="http://www.w3.org/2000/svg">
<rect width="25" height="25" rx="12.5" fill="#EFEFEF"/>
<path fill-rule="evenodd" clip-rule="evenodd" d="M5.4165 12.5C5.4165 8.58794 8.58782 5.41663 12.4998 5.41663C16.4119 5.41663 19.5832 8.58794 19.5832 12.5C19.5832 16.412 16.4119 19.5833 12.4998 19.5833C8.58782 19.5833 5.4165 16.412 5.4165 12.5ZM13.1248 8.33329C13.1248 7.98811 12.845 7.70829 12.4998 7.70829C12.1547 7.70829 11.8748 7.98811 11.8748 8.33329V12.5C11.8748 12.7155 11.9859 12.9157 12.1686 13.03L14.6686 14.5925C14.9613 14.7754 15.3469 14.6864 15.5298 14.3937C15.7128 14.101 15.6238 13.7154 15.3311 13.5325L13.1248 12.1536V8.33329Z" fill="#04090C"/>
</svg>
