<svg width="25" height="25" viewBox="0 0 25 25" fill="none" xmlns="http://www.w3.org/2000/svg">
<rect width="25" height="25" rx="12.5" fill="#EFEFEF"/>
<path d="M18.3333 10.7172C16.7363 14.1954 13.8946 16.9608 10.3617 18.46L9.79536 18.7123C8.49969 19.2896 6.97656 18.851 6.18628 17.6731L5.44621 16.57C5.20559 16.2114 5.27885 15.7283 5.61499 15.4571L8.12486 13.4323C8.49351 13.1349 9.0356 13.2042 9.31762 13.5847L10.0941 14.6324C12.0864 13.6497 13.7039 12.0321 14.6867 10.0398L13.639 9.26334C13.2585 8.98132 13.1892 8.43923 13.4866 8.07058L15.5115 5.56062C15.7826 5.22455 16.2655 5.15125 16.6242 5.39172L17.7349 6.13647C18.9202 6.93123 19.3563 8.46693 18.7657 9.76606L18.334 10.7157L18.3333 10.7172Z" fill="#04090C"/>
</svg>
