<svg width="25" height="26" viewBox="0 0 25 26" fill="none" xmlns="http://www.w3.org/2000/svg">
<rect y="0.666504" width="25" height="25" rx="12.5" fill="#EFEFEF"/>
<path fill-rule="evenodd" clip-rule="evenodd" d="M17.9026 19.6582L17.9032 19.6568L17.9177 19.6205L20.4167 7.02128V6.98036C20.4167 6.66644 20.3007 6.39239 20.0483 6.228C19.8273 6.08412 19.5734 6.07387 19.3953 6.08739C19.2069 6.10169 19.0293 6.1487 18.9064 6.18783C18.8431 6.20796 18.7902 6.22736 18.7523 6.24204C18.7333 6.2494 18.7179 6.25565 18.7067 6.2603L18.6957 6.26493L4.76256 11.7307L4.75872 11.7321C4.7512 11.7348 4.74124 11.7385 4.72922 11.7432C4.70526 11.7525 4.67265 11.7659 4.63433 11.7833C4.5591 11.8174 4.45515 11.87 4.34973 11.9422C4.17069 12.0648 3.82976 12.355 3.88733 12.8152C3.93501 13.1964 4.19776 13.4385 4.3749 13.5638C4.46986 13.631 4.5607 13.6795 4.62723 13.7111C4.66093 13.7272 4.68957 13.7395 4.71089 13.7482C4.72158 13.7525 4.73052 13.756 4.73743 13.7586L4.74629 13.7619L4.75195 13.764L7.18965 14.5847C7.18142 14.7376 7.19659 14.8936 7.23715 15.0474L8.45822 19.6795C8.603 20.2287 9.09986 20.6112 9.66783 20.6108C10.1769 20.6105 10.6285 20.3025 10.8203 19.8429L12.7267 17.8045L16.0008 20.3147L16.0474 20.3351C16.3449 20.4649 16.6228 20.506 16.8769 20.4713C17.1306 20.4366 17.3323 20.3302 17.4837 20.209C17.6328 20.0898 17.735 19.9552 17.7992 19.8539C17.8318 19.8024 17.8562 19.7571 17.873 19.7231C17.8815 19.706 17.8882 19.6915 17.8932 19.6802L17.8995 19.6657L17.9017 19.6604L17.9026 19.6582ZM8.44582 14.7288C8.41807 14.6235 8.46163 14.5124 8.55354 14.454L16.8219 9.20327C16.8219 9.20327 17.3082 8.90803 17.2908 9.20327C17.2908 9.20327 17.3776 9.25541 17.117 9.49852C16.8698 9.72941 11.224 15.1803 10.6527 15.7319C10.6197 15.7637 10.6 15.8002 10.5884 15.8446L9.66689 19.3608L8.44582 14.7288Z" fill="black"/>
</svg>
