<svg width="1476" height="365" viewBox="0 0 1476 365" fill="none" xmlns="http://www.w3.org/2000/svg">
<path d="M196.816 63.021C193.232 63.021 189.925 62.445 186.896 61.293C183.867 60.141 181.221 58.5197 178.96 56.429C176.741 54.2957 175.013 51.821 173.776 49.005C172.539 46.189 171.92 43.0957 171.92 39.725C171.92 36.3543 172.539 33.261 173.776 30.445C175.013 27.629 176.741 25.1757 178.96 23.085C181.221 20.9517 183.867 19.309 186.896 18.157C189.925 17.005 193.232 16.429 196.816 16.429C200.443 16.429 203.749 17.005 206.736 18.157C209.765 19.309 212.389 20.9517 214.608 23.085C216.827 25.1757 218.555 27.629 219.792 30.445C221.072 33.261 221.712 36.3543 221.712 39.725C221.712 43.0957 221.072 46.2103 219.792 49.069C218.555 51.885 216.827 54.3383 214.608 56.429C212.389 58.5197 209.765 60.141 206.736 61.293C203.749 62.445 200.443 63.021 196.816 63.021ZM196.816 52.525C198.523 52.525 200.101 52.2263 201.552 51.629C203.045 51.0317 204.325 50.1783 205.392 49.069C206.501 47.917 207.355 46.5517 207.952 44.973C208.592 43.3943 208.912 41.645 208.912 39.725C208.912 37.7623 208.592 36.013 207.952 34.477C207.355 32.8983 206.501 31.5543 205.392 30.445C204.325 29.293 203.045 28.4183 201.552 27.821C200.101 27.2237 198.523 26.925 196.816 26.925C195.109 26.925 193.509 27.2237 192.016 27.821C190.565 28.4183 189.285 29.293 188.176 30.445C187.109 31.5543 186.256 32.8983 185.616 34.477C185.019 36.013 184.72 37.7623 184.72 39.725C184.72 41.645 185.019 43.3943 185.616 44.973C186.256 46.5517 187.109 47.917 188.176 49.069C189.285 50.1783 190.565 51.0317 192.016 51.629C193.509 52.2263 195.109 52.525 196.816 52.525ZM235.34 62.125V34.413L237.964 37.101H224.14V27.437H258.572V37.101H244.748L247.436 34.413V62.125H235.34ZM263.284 62.125V27.437H281.908C286.388 27.437 289.886 28.2263 292.404 29.805C294.921 31.341 296.18 33.5597 296.18 36.461C296.18 39.2343 295.006 41.453 292.66 43.117C290.356 44.7383 287.241 45.549 283.316 45.549L284.404 42.989C288.628 42.989 291.806 43.7783 293.94 45.357C296.116 46.893 297.204 49.1543 297.204 52.141C297.204 55.213 296.009 57.645 293.62 59.437C291.273 61.229 287.668 62.125 282.804 62.125H263.284ZM274.164 54.253H281.716C283.209 54.253 284.318 53.997 285.044 53.485C285.769 52.9303 286.132 52.1197 286.132 51.053C286.132 49.9437 285.769 49.133 285.044 48.621C284.361 48.109 283.294 47.853 281.844 47.853H274.164V54.253ZM274.164 41.389H280.82C282.27 41.389 283.337 41.133 284.02 40.621C284.702 40.0663 285.044 39.277 285.044 38.253C285.044 37.229 284.702 36.4823 284.02 36.013C283.337 35.501 282.27 35.245 280.82 35.245H274.164V41.389ZM321.202 62.701C317.106 62.701 313.522 61.933 310.45 60.397C307.421 58.8183 305.053 56.685 303.346 53.997C301.682 51.2663 300.85 48.173 300.85 44.717C300.85 41.261 301.661 38.189 303.282 35.501C304.946 32.7703 307.229 30.6583 310.13 29.165C313.031 27.629 316.295 26.861 319.922 26.861C323.335 26.861 326.45 27.565 329.266 28.973C332.082 30.3383 334.322 32.365 335.986 35.053C337.65 37.741 338.482 41.005 338.482 44.845C338.482 45.2717 338.461 45.7623 338.418 46.317C338.375 46.8717 338.333 47.3837 338.29 47.853H310.834V41.453H331.826L327.218 43.245C327.261 41.6663 326.962 40.301 326.322 39.149C325.725 37.997 324.871 37.101 323.762 36.461C322.695 35.821 321.437 35.501 319.986 35.501C318.535 35.501 317.255 35.821 316.146 36.461C315.079 37.101 314.247 38.0183 313.65 39.213C313.053 40.365 312.754 41.7303 312.754 43.309V45.165C312.754 46.8717 313.095 48.3437 313.778 49.581C314.503 50.8183 315.527 51.7783 316.85 52.461C318.173 53.101 319.751 53.421 321.586 53.421C323.293 53.421 324.743 53.1863 325.938 52.717C327.175 52.205 328.391 51.437 329.586 50.413L335.986 57.069C334.322 58.9037 332.274 60.3117 329.842 61.293C327.41 62.2317 324.53 62.701 321.202 62.701ZM351.528 62.125V34.413L354.152 37.101H340.328V27.437H374.76V37.101H360.936L363.624 34.413V62.125H351.528ZM416.015 62.125V27.437H428.111V62.125H416.015ZM399.311 38.189C403.919 38.2317 407.354 39.2557 409.615 41.261C411.919 43.2663 413.071 46.125 413.071 49.837C413.071 53.677 411.748 56.7063 409.103 58.925C406.458 61.101 402.682 62.1677 397.775 62.125H379.471V27.437H391.567V38.189H399.311ZM396.559 53.805C398.01 53.805 399.14 53.4637 399.951 52.781C400.762 52.0983 401.167 51.053 401.167 49.645C401.167 48.1943 400.762 47.1703 399.951 46.573C399.183 45.9757 398.052 45.6557 396.559 45.613H391.567V53.741L396.559 53.805ZM454.971 62.125V27.437H467.067V40.301H479.547V27.437H491.707V62.125H479.547V49.965H467.067V62.125H454.971ZM520.453 62.125V55.661L519.621 54.061V42.157C519.621 40.237 519.023 38.765 517.829 37.741C516.677 36.6743 514.821 36.141 512.26 36.141C510.597 36.141 508.911 36.4183 507.205 36.973C505.498 37.485 504.047 38.2103 502.853 39.149L498.757 30.893C500.719 29.613 503.066 28.6317 505.797 27.949C508.57 27.2237 511.322 26.861 514.053 26.861C519.685 26.861 524.037 28.1623 527.109 30.765C530.223 33.325 531.781 37.357 531.781 42.861V62.125H520.453ZM510.213 62.701C507.439 62.701 505.093 62.2317 503.173 61.293C501.253 60.3543 499.781 59.0743 498.757 57.453C497.775 55.8317 497.285 54.0183 497.285 52.013C497.285 49.8797 497.818 48.045 498.885 46.509C499.994 44.9303 501.679 43.7357 503.941 42.925C506.202 42.0717 509.125 41.645 512.708 41.645H520.901V47.981H514.373C512.41 47.981 511.023 48.301 510.213 48.941C509.445 49.581 509.061 50.4343 509.061 51.501C509.061 52.5677 509.466 53.421 510.277 54.061C511.087 54.701 512.197 55.021 513.605 55.021C514.927 55.021 516.122 54.701 517.189 54.061C518.298 53.3783 519.109 52.3543 519.621 50.989L521.285 55.469C520.645 57.8583 519.386 59.6717 517.509 60.909C515.674 62.1037 513.242 62.701 510.213 62.701ZM557.721 62.125V27.437H576.345C580.825 27.437 584.324 28.2263 586.841 29.805C589.358 31.341 590.617 33.5597 590.617 36.461C590.617 39.2343 589.444 41.453 587.097 43.117C584.793 44.7383 581.678 45.549 577.753 45.549L578.841 42.989C583.065 42.989 586.244 43.7783 588.377 45.357C590.553 46.893 591.641 49.1543 591.641 52.141C591.641 55.213 590.446 57.645 588.057 59.437C585.71 61.229 582.105 62.125 577.241 62.125H557.721ZM568.601 54.253H576.153C577.646 54.253 578.756 53.997 579.481 53.485C580.206 52.9303 580.569 52.1197 580.569 51.053C580.569 49.9437 580.206 49.133 579.481 48.621C578.798 48.109 577.732 47.853 576.281 47.853H568.601V54.253ZM568.601 41.389H575.257C576.708 41.389 577.774 41.133 578.457 40.621C579.14 40.0663 579.481 39.277 579.481 38.253C579.481 37.229 579.14 36.4823 578.457 36.013C577.774 35.501 576.708 35.245 575.257 35.245H568.601V41.389ZM614.872 62.701C611.074 62.701 607.704 61.933 604.76 60.397C601.816 58.861 599.49 56.749 597.784 54.061C596.12 51.3303 595.288 48.2157 595.288 44.717C595.288 41.2183 596.12 38.125 597.784 35.437C599.49 32.749 601.816 30.6583 604.76 29.165C607.704 27.629 611.074 26.861 614.872 26.861C618.669 26.861 622.04 27.629 624.984 29.165C627.97 30.6583 630.296 32.749 631.96 35.437C633.624 38.125 634.456 41.2183 634.456 44.717C634.456 48.2157 633.624 51.3303 631.96 54.061C630.296 56.749 627.97 58.861 624.984 60.397C622.04 61.933 618.669 62.701 614.872 62.701ZM614.872 53.037C616.28 53.037 617.517 52.717 618.584 52.077C619.693 51.437 620.568 50.4983 621.208 49.261C621.848 47.981 622.168 46.4663 622.168 44.717C622.168 42.9677 621.848 41.4957 621.208 40.301C620.568 39.0637 619.693 38.125 618.584 37.485C617.517 36.845 616.28 36.525 614.872 36.525C613.506 36.525 612.269 36.845 611.16 37.485C610.093 38.125 609.218 39.0637 608.536 40.301C607.896 41.4957 607.576 42.9677 607.576 44.717C607.576 46.4663 607.896 47.981 608.536 49.261C609.218 50.4983 610.093 51.437 611.16 52.077C612.269 52.717 613.506 53.037 614.872 53.037ZM640.159 62.125V27.437H675.999V62.125H663.903V34.477L666.591 37.101H649.631L652.255 34.477V62.125H640.159ZM706.108 62.701C703.164 62.701 700.646 62.061 698.556 60.781C696.465 59.4583 694.865 57.4957 693.756 54.893C692.689 52.2477 692.156 48.877 692.156 44.781C692.156 40.6423 692.668 37.2717 693.692 34.669C694.716 32.0237 696.252 30.061 698.3 28.781C700.39 27.501 702.993 26.861 706.108 26.861C709.265 26.861 712.124 27.6077 714.684 29.101C717.286 30.5517 719.334 32.621 720.828 35.309C722.364 37.9543 723.132 41.1117 723.132 44.781C723.132 48.4503 722.364 51.629 720.828 54.317C719.334 57.005 717.286 59.0743 714.684 60.525C712.124 61.9757 709.265 62.701 706.108 62.701ZM684.284 74.541V27.437H695.868V33.325L695.804 44.781L696.444 56.301V74.541H684.284ZM703.548 53.037C704.913 53.037 706.129 52.717 707.196 52.077C708.305 51.437 709.18 50.4983 709.82 49.261C710.502 48.0237 710.844 46.5303 710.844 44.781C710.844 43.0317 710.502 41.5383 709.82 40.301C709.18 39.0637 708.305 38.125 707.196 37.485C706.129 36.845 704.913 36.525 703.548 36.525C702.182 36.525 700.945 36.845 699.836 37.485C698.769 38.125 697.894 39.0637 697.212 40.301C696.572 41.5383 696.252 43.0317 696.252 44.781C696.252 46.5303 696.572 48.0237 697.212 49.261C697.894 50.4983 698.769 51.437 699.836 52.077C700.945 52.717 702.182 53.037 703.548 53.037ZM746.059 62.701C742.262 62.701 738.891 61.933 735.947 60.397C733.003 58.861 730.678 56.749 728.971 54.061C727.307 51.3303 726.475 48.2157 726.475 44.717C726.475 41.2183 727.307 38.125 728.971 35.437C730.678 32.749 733.003 30.6583 735.947 29.165C738.891 27.629 742.262 26.861 746.059 26.861C749.856 26.861 753.227 27.629 756.171 29.165C759.158 30.6583 761.483 32.749 763.147 35.437C764.811 38.125 765.643 41.2183 765.643 44.717C765.643 48.2157 764.811 51.3303 763.147 54.061C761.483 56.749 759.158 58.861 756.171 60.397C753.227 61.933 749.856 62.701 746.059 62.701ZM746.059 53.037C747.467 53.037 748.704 52.717 749.771 52.077C750.88 51.437 751.755 50.4983 752.395 49.261C753.035 47.981 753.355 46.4663 753.355 44.717C753.355 42.9677 753.035 41.4957 752.395 40.301C751.755 39.0637 750.88 38.125 749.771 37.485C748.704 36.845 747.467 36.525 746.059 36.525C744.694 36.525 743.456 36.845 742.347 37.485C741.28 38.125 740.406 39.0637 739.723 40.301C739.083 41.4957 738.763 42.9677 738.763 44.717C738.763 46.4663 739.083 47.981 739.723 49.261C740.406 50.4983 741.28 51.437 742.347 52.077C743.456 52.717 744.694 53.037 746.059 53.037ZM788.754 62.701C784.914 62.701 781.479 61.933 778.45 60.397C775.463 58.861 773.117 56.749 771.41 54.061C769.703 51.3303 768.85 48.2157 768.85 44.717C768.85 41.2183 769.703 38.125 771.41 35.437C773.117 32.749 775.463 30.6583 778.45 29.165C781.479 27.629 784.914 26.861 788.754 26.861C792.679 26.861 796.071 27.693 798.93 29.357C801.789 31.021 803.815 33.3677 805.01 36.397L795.602 41.197C794.791 39.5757 793.789 38.4023 792.594 37.677C791.399 36.909 790.098 36.525 788.69 36.525C787.282 36.525 786.002 36.845 784.85 37.485C783.698 38.125 782.781 39.0637 782.098 40.301C781.458 41.4957 781.138 42.9677 781.138 44.717C781.138 46.509 781.458 48.0237 782.098 49.261C782.781 50.4983 783.698 51.437 784.85 52.077C786.002 52.717 787.282 53.037 788.69 53.037C790.098 53.037 791.399 52.6743 792.594 51.949C793.789 51.181 794.791 49.9863 795.602 48.365L805.01 53.165C803.815 56.1943 801.789 58.541 798.93 60.205C796.071 61.869 792.679 62.701 788.754 62.701ZM846.64 62.125V27.437H858.736V62.125H846.64ZM829.936 38.189C834.544 38.2317 837.979 39.2557 840.24 41.261C842.544 43.2663 843.696 46.125 843.696 49.837C843.696 53.677 842.373 56.7063 839.728 58.925C837.083 61.101 833.307 62.1677 828.4 62.125H810.096V27.437H822.192V38.189H829.936ZM827.184 53.805C828.635 53.805 829.765 53.4637 830.576 52.781C831.387 52.0983 831.792 51.053 831.792 49.645C831.792 48.1943 831.387 47.1703 830.576 46.573C829.808 45.9757 828.677 45.6557 827.184 45.613H822.192V53.741L827.184 53.805Z" fill="#0077FF"/>
<mask id="path-2-inside-1_931_257" fill="white">
<path d="M170 138.125H1306V187.125H170V138.125Z"/>
</mask>
<path d="M1306 187.125V186.125H170V187.125V188.125H1306V187.125Z" fill="black" mask="url(#path-2-inside-1_931_257)"/>
<path d="M193.92 171.125L187.824 162.845L189.768 161.645L196.656 171.125H193.92ZM182.616 171.125V154.325H184.968V171.125H182.616ZM184.248 163.733V161.621H189.696V163.733H184.248ZM189.984 162.989L187.776 162.653L193.8 154.325H196.368L189.984 162.989ZM206.696 171.125V168.437L206.576 167.933V163.349C206.576 162.373 206.288 161.621 205.712 161.093C205.152 160.549 204.304 160.277 203.168 160.277C202.416 160.277 201.68 160.405 200.96 160.661C200.24 160.901 199.632 161.229 199.136 161.645L198.176 159.917C198.832 159.389 199.616 158.989 200.528 158.717C201.456 158.429 202.424 158.285 203.432 158.285C205.176 158.285 206.52 158.709 207.464 159.557C208.408 160.405 208.88 161.701 208.88 163.445V171.125H206.696ZM202.52 171.269C201.576 171.269 200.744 171.109 200.024 170.789C199.32 170.469 198.776 170.029 198.392 169.469C198.008 168.893 197.816 168.245 197.816 167.525C197.816 166.837 197.976 166.213 198.296 165.653C198.632 165.093 199.168 164.645 199.904 164.309C200.656 163.973 201.664 163.805 202.928 163.805H206.96V165.461H203.024C201.872 165.461 201.096 165.653 200.696 166.037C200.296 166.421 200.096 166.885 200.096 167.429C200.096 168.053 200.344 168.557 200.84 168.941C201.336 169.309 202.024 169.493 202.904 169.493C203.768 169.493 204.52 169.301 205.16 168.917C205.816 168.533 206.288 167.973 206.576 167.237L207.032 168.821C206.728 169.573 206.192 170.173 205.424 170.621C204.656 171.053 203.688 171.269 202.52 171.269ZM222.245 171.125L217.325 164.933L219.221 163.781L224.957 171.125H222.245ZM213.029 171.125V158.405H215.333V171.125H213.029ZM214.637 165.749V163.781H218.837V165.749H214.637ZM219.413 165.029L217.277 164.741L222.149 158.405H224.621L219.413 165.029ZM233.818 171.125V158.405H245.602V171.125H243.298V159.845L243.85 160.421H235.57L236.122 159.845V171.125H233.818ZM256.804 171.269C255.748 171.269 254.78 171.029 253.9 170.549C253.036 170.053 252.34 169.325 251.812 168.365C251.3 167.405 251.044 166.205 251.044 164.765C251.044 163.325 251.292 162.125 251.788 161.165C252.3 160.205 252.988 159.485 253.852 159.005C254.732 158.525 255.716 158.285 256.804 158.285C258.052 158.285 259.156 158.557 260.116 159.101C261.076 159.645 261.836 160.405 262.396 161.381C262.956 162.341 263.236 163.469 263.236 164.765C263.236 166.061 262.956 167.197 262.396 168.173C261.836 169.149 261.076 169.909 260.116 170.453C259.156 170.997 258.052 171.269 256.804 171.269ZM250.06 175.781V158.405H252.268V161.837L252.124 164.789L252.364 167.741V175.781H250.06ZM256.612 169.253C257.428 169.253 258.156 169.069 258.796 168.701C259.452 168.333 259.964 167.813 260.332 167.141C260.716 166.453 260.908 165.661 260.908 164.765C260.908 163.853 260.716 163.069 260.332 162.413C259.964 161.741 259.452 161.221 258.796 160.853C258.156 160.485 257.428 160.301 256.612 160.301C255.812 160.301 255.084 160.485 254.428 160.853C253.788 161.221 253.276 161.741 252.892 162.413C252.524 163.069 252.34 163.853 252.34 164.765C252.34 165.661 252.524 166.453 252.892 167.141C253.276 167.813 253.788 168.333 254.428 168.701C255.084 169.069 255.812 169.253 256.612 169.253ZM272.032 171.269C270.752 171.269 269.616 170.989 268.624 170.429C267.632 169.869 266.848 169.101 266.272 168.125C265.696 167.133 265.408 166.013 265.408 164.765C265.408 163.501 265.696 162.381 266.272 161.405C266.848 160.429 267.632 159.669 268.624 159.125C269.616 158.565 270.752 158.285 272.032 158.285C273.296 158.285 274.424 158.565 275.416 159.125C276.424 159.669 277.208 160.429 277.768 161.405C278.344 162.365 278.632 163.485 278.632 164.765C278.632 166.029 278.344 167.149 277.768 168.125C277.208 169.101 276.424 169.869 275.416 170.429C274.424 170.989 273.296 171.269 272.032 171.269ZM272.032 169.253C272.848 169.253 273.576 169.069 274.216 168.701C274.872 168.333 275.384 167.813 275.752 167.141C276.12 166.453 276.304 165.661 276.304 164.765C276.304 163.853 276.12 163.069 275.752 162.413C275.384 161.741 274.872 161.221 274.216 160.853C273.576 160.485 272.848 160.301 272.032 160.301C271.216 160.301 270.488 160.485 269.848 160.853C269.208 161.221 268.696 161.741 268.312 162.413C267.928 163.069 267.736 163.853 267.736 164.765C267.736 165.661 267.928 166.453 268.312 167.141C268.696 167.813 269.208 168.333 269.848 168.701C270.488 169.069 271.216 169.253 272.032 169.253ZM279.521 171.125L284.993 164.021L284.969 165.197L279.761 158.405H282.329L286.313 163.637H285.329L289.313 158.405H291.833L286.553 165.245L286.577 164.021L292.097 171.125H289.481L285.281 165.557L286.217 165.701L282.089 171.125H279.521ZM299.547 171.269C298.267 171.269 297.131 170.989 296.139 170.429C295.147 169.869 294.363 169.101 293.787 168.125C293.211 167.133 292.923 166.013 292.923 164.765C292.923 163.501 293.211 162.381 293.787 161.405C294.363 160.429 295.147 159.669 296.139 159.125C297.131 158.565 298.267 158.285 299.547 158.285C300.811 158.285 301.939 158.565 302.931 159.125C303.939 159.669 304.723 160.429 305.283 161.405C305.859 162.365 306.147 163.485 306.147 164.765C306.147 166.029 305.859 167.149 305.283 168.125C304.723 169.101 303.939 169.869 302.931 170.429C301.939 170.989 300.811 171.269 299.547 171.269ZM299.547 169.253C300.363 169.253 301.091 169.069 301.731 168.701C302.387 168.333 302.899 167.813 303.267 167.141C303.635 166.453 303.819 165.661 303.819 164.765C303.819 163.853 303.635 163.069 303.267 162.413C302.899 161.741 302.387 161.221 301.731 160.853C301.091 160.485 300.363 160.301 299.547 160.301C298.731 160.301 298.003 160.485 297.363 160.853C296.723 161.221 296.211 161.741 295.827 162.413C295.443 163.069 295.251 163.853 295.251 164.765C295.251 165.661 295.443 166.453 295.827 167.141C296.211 167.813 296.723 168.333 297.363 168.701C298.003 169.069 298.731 169.253 299.547 169.253ZM318.068 170.045V160.421H312.548L312.428 162.869C312.396 163.669 312.34 164.445 312.26 165.197C312.196 165.933 312.084 166.613 311.924 167.237C311.78 167.861 311.564 168.373 311.276 168.773C310.988 169.173 310.604 169.421 310.124 169.517L307.844 169.109C308.34 169.125 308.74 168.965 309.044 168.629C309.348 168.277 309.58 167.797 309.74 167.189C309.916 166.581 310.044 165.893 310.124 165.125C310.204 164.341 310.268 163.533 310.316 162.701L310.508 158.405H320.372V170.045H318.068ZM307.34 174.077V169.109H322.316V174.077H320.156V171.125H309.524V174.077H307.34ZM325.318 171.125V158.405H327.622V167.669L335.422 158.405H337.51V171.125H335.206V161.861L327.43 171.125H325.318ZM344.502 171.125V159.821L345.078 160.421H339.846V158.405H351.462V160.421H346.254L346.806 159.821V171.125H344.502ZM365.711 171.269C364.431 171.269 363.295 170.989 362.303 170.429C361.311 169.869 360.527 169.101 359.951 168.125C359.375 167.133 359.087 166.013 359.087 164.765C359.087 163.501 359.375 162.381 359.951 161.405C360.527 160.429 361.311 159.669 362.303 159.125C363.295 158.565 364.431 158.285 365.711 158.285C366.975 158.285 368.103 158.565 369.095 159.125C370.103 159.669 370.887 160.429 371.447 161.405C372.023 162.365 372.311 163.485 372.311 164.765C372.311 166.029 372.023 167.149 371.447 168.125C370.887 169.101 370.103 169.869 369.095 170.429C368.103 170.989 366.975 171.269 365.711 171.269ZM365.711 169.253C366.527 169.253 367.255 169.069 367.895 168.701C368.551 168.333 369.063 167.813 369.431 167.141C369.799 166.453 369.983 165.661 369.983 164.765C369.983 163.853 369.799 163.069 369.431 162.413C369.063 161.741 368.551 161.221 367.895 160.853C367.255 160.485 366.527 160.301 365.711 160.301C364.895 160.301 364.167 160.485 363.527 160.853C362.887 161.221 362.375 161.741 361.991 162.413C361.607 163.069 361.415 163.853 361.415 164.765C361.415 165.661 361.607 166.453 361.991 167.141C362.375 167.813 362.887 168.333 363.527 168.701C364.167 169.069 364.895 169.253 365.711 169.253ZM381.518 171.317C380.462 171.317 379.526 171.149 378.71 170.813C377.91 170.477 377.222 169.981 376.646 169.325C376.07 168.653 375.63 167.813 375.326 166.805C375.038 165.781 374.894 164.581 374.894 163.205C374.894 162.117 374.99 161.141 375.182 160.277C375.374 159.413 375.646 158.645 375.998 157.973C376.366 157.301 376.814 156.717 377.342 156.221C377.886 155.725 378.494 155.317 379.166 154.997C379.854 154.661 380.606 154.405 381.422 154.229L387.23 152.933L387.566 155.069L382.214 156.221C381.894 156.285 381.51 156.381 381.062 156.509C380.614 156.637 380.158 156.837 379.694 157.109C379.23 157.365 378.798 157.725 378.398 158.189C377.998 158.653 377.678 159.261 377.438 160.013C377.198 160.749 377.078 161.661 377.078 162.749C377.078 163.053 377.086 163.285 377.102 163.445C377.118 163.605 377.134 163.765 377.15 163.925C377.182 164.085 377.206 164.325 377.222 164.645L376.262 163.661C376.518 162.781 376.926 162.013 377.486 161.357C378.046 160.701 378.718 160.197 379.502 159.845C380.302 159.477 381.174 159.293 382.118 159.293C383.302 159.293 384.35 159.549 385.262 160.061C386.19 160.573 386.918 161.277 387.446 162.173C387.974 163.069 388.238 164.093 388.238 165.245C388.238 166.413 387.958 167.461 387.398 168.389C386.854 169.301 386.078 170.021 385.07 170.549C384.062 171.061 382.878 171.317 381.518 171.317ZM381.734 169.397C382.55 169.397 383.27 169.221 383.894 168.869C384.518 168.501 385.006 168.013 385.358 167.405C385.71 166.781 385.886 166.085 385.886 165.317C385.886 164.549 385.71 163.869 385.358 163.277C385.006 162.685 384.518 162.221 383.894 161.885C383.27 161.533 382.534 161.357 381.686 161.357C380.886 161.357 380.166 161.525 379.526 161.861C378.886 162.181 378.39 162.637 378.038 163.229C377.686 163.805 377.51 164.477 377.51 165.245C377.51 166.013 377.686 166.717 378.038 167.357C378.406 167.981 378.902 168.477 379.526 168.845C380.166 169.213 380.902 169.397 381.734 169.397ZM391.825 175.925C391.217 175.925 390.625 175.821 390.049 175.613C389.473 175.421 388.977 175.133 388.561 174.749L389.545 173.021C389.865 173.325 390.217 173.557 390.601 173.717C390.985 173.877 391.393 173.957 391.825 173.957C392.385 173.957 392.849 173.813 393.217 173.525C393.585 173.237 393.929 172.725 394.249 171.989L395.041 170.237L395.281 169.949L400.273 158.405H402.529L396.361 172.397C395.993 173.293 395.577 173.997 395.113 174.509C394.665 175.021 394.169 175.381 393.625 175.589C393.081 175.813 392.481 175.925 391.825 175.925ZM394.849 171.533L389.041 158.405H391.441L396.385 169.733L394.849 171.533ZM412.904 165.917C412.232 166.237 411.536 166.493 410.816 166.685C410.112 166.861 409.384 166.949 408.632 166.949C407.096 166.949 405.88 166.589 404.984 165.869C404.104 165.149 403.664 164.037 403.664 162.533V158.405H405.968V162.389C405.968 163.301 406.248 163.973 406.808 164.405C407.384 164.837 408.152 165.053 409.112 165.053C409.72 165.053 410.344 164.973 410.984 164.813C411.64 164.653 412.28 164.429 412.904 164.141V165.917ZM412.736 171.125V158.405H415.04V171.125H412.736ZM425.177 171.269C423.817 171.269 422.617 170.989 421.577 170.429C420.553 169.869 419.753 169.101 419.177 168.125C418.617 167.149 418.337 166.029 418.337 164.765C418.337 163.501 418.609 162.381 419.153 161.405C419.713 160.429 420.473 159.669 421.433 159.125C422.409 158.565 423.505 158.285 424.721 158.285C425.953 158.285 427.041 158.557 427.985 159.101C428.929 159.645 429.665 160.413 430.193 161.405C430.737 162.381 431.009 163.525 431.009 164.837C431.009 164.933 431.001 165.045 430.985 165.173C430.985 165.301 430.977 165.421 430.961 165.533H420.137V163.877H429.761L428.825 164.453C428.841 163.637 428.673 162.909 428.321 162.269C427.969 161.629 427.481 161.133 426.857 160.781C426.249 160.413 425.537 160.229 424.721 160.229C423.921 160.229 423.209 160.413 422.585 160.781C421.961 161.133 421.473 161.637 421.121 162.293C420.769 162.933 420.593 163.669 420.593 164.501V164.885C420.593 165.733 420.785 166.493 421.169 167.165C421.569 167.821 422.121 168.333 422.825 168.701C423.529 169.069 424.337 169.253 425.249 169.253C426.001 169.253 426.681 169.125 427.289 168.869C427.913 168.613 428.457 168.229 428.921 167.717L430.193 169.205C429.617 169.877 428.897 170.389 428.033 170.741C427.185 171.093 426.233 171.269 425.177 171.269ZM434.584 171.125V158.405H436.888V163.805H444.136V158.405H446.44V171.125H444.136V165.797H436.888V171.125H434.584ZM450.92 171.125V158.405H453.224V167.669L461.023 158.405H463.112V171.125H460.807V161.861L453.032 171.125H450.92ZM473.248 171.269C471.888 171.269 470.688 170.989 469.648 170.429C468.624 169.869 467.824 169.101 467.248 168.125C466.688 167.149 466.408 166.029 466.408 164.765C466.408 163.501 466.68 162.381 467.224 161.405C467.784 160.429 468.544 159.669 469.504 159.125C470.48 158.565 471.576 158.285 472.792 158.285C474.024 158.285 475.112 158.557 476.056 159.101C477 159.645 477.736 160.413 478.264 161.405C478.808 162.381 479.08 163.525 479.08 164.837C479.08 164.933 479.072 165.045 479.056 165.173C479.056 165.301 479.048 165.421 479.032 165.533H468.208V163.877H477.832L476.896 164.453C476.912 163.637 476.744 162.909 476.392 162.269C476.04 161.629 475.552 161.133 474.928 160.781C474.32 160.413 473.608 160.229 472.792 160.229C471.992 160.229 471.28 160.413 470.656 160.781C470.032 161.133 469.544 161.637 469.192 162.293C468.84 162.933 468.664 163.669 468.664 164.501V164.885C468.664 165.733 468.856 166.493 469.24 167.165C469.64 167.821 470.192 168.333 470.896 168.701C471.6 169.069 472.408 169.253 473.32 169.253C474.072 169.253 474.752 169.125 475.36 168.869C475.984 168.613 476.528 168.229 476.992 167.717L478.264 169.205C477.688 169.877 476.968 170.389 476.104 170.741C475.256 171.093 474.304 171.269 473.248 171.269ZM484.769 165.821C484.769 165.197 484.873 164.653 485.081 164.189C485.289 163.725 485.545 163.309 485.849 162.941C486.169 162.573 486.513 162.237 486.881 161.933C487.249 161.613 487.593 161.301 487.913 160.997C488.233 160.677 488.489 160.341 488.681 159.989C488.889 159.637 488.993 159.229 488.993 158.765C488.993 157.997 488.689 157.373 488.081 156.893C487.473 156.413 486.633 156.173 485.561 156.173C484.601 156.173 483.769 156.333 483.065 156.653C482.361 156.973 481.761 157.445 481.265 158.069L479.513 156.821C480.185 155.973 481.041 155.317 482.081 154.853C483.121 154.373 484.337 154.133 485.729 154.133C486.881 154.133 487.881 154.309 488.729 154.661C489.577 154.997 490.233 155.485 490.697 156.125C491.177 156.749 491.417 157.509 491.417 158.405C491.417 159.077 491.313 159.653 491.105 160.133C490.897 160.613 490.633 161.037 490.313 161.405C489.993 161.773 489.649 162.117 489.281 162.437C488.929 162.757 488.593 163.077 488.273 163.397C487.953 163.717 487.689 164.069 487.481 164.453C487.273 164.837 487.169 165.293 487.169 165.821H484.769ZM485.993 171.269C485.545 171.269 485.169 171.117 484.865 170.813C484.577 170.509 484.433 170.149 484.433 169.733C484.433 169.285 484.577 168.917 484.865 168.629C485.169 168.341 485.545 168.197 485.993 168.197C486.441 168.197 486.809 168.341 487.097 168.629C487.385 168.917 487.529 169.285 487.529 169.733C487.529 170.149 487.385 170.509 487.097 170.813C486.809 171.117 486.441 171.269 485.993 171.269Z" fill="black"/>
<path d="M1277 157.625L1287.51 167.625L1296 157.625" stroke="black" stroke-width="3" stroke-linecap="round"/>
<mask id="path-6-inside-2_931_257" fill="white">
<path d="M170 197.125H1306V246.125H170V197.125Z"/>
</mask>
<path d="M1306 246.125V245.125H170V246.125V247.125H1306V246.125Z" fill="black" mask="url(#path-6-inside-2_931_257)"/>
<path d="M185.088 222.565V220.597H194.088V222.565H185.088ZM187.248 213.133C188.464 213.133 189.584 213.349 190.608 213.781C191.632 214.197 192.52 214.797 193.272 215.581C194.04 216.349 194.632 217.253 195.048 218.293C195.48 219.333 195.696 220.477 195.696 221.725C195.696 222.973 195.48 224.117 195.048 225.157C194.632 226.197 194.04 227.109 193.272 227.893C192.52 228.661 191.632 229.261 190.608 229.693C189.584 230.109 188.464 230.317 187.248 230.317C185.904 230.317 184.664 230.093 183.528 229.645C182.408 229.197 181.464 228.541 180.696 227.677L182.208 226.165C182.88 226.853 183.624 227.357 184.44 227.677C185.272 227.997 186.168 228.157 187.128 228.157C188.008 228.157 188.824 227.997 189.576 227.677C190.328 227.357 190.976 226.917 191.52 226.357C192.08 225.781 192.512 225.101 192.816 224.317C193.12 223.517 193.272 222.653 193.272 221.725C193.272 220.797 193.12 219.941 192.816 219.157C192.512 218.357 192.08 217.677 191.52 217.117C190.976 216.541 190.328 216.093 189.576 215.773C188.824 215.453 188.008 215.293 187.128 215.293C186.168 215.293 185.272 215.453 184.44 215.773C183.624 216.093 182.88 216.597 182.208 217.285L180.696 215.773C181.464 214.909 182.408 214.253 183.528 213.805C184.664 213.357 185.904 213.133 187.248 213.133ZM201.44 230.125V218.821L202.016 219.421H196.784V217.405H208.4V219.421H203.192L203.743 218.821V230.125H201.44ZM215.641 230.269C214.361 230.269 213.225 229.989 212.233 229.429C211.241 228.869 210.457 228.101 209.881 227.125C209.305 226.133 209.017 225.013 209.017 223.765C209.017 222.501 209.305 221.381 209.881 220.405C210.457 219.429 211.241 218.669 212.233 218.125C213.225 217.565 214.361 217.285 215.641 217.285C216.905 217.285 218.033 217.565 219.025 218.125C220.033 218.669 220.817 219.429 221.377 220.405C221.953 221.365 222.241 222.485 222.241 223.765C222.241 225.029 221.953 226.149 221.377 227.125C220.817 228.101 220.033 228.869 219.025 229.429C218.033 229.989 216.905 230.269 215.641 230.269ZM215.641 228.253C216.457 228.253 217.185 228.069 217.825 227.701C218.481 227.333 218.993 226.813 219.361 226.141C219.729 225.453 219.913 224.661 219.913 223.765C219.913 222.853 219.729 222.069 219.361 221.413C218.993 220.741 218.481 220.221 217.825 219.853C217.185 219.485 216.457 219.301 215.641 219.301C214.825 219.301 214.097 219.485 213.457 219.853C212.817 220.221 212.305 220.741 211.921 221.413C211.537 222.069 211.345 222.853 211.345 223.765C211.345 224.661 211.537 225.453 211.921 226.141C212.305 226.813 212.817 227.333 213.457 227.701C214.097 228.069 214.825 228.253 215.641 228.253ZM240.701 229.045V219.421H235.181L235.061 221.869C235.029 222.669 234.973 223.445 234.893 224.197C234.829 224.933 234.717 225.613 234.557 226.237C234.413 226.861 234.197 227.373 233.909 227.773C233.621 228.173 233.237 228.421 232.757 228.517L230.477 228.109C230.973 228.125 231.373 227.965 231.677 227.629C231.981 227.277 232.213 226.797 232.373 226.189C232.549 225.581 232.677 224.893 232.757 224.125C232.837 223.341 232.901 222.533 232.949 221.701L233.141 217.405H243.005V229.045H240.701ZM229.973 233.077V228.109H244.949V233.077H242.789V230.125H232.157V233.077H229.973ZM253.615 230.269C252.255 230.269 251.055 229.989 250.015 229.429C248.991 228.869 248.191 228.101 247.615 227.125C247.055 226.149 246.775 225.029 246.775 223.765C246.775 222.501 247.047 221.381 247.591 220.405C248.151 219.429 248.911 218.669 249.871 218.125C250.847 217.565 251.943 217.285 253.159 217.285C254.391 217.285 255.479 217.557 256.423 218.101C257.367 218.645 258.103 219.413 258.631 220.405C259.175 221.381 259.447 222.525 259.447 223.837C259.447 223.933 259.439 224.045 259.423 224.173C259.423 224.301 259.415 224.421 259.399 224.533H248.575V222.877H258.199L257.263 223.453C257.279 222.637 257.111 221.909 256.759 221.269C256.407 220.629 255.919 220.133 255.295 219.781C254.687 219.413 253.975 219.229 253.159 219.229C252.359 219.229 251.647 219.413 251.023 219.781C250.399 220.133 249.911 220.637 249.559 221.293C249.207 221.933 249.031 222.669 249.031 223.501V223.885C249.031 224.733 249.223 225.493 249.607 226.165C250.007 226.821 250.559 227.333 251.263 227.701C251.967 228.069 252.775 228.253 253.687 228.253C254.439 228.253 255.119 228.125 255.727 227.869C256.351 227.613 256.895 227.229 257.359 226.717L258.631 228.205C258.055 228.877 257.335 229.389 256.471 229.741C255.623 230.093 254.671 230.269 253.615 230.269ZM263.021 230.125V217.405H265.325V226.669L273.125 217.405H275.213V230.125H272.909V220.861L265.133 230.125H263.021ZM268.973 215.749C267.805 215.749 266.885 215.469 266.213 214.909C265.557 214.333 265.221 213.509 265.205 212.437H266.765C266.781 213.045 266.981 213.525 267.365 213.877C267.765 214.229 268.293 214.405 268.949 214.405C269.605 214.405 270.133 214.229 270.533 213.877C270.933 213.525 271.141 213.045 271.157 212.437H272.765C272.749 213.509 272.405 214.333 271.733 214.909C271.061 215.469 270.141 215.749 268.973 215.749ZM285.229 230.269C283.933 230.269 282.773 229.989 281.749 229.429C280.741 228.869 279.949 228.101 279.373 227.125C278.797 226.149 278.509 225.029 278.509 223.765C278.509 222.501 278.797 221.381 279.373 220.405C279.949 219.429 280.741 218.669 281.749 218.125C282.773 217.565 283.933 217.285 285.229 217.285C286.381 217.285 287.405 217.517 288.301 217.981C289.213 218.429 289.917 219.101 290.413 219.997L288.661 221.125C288.245 220.501 287.733 220.045 287.125 219.757C286.533 219.453 285.893 219.301 285.205 219.301C284.373 219.301 283.629 219.485 282.973 219.853C282.317 220.221 281.797 220.741 281.413 221.413C281.029 222.069 280.837 222.853 280.837 223.765C280.837 224.677 281.029 225.469 281.413 226.141C281.797 226.813 282.317 227.333 282.973 227.701C283.629 228.069 284.373 228.253 285.205 228.253C285.893 228.253 286.533 228.109 287.125 227.821C287.733 227.517 288.245 227.053 288.661 226.429L290.413 227.533C289.917 228.413 289.213 229.093 288.301 229.573C287.405 230.037 286.381 230.269 285.229 230.269ZM295.752 230.125V218.821L296.328 219.421H291.096V217.405H302.712V219.421H297.504L298.056 218.821V230.125H295.752ZM305.068 230.125V217.405H310.972C312.46 217.405 313.628 217.693 314.476 218.269C315.34 218.829 315.772 219.629 315.772 220.669C315.772 221.709 315.364 222.517 314.548 223.093C313.748 223.653 312.684 223.933 311.356 223.933L311.716 223.309C313.236 223.309 314.364 223.589 315.1 224.149C315.836 224.709 316.204 225.533 316.204 226.621C316.204 227.725 315.788 228.589 314.956 229.213C314.14 229.821 312.884 230.125 311.188 230.125H305.068ZM307.324 228.349H311.02C311.98 228.349 312.7 228.205 313.18 227.917C313.66 227.613 313.9 227.133 313.9 226.477C313.9 225.805 313.676 225.317 313.228 225.013C312.796 224.693 312.108 224.533 311.164 224.533H307.324V228.349ZM307.324 222.877H310.78C311.66 222.877 312.324 222.717 312.772 222.397C313.236 222.061 313.468 221.597 313.468 221.005C313.468 220.397 313.236 219.941 312.772 219.637C312.324 219.333 311.66 219.181 310.78 219.181H307.324V222.877ZM319.81 230.125V217.405H322.114V226.669L329.914 217.405H332.002V230.125H329.698V220.861L321.922 230.125H319.81ZM338.994 230.125V218.821L339.57 219.421H334.338V217.405H345.954V219.421H340.746L341.298 218.821V230.125H338.994ZM353.412 230.269C352.052 230.269 350.852 229.989 349.812 229.429C348.788 228.869 347.988 228.101 347.412 227.125C346.852 226.149 346.572 225.029 346.572 223.765C346.572 222.501 346.844 221.381 347.388 220.405C347.948 219.429 348.708 218.669 349.668 218.125C350.644 217.565 351.74 217.285 352.956 217.285C354.188 217.285 355.276 217.557 356.22 218.101C357.164 218.645 357.9 219.413 358.428 220.405C358.972 221.381 359.244 222.525 359.244 223.837C359.244 223.933 359.236 224.045 359.22 224.173C359.22 224.301 359.212 224.421 359.196 224.533H348.372V222.877H357.996L357.06 223.453C357.076 222.637 356.908 221.909 356.556 221.269C356.204 220.629 355.716 220.133 355.092 219.781C354.484 219.413 353.772 219.229 352.956 219.229C352.156 219.229 351.444 219.413 350.82 219.781C350.196 220.133 349.708 220.637 349.356 221.293C349.004 221.933 348.828 222.669 348.828 223.501V223.885C348.828 224.733 349.02 225.493 349.404 226.165C349.804 226.821 350.356 227.333 351.06 227.701C351.764 228.069 352.572 228.253 353.484 228.253C354.236 228.253 354.916 228.125 355.524 227.869C356.148 227.613 356.692 227.229 357.156 226.717L358.428 228.205C357.852 228.877 357.132 229.389 356.268 229.741C355.42 230.093 354.468 230.269 353.412 230.269ZM360.495 230.101L360.639 228.157C360.751 228.173 360.855 228.189 360.951 228.205C361.047 228.221 361.135 228.229 361.215 228.229C361.727 228.229 362.127 228.053 362.415 227.701C362.719 227.349 362.943 226.885 363.087 226.309C363.231 225.717 363.335 225.053 363.399 224.317C363.463 223.581 363.511 222.845 363.543 222.109L363.759 217.405H373.527V230.125H371.223V218.749L371.775 219.421H365.247L365.775 218.725L365.607 222.253C365.559 223.373 365.471 224.421 365.343 225.397C365.215 226.373 365.015 227.229 364.743 227.965C364.487 228.701 364.127 229.277 363.663 229.693C363.215 230.109 362.631 230.317 361.911 230.317C361.703 230.317 361.479 230.293 361.239 230.245C361.015 230.213 360.767 230.165 360.495 230.101ZM383.862 221.725C385.478 221.741 386.71 222.109 387.558 222.829C388.406 223.549 388.83 224.565 388.83 225.877C388.83 227.253 388.366 228.317 387.438 229.069C386.51 229.805 385.198 230.165 383.502 230.149L377.982 230.125V217.405H380.286V221.701L383.862 221.725ZM383.31 228.397C384.35 228.413 385.134 228.205 385.662 227.773C386.206 227.341 386.478 226.701 386.478 225.853C386.478 225.021 386.214 224.413 385.686 224.029C385.158 223.645 384.366 223.445 383.31 223.429L380.286 223.381V228.373L383.31 228.397ZM391.787 230.125V217.405H394.091V222.805H401.339V217.405H403.643V230.125H401.339V224.797H394.091V230.125H391.787ZM413.571 230.269C412.291 230.269 411.155 229.989 410.163 229.429C409.171 228.869 408.387 228.101 407.811 227.125C407.235 226.133 406.947 225.013 406.947 223.765C406.947 222.501 407.235 221.381 407.811 220.405C408.387 219.429 409.171 218.669 410.163 218.125C411.155 217.565 412.291 217.285 413.571 217.285C414.835 217.285 415.963 217.565 416.955 218.125C417.963 218.669 418.747 219.429 419.307 220.405C419.883 221.365 420.171 222.485 420.171 223.765C420.171 225.029 419.883 226.149 419.307 227.125C418.747 228.101 417.963 228.869 416.955 229.429C415.963 229.989 414.835 230.269 413.571 230.269ZM413.571 228.253C414.387 228.253 415.115 228.069 415.755 227.701C416.411 227.333 416.923 226.813 417.291 226.141C417.659 225.453 417.843 224.661 417.843 223.765C417.843 222.853 417.659 222.069 417.291 221.413C416.923 220.741 416.411 220.221 415.755 219.853C415.115 219.485 414.387 219.301 413.571 219.301C412.755 219.301 412.027 219.485 411.387 219.853C410.747 220.221 410.235 220.741 409.851 221.413C409.467 222.069 409.275 222.853 409.275 223.765C409.275 224.661 409.467 225.453 409.851 226.141C410.235 226.813 410.747 227.333 411.387 227.701C412.027 228.069 412.755 228.253 413.571 228.253ZM435.823 230.317C434.767 230.317 433.831 230.149 433.015 229.813C432.215 229.477 431.527 228.981 430.951 228.325C430.375 227.653 429.935 226.813 429.631 225.805C429.343 224.781 429.199 223.581 429.199 222.205C429.199 221.117 429.295 220.141 429.487 219.277C429.679 218.413 429.951 217.645 430.303 216.973C430.671 216.301 431.119 215.717 431.647 215.221C432.191 214.725 432.799 214.317 433.471 213.997C434.159 213.661 434.911 213.405 435.727 213.229L441.535 211.933L441.871 214.069L436.519 215.221C436.199 215.285 435.815 215.381 435.367 215.509C434.919 215.637 434.463 215.837 433.999 216.109C433.535 216.365 433.103 216.725 432.703 217.189C432.303 217.653 431.983 218.261 431.743 219.013C431.503 219.749 431.383 220.661 431.383 221.749C431.383 222.053 431.391 222.285 431.407 222.445C431.423 222.605 431.439 222.765 431.455 222.925C431.487 223.085 431.511 223.325 431.527 223.645L430.567 222.661C430.823 221.781 431.231 221.013 431.791 220.357C432.351 219.701 433.023 219.197 433.807 218.845C434.607 218.477 435.479 218.293 436.423 218.293C437.607 218.293 438.655 218.549 439.567 219.061C440.495 219.573 441.223 220.277 441.751 221.173C442.279 222.069 442.543 223.093 442.543 224.245C442.543 225.413 442.263 226.461 441.703 227.389C441.159 228.301 440.383 229.021 439.375 229.549C438.367 230.061 437.183 230.317 435.823 230.317ZM436.039 228.397C436.855 228.397 437.575 228.221 438.199 227.869C438.823 227.501 439.311 227.013 439.663 226.405C440.015 225.781 440.191 225.085 440.191 224.317C440.191 223.549 440.015 222.869 439.663 222.277C439.311 221.685 438.823 221.221 438.199 220.885C437.575 220.533 436.839 220.357 435.991 220.357C435.191 220.357 434.471 220.525 433.831 220.861C433.191 221.181 432.695 221.637 432.343 222.229C431.991 222.805 431.815 223.477 431.815 224.245C431.815 225.013 431.991 225.717 432.343 226.357C432.711 226.981 433.207 227.477 433.831 227.845C434.471 228.213 435.207 228.397 436.039 228.397ZM451.498 230.269C450.138 230.269 448.938 229.989 447.898 229.429C446.874 228.869 446.074 228.101 445.498 227.125C444.938 226.149 444.658 225.029 444.658 223.765C444.658 222.501 444.93 221.381 445.474 220.405C446.034 219.429 446.794 218.669 447.754 218.125C448.73 217.565 449.826 217.285 451.042 217.285C452.274 217.285 453.362 217.557 454.306 218.101C455.25 218.645 455.986 219.413 456.514 220.405C457.058 221.381 457.33 222.525 457.33 223.837C457.33 223.933 457.322 224.045 457.306 224.173C457.306 224.301 457.298 224.421 457.282 224.533H446.458V222.877H456.082L455.146 223.453C455.162 222.637 454.994 221.909 454.642 221.269C454.29 220.629 453.802 220.133 453.178 219.781C452.57 219.413 451.858 219.229 451.042 219.229C450.242 219.229 449.53 219.413 448.906 219.781C448.282 220.133 447.794 220.637 447.442 221.293C447.09 221.933 446.914 222.669 446.914 223.501V223.885C446.914 224.733 447.106 225.493 447.49 226.165C447.89 226.821 448.442 227.333 449.146 227.701C449.85 228.069 450.658 228.253 451.57 228.253C452.322 228.253 453.002 228.125 453.61 227.869C454.234 227.613 454.778 227.229 455.242 226.717L456.514 228.205C455.938 228.877 455.218 229.389 454.354 229.741C453.506 230.093 452.554 230.269 451.498 230.269ZM466.448 230.269C465.152 230.269 463.992 229.989 462.968 229.429C461.96 228.869 461.168 228.101 460.592 227.125C460.016 226.149 459.728 225.029 459.728 223.765C459.728 222.501 460.016 221.381 460.592 220.405C461.168 219.429 461.96 218.669 462.968 218.125C463.992 217.565 465.152 217.285 466.448 217.285C467.6 217.285 468.624 217.517 469.52 217.981C470.432 218.429 471.136 219.101 471.632 219.997L469.88 221.125C469.464 220.501 468.952 220.045 468.344 219.757C467.752 219.453 467.112 219.301 466.424 219.301C465.592 219.301 464.848 219.485 464.192 219.853C463.536 220.221 463.016 220.741 462.632 221.413C462.248 222.069 462.056 222.853 462.056 223.765C462.056 224.677 462.248 225.469 462.632 226.141C463.016 226.813 463.536 227.333 464.192 227.701C464.848 228.069 465.592 228.253 466.424 228.253C467.112 228.253 467.752 228.109 468.344 227.821C468.952 227.517 469.464 227.053 469.88 226.429L471.632 227.533C471.136 228.413 470.432 229.093 469.52 229.573C468.624 230.037 467.6 230.269 466.448 230.269ZM474.615 230.125V217.405H486.399V230.125H484.095V218.845L484.647 219.421H476.367L476.919 218.845V230.125H474.615ZM488.745 230.101L488.889 228.157C489.001 228.173 489.105 228.189 489.201 228.205C489.297 228.221 489.385 228.229 489.465 228.229C489.977 228.229 490.377 228.053 490.665 227.701C490.969 227.349 491.193 226.885 491.337 226.309C491.481 225.717 491.585 225.053 491.649 224.317C491.713 223.581 491.761 222.845 491.793 222.109L492.009 217.405H501.777V230.125H499.473V218.749L500.025 219.421H493.497L494.025 218.725L493.857 222.253C493.809 223.373 493.721 224.421 493.593 225.397C493.465 226.373 493.265 227.229 492.993 227.965C492.737 228.701 492.377 229.277 491.913 229.693C491.465 230.109 490.881 230.317 490.161 230.317C489.953 230.317 489.729 230.293 489.489 230.245C489.265 230.213 489.017 230.165 488.745 230.101ZM514.032 230.125V227.437L513.912 226.933V222.349C513.912 221.373 513.624 220.621 513.048 220.093C512.488 219.549 511.64 219.277 510.504 219.277C509.752 219.277 509.016 219.405 508.296 219.661C507.576 219.901 506.968 220.229 506.472 220.645L505.512 218.917C506.168 218.389 506.952 217.989 507.864 217.717C508.792 217.429 509.76 217.285 510.768 217.285C512.512 217.285 513.856 217.709 514.8 218.557C515.744 219.405 516.216 220.701 516.216 222.445V230.125H514.032ZM509.856 230.269C508.912 230.269 508.08 230.109 507.36 229.789C506.656 229.469 506.112 229.029 505.728 228.469C505.344 227.893 505.152 227.245 505.152 226.525C505.152 225.837 505.312 225.213 505.632 224.653C505.968 224.093 506.504 223.645 507.24 223.309C507.992 222.973 509 222.805 510.264 222.805H514.296V224.461H510.36C509.208 224.461 508.432 224.653 508.032 225.037C507.632 225.421 507.432 225.885 507.432 226.429C507.432 227.053 507.68 227.557 508.176 227.941C508.672 228.309 509.36 228.493 510.24 228.493C511.104 228.493 511.856 228.301 512.496 227.917C513.152 227.533 513.624 226.973 513.912 226.237L514.368 227.821C514.064 228.573 513.528 229.173 512.76 229.621C511.992 230.053 511.024 230.269 509.856 230.269ZM522.885 230.125V218.821L523.461 219.421H518.229V217.405H529.845V219.421H524.637L525.189 218.821V230.125H522.885ZM532.201 230.125V217.405H534.505V222.805H541.753V217.405H544.057V230.125H541.753V224.797H534.505V230.125H532.201ZM553.985 230.269C552.705 230.269 551.569 229.989 550.577 229.429C549.585 228.869 548.801 228.101 548.225 227.125C547.649 226.133 547.361 225.013 547.361 223.765C547.361 222.501 547.649 221.381 548.225 220.405C548.801 219.429 549.585 218.669 550.577 218.125C551.569 217.565 552.705 217.285 553.985 217.285C555.249 217.285 556.377 217.565 557.369 218.125C558.377 218.669 559.161 219.429 559.721 220.405C560.297 221.365 560.585 222.485 560.585 223.765C560.585 225.029 560.297 226.149 559.721 227.125C559.161 228.101 558.377 228.869 557.369 229.429C556.377 229.989 555.249 230.269 553.985 230.269ZM553.985 228.253C554.801 228.253 555.529 228.069 556.169 227.701C556.825 227.333 557.337 226.813 557.705 226.141C558.073 225.453 558.257 224.661 558.257 223.765C558.257 222.853 558.073 222.069 557.705 221.413C557.337 220.741 556.825 220.221 556.169 219.853C555.529 219.485 554.801 219.301 553.985 219.301C553.169 219.301 552.441 219.485 551.801 219.853C551.161 220.221 550.649 220.741 550.265 221.413C549.881 222.069 549.689 222.853 549.689 223.765C549.689 224.661 549.881 225.453 550.265 226.141C550.649 226.813 551.161 227.333 551.801 227.701C552.441 228.069 553.169 228.253 553.985 228.253ZM566.027 224.821C566.027 224.197 566.131 223.653 566.339 223.189C566.547 222.725 566.803 222.309 567.107 221.941C567.427 221.573 567.771 221.237 568.139 220.933C568.507 220.613 568.851 220.301 569.171 219.997C569.491 219.677 569.747 219.341 569.939 218.989C570.147 218.637 570.251 218.229 570.251 217.765C570.251 216.997 569.947 216.373 569.339 215.893C568.731 215.413 567.891 215.173 566.819 215.173C565.859 215.173 565.027 215.333 564.323 215.653C563.619 215.973 563.019 216.445 562.523 217.069L560.771 215.821C561.443 214.973 562.299 214.317 563.339 213.853C564.379 213.373 565.595 213.133 566.987 213.133C568.139 213.133 569.139 213.309 569.987 213.661C570.835 213.997 571.491 214.485 571.955 215.125C572.435 215.749 572.675 216.509 572.675 217.405C572.675 218.077 572.571 218.653 572.363 219.133C572.155 219.613 571.891 220.037 571.571 220.405C571.251 220.773 570.907 221.117 570.539 221.437C570.187 221.757 569.851 222.077 569.531 222.397C569.211 222.717 568.947 223.069 568.739 223.453C568.531 223.837 568.427 224.293 568.427 224.821H566.027ZM567.251 230.269C566.803 230.269 566.427 230.117 566.123 229.813C565.835 229.509 565.691 229.149 565.691 228.733C565.691 228.285 565.835 227.917 566.123 227.629C566.427 227.341 566.803 227.197 567.251 227.197C567.699 227.197 568.067 227.341 568.355 227.629C568.643 227.917 568.787 228.285 568.787 228.733C568.787 229.149 568.643 229.509 568.355 229.813C568.067 230.117 567.699 230.269 567.251 230.269Z" fill="black"/>
<mask id="path-9-inside-3_931_257" fill="white">
<path d="M170 256.125H1306V305.125H170V256.125Z"/>
</mask>
<path d="M1306 305.125V304.125H170V305.125V306.125H1306V305.125Z" fill="black" mask="url(#path-9-inside-3_931_257)"/>
<path d="M193.92 289.125L187.824 280.845L189.768 279.645L196.656 289.125H193.92ZM182.616 289.125V272.325H184.968V289.125H182.616ZM184.248 281.733V279.621H189.696V281.733H184.248ZM189.984 280.989L187.776 280.653L193.8 272.325H196.368L189.984 280.989ZM206.696 289.125V286.437L206.576 285.933V281.349C206.576 280.373 206.288 279.621 205.712 279.093C205.152 278.549 204.304 278.277 203.168 278.277C202.416 278.277 201.68 278.405 200.96 278.661C200.24 278.901 199.632 279.229 199.136 279.645L198.176 277.917C198.832 277.389 199.616 276.989 200.528 276.717C201.456 276.429 202.424 276.285 203.432 276.285C205.176 276.285 206.52 276.709 207.464 277.557C208.408 278.405 208.88 279.701 208.88 281.445V289.125H206.696ZM202.52 289.269C201.576 289.269 200.744 289.109 200.024 288.789C199.32 288.469 198.776 288.029 198.392 287.469C198.008 286.893 197.816 286.245 197.816 285.525C197.816 284.837 197.976 284.213 198.296 283.653C198.632 283.093 199.168 282.645 199.904 282.309C200.656 281.973 201.664 281.805 202.928 281.805H206.96V283.461H203.024C201.872 283.461 201.096 283.653 200.696 284.037C200.296 284.421 200.096 284.885 200.096 285.429C200.096 286.053 200.344 286.557 200.84 286.941C201.336 287.309 202.024 287.493 202.904 287.493C203.768 287.493 204.52 287.301 205.16 286.917C205.816 286.533 206.288 285.973 206.576 285.237L207.032 286.821C206.728 287.573 206.192 288.173 205.424 288.621C204.656 289.053 203.688 289.269 202.52 289.269ZM222.245 289.125L217.325 282.933L219.221 281.781L224.957 289.125H222.245ZM213.029 289.125V276.405H215.333V289.125H213.029ZM214.637 283.749V281.781H218.837V283.749H214.637ZM219.413 283.029L217.277 282.741L222.149 276.405H224.621L219.413 283.029ZM227.373 289.125V276.405H229.677V285.669L237.477 276.405H239.565V289.125H237.261V279.861L229.485 289.125H227.373ZM249.701 289.269C248.341 289.269 247.141 288.989 246.101 288.429C245.077 287.869 244.277 287.101 243.701 286.125C243.141 285.149 242.861 284.029 242.861 282.765C242.861 281.501 243.133 280.381 243.677 279.405C244.237 278.429 244.997 277.669 245.957 277.125C246.933 276.565 248.029 276.285 249.245 276.285C250.477 276.285 251.565 276.557 252.509 277.101C253.453 277.645 254.189 278.413 254.717 279.405C255.261 280.381 255.533 281.525 255.533 282.837C255.533 282.933 255.525 283.045 255.509 283.173C255.509 283.301 255.501 283.421 255.485 283.533H244.661V281.877H254.285L253.349 282.453C253.365 281.637 253.197 280.909 252.845 280.269C252.493 279.629 252.005 279.133 251.381 278.781C250.773 278.413 250.061 278.229 249.245 278.229C248.445 278.229 247.733 278.413 247.109 278.781C246.485 279.133 245.997 279.637 245.645 280.293C245.293 280.933 245.117 281.669 245.117 282.501V282.885C245.117 283.733 245.309 284.493 245.693 285.165C246.093 285.821 246.645 286.333 247.349 286.701C248.053 287.069 248.861 287.253 249.773 287.253C250.525 287.253 251.205 287.125 251.813 286.869C252.437 286.613 252.981 286.229 253.445 285.717L254.717 287.205C254.141 287.877 253.421 288.389 252.557 288.741C251.709 289.093 250.757 289.269 249.701 289.269ZM265.552 289.125V276.405H277.336V289.125H275.032V277.845L275.584 278.421H267.304L267.856 277.845V289.125H265.552ZM288.539 289.269C287.483 289.269 286.515 289.029 285.635 288.549C284.771 288.053 284.075 287.325 283.547 286.365C283.035 285.405 282.779 284.205 282.779 282.765C282.779 281.325 283.027 280.125 283.523 279.165C284.035 278.205 284.723 277.485 285.587 277.005C286.467 276.525 287.451 276.285 288.539 276.285C289.787 276.285 290.891 276.557 291.851 277.101C292.811 277.645 293.571 278.405 294.131 279.381C294.691 280.341 294.971 281.469 294.971 282.765C294.971 284.061 294.691 285.197 294.131 286.173C293.571 287.149 292.811 287.909 291.851 288.453C290.891 288.997 289.787 289.269 288.539 289.269ZM281.795 293.781V276.405H284.003V279.837L283.859 282.789L284.099 285.741V293.781H281.795ZM288.347 287.253C289.163 287.253 289.891 287.069 290.531 286.701C291.187 286.333 291.699 285.813 292.067 285.141C292.451 284.453 292.643 283.661 292.643 282.765C292.643 281.853 292.451 281.069 292.067 280.413C291.699 279.741 291.187 279.221 290.531 278.853C289.891 278.485 289.163 278.301 288.347 278.301C287.547 278.301 286.819 278.485 286.163 278.853C285.523 279.221 285.011 279.741 284.627 280.413C284.259 281.069 284.075 281.853 284.075 282.765C284.075 283.661 284.259 284.453 284.627 285.141C285.011 285.813 285.523 286.333 286.163 286.701C286.819 287.069 287.547 287.253 288.347 287.253ZM303.766 289.269C302.486 289.269 301.35 288.989 300.358 288.429C299.366 287.869 298.582 287.101 298.006 286.125C297.43 285.133 297.142 284.013 297.142 282.765C297.142 281.501 297.43 280.381 298.006 279.405C298.582 278.429 299.366 277.669 300.358 277.125C301.35 276.565 302.486 276.285 303.766 276.285C305.03 276.285 306.158 276.565 307.15 277.125C308.158 277.669 308.942 278.429 309.502 279.405C310.078 280.365 310.366 281.485 310.366 282.765C310.366 284.029 310.078 285.149 309.502 286.125C308.942 287.101 308.158 287.869 307.15 288.429C306.158 288.989 305.03 289.269 303.766 289.269ZM303.766 287.253C304.582 287.253 305.31 287.069 305.95 286.701C306.606 286.333 307.118 285.813 307.486 285.141C307.854 284.453 308.038 283.661 308.038 282.765C308.038 281.853 307.854 281.069 307.486 280.413C307.118 279.741 306.606 279.221 305.95 278.853C305.31 278.485 304.582 278.301 303.766 278.301C302.95 278.301 302.222 278.485 301.582 278.853C300.942 279.221 300.43 279.741 300.046 280.413C299.662 281.069 299.47 281.853 299.47 282.765C299.47 283.661 299.662 284.453 300.046 285.141C300.43 285.813 300.942 286.333 301.582 286.701C302.222 287.069 302.95 287.253 303.766 287.253ZM313.693 289.125V276.405H323.053V278.421H315.445L315.997 277.893V289.125H313.693ZM332.156 289.269C331.1 289.269 330.132 289.029 329.252 288.549C328.388 288.053 327.692 287.325 327.164 286.365C326.652 285.405 326.396 284.205 326.396 282.765C326.396 281.325 326.644 280.125 327.14 279.165C327.652 278.205 328.34 277.485 329.204 277.005C330.084 276.525 331.068 276.285 332.156 276.285C333.404 276.285 334.508 276.557 335.468 277.101C336.428 277.645 337.188 278.405 337.748 279.381C338.308 280.341 338.588 281.469 338.588 282.765C338.588 284.061 338.308 285.197 337.748 286.173C337.188 287.149 336.428 287.909 335.468 288.453C334.508 288.997 333.404 289.269 332.156 289.269ZM325.412 293.781V276.405H327.62V279.837L327.476 282.789L327.716 285.741V293.781H325.412ZM331.964 287.253C332.78 287.253 333.508 287.069 334.148 286.701C334.804 286.333 335.316 285.813 335.684 285.141C336.068 284.453 336.26 283.661 336.26 282.765C336.26 281.853 336.068 281.069 335.684 280.413C335.316 279.741 334.804 279.221 334.148 278.853C333.508 278.485 332.78 278.301 331.964 278.301C331.164 278.301 330.436 278.485 329.78 278.853C329.14 279.221 328.628 279.741 328.244 280.413C327.876 281.069 327.692 281.853 327.692 282.765C327.692 283.661 327.876 284.453 328.244 285.141C328.628 285.813 329.14 286.333 329.78 286.701C330.436 287.069 331.164 287.253 331.964 287.253ZM349.618 289.125V286.437L349.498 285.933V281.349C349.498 280.373 349.21 279.621 348.634 279.093C348.074 278.549 347.226 278.277 346.09 278.277C345.338 278.277 344.602 278.405 343.882 278.661C343.162 278.901 342.554 279.229 342.058 279.645L341.098 277.917C341.754 277.389 342.538 276.989 343.45 276.717C344.378 276.429 345.346 276.285 346.354 276.285C348.098 276.285 349.442 276.709 350.386 277.557C351.33 278.405 351.802 279.701 351.802 281.445V289.125H349.618ZM345.442 289.269C344.498 289.269 343.666 289.109 342.946 288.789C342.242 288.469 341.698 288.029 341.314 287.469C340.93 286.893 340.738 286.245 340.738 285.525C340.738 284.837 340.898 284.213 341.218 283.653C341.554 283.093 342.09 282.645 342.826 282.309C343.578 281.973 344.586 281.805 345.85 281.805H349.882V283.461H345.946C344.794 283.461 344.018 283.653 343.618 284.037C343.218 284.421 343.018 284.885 343.018 285.429C343.018 286.053 343.266 286.557 343.762 286.941C344.258 287.309 344.946 287.493 345.826 287.493C346.69 287.493 347.442 287.301 348.082 286.917C348.738 286.533 349.21 285.973 349.498 285.237L349.954 286.821C349.65 287.573 349.114 288.173 348.346 288.621C347.578 289.053 346.61 289.269 345.442 289.269ZM355.951 289.125V276.405H358.327L363.799 285.813H362.839L368.455 276.405H370.615V289.125H368.527V278.997L368.911 279.213L363.775 287.685H362.767L357.607 279.045L358.063 278.949V289.125H355.951ZM375.099 289.125V276.405H377.475L382.947 285.813H381.987L387.603 276.405H389.763V289.125H387.675V278.997L388.059 279.213L382.923 287.685H381.915L376.755 279.045L377.211 278.949V289.125H375.099ZM406.824 289.125V276.405H409.128V289.125H406.824ZM399.984 280.725C401.6 280.741 402.824 281.109 403.656 281.829C404.504 282.549 404.928 283.565 404.928 284.877C404.928 286.253 404.464 287.317 403.536 288.069C402.624 288.805 401.312 289.165 399.6 289.149L394.248 289.125V276.405H396.552V280.701L399.984 280.725ZM399.432 287.397C400.456 287.413 401.24 287.205 401.784 286.773C402.328 286.341 402.6 285.701 402.6 284.853C402.6 284.021 402.328 283.413 401.784 283.029C401.256 282.645 400.472 282.445 399.432 282.429L396.552 282.381V287.373L399.432 287.397ZM420.052 289.125V276.405H422.356V281.805H429.604V276.405H431.908V289.125H429.604V283.797H422.356V289.125H420.052ZM437.036 293.925C436.428 293.925 435.836 293.821 435.26 293.613C434.684 293.421 434.188 293.133 433.772 292.749L434.756 291.021C435.076 291.325 435.428 291.557 435.812 291.717C436.196 291.877 436.604 291.957 437.036 291.957C437.596 291.957 438.06 291.813 438.428 291.525C438.796 291.237 439.14 290.725 439.46 289.989L440.252 288.237L440.492 287.949L445.484 276.405H447.74L441.572 290.397C441.204 291.293 440.788 291.997 440.324 292.509C439.876 293.021 439.38 293.381 438.836 293.589C438.292 293.813 437.692 293.925 437.036 293.925ZM440.06 289.533L434.252 276.405H436.652L441.596 287.733L440.06 289.533ZM464.469 289.125L460.413 282.933L462.309 281.781L467.205 289.125H464.469ZM457.773 283.749V281.781H461.901V283.749H457.773ZM462.525 283.029L460.341 282.741L464.397 276.405H466.869L462.525 283.029ZM450.189 289.125H447.453L452.325 281.781L454.221 282.933L450.189 289.125ZM458.469 289.125H456.165V276.405H458.469V289.125ZM456.861 283.749H452.757V281.781H456.861V283.749ZM452.133 283.029L447.789 276.405H450.237L454.293 282.741L452.133 283.029ZM469.74 289.125V276.405H472.044V281.805H479.292V276.405H481.596V289.125H479.292V283.797H472.044V289.125H469.74ZM498.652 289.125V276.405H500.956V289.125H498.652ZM491.812 280.725C493.428 280.741 494.652 281.109 495.484 281.829C496.332 282.549 496.756 283.565 496.756 284.877C496.756 286.253 496.292 287.317 495.364 288.069C494.452 288.805 493.14 289.165 491.428 289.149L486.076 289.125V276.405H488.38V280.701L491.812 280.725ZM491.26 287.397C492.284 287.413 493.068 287.205 493.612 286.773C494.156 286.341 494.428 285.701 494.428 284.853C494.428 284.021 494.156 283.413 493.612 283.029C493.084 282.645 492.3 282.445 491.26 282.429L488.38 282.381V287.373L491.26 287.397ZM509.027 283.821C509.027 283.197 509.131 282.653 509.339 282.189C509.547 281.725 509.803 281.309 510.107 280.941C510.427 280.573 510.771 280.237 511.139 279.933C511.507 279.613 511.851 279.301 512.171 278.997C512.491 278.677 512.747 278.341 512.939 277.989C513.147 277.637 513.251 277.229 513.251 276.765C513.251 275.997 512.947 275.373 512.339 274.893C511.731 274.413 510.891 274.173 509.819 274.173C508.859 274.173 508.027 274.333 507.323 274.653C506.619 274.973 506.019 275.445 505.523 276.069L503.771 274.821C504.443 273.973 505.299 273.317 506.339 272.853C507.379 272.373 508.595 272.133 509.987 272.133C511.139 272.133 512.139 272.309 512.987 272.661C513.835 272.997 514.491 273.485 514.955 274.125C515.435 274.749 515.675 275.509 515.675 276.405C515.675 277.077 515.571 277.653 515.363 278.133C515.155 278.613 514.891 279.037 514.571 279.405C514.251 279.773 513.907 280.117 513.539 280.437C513.187 280.757 512.851 281.077 512.531 281.397C512.211 281.717 511.947 282.069 511.739 282.453C511.531 282.837 511.427 283.293 511.427 283.821H509.027ZM510.251 289.269C509.803 289.269 509.427 289.117 509.123 288.813C508.835 288.509 508.691 288.149 508.691 287.733C508.691 287.285 508.835 286.917 509.123 286.629C509.427 286.341 509.803 286.197 510.251 286.197C510.699 286.197 511.067 286.341 511.355 286.629C511.643 286.917 511.787 287.285 511.787 287.733C511.787 288.149 511.643 288.509 511.355 288.813C511.067 289.117 510.699 289.269 510.251 289.269Z" fill="black"/>
<mask id="path-12-inside-4_931_257" fill="white">
<path d="M170 315.125H1306V364.125H170V315.125Z"/>
</mask>
<path d="M1306 364.125V363.125H170V364.125V365.125H1306V364.125Z" fill="black" mask="url(#path-12-inside-4_931_257)"/>
<path d="M192.576 348.125V342.653L193.2 343.229H187.944C186.584 343.229 185.408 342.997 184.416 342.533C183.44 342.069 182.688 341.405 182.16 340.541C181.648 339.661 181.392 338.605 181.392 337.373C181.392 336.093 181.672 335.005 182.232 334.109C182.792 333.197 183.584 332.509 184.608 332.045C185.632 331.565 186.824 331.325 188.184 331.325H194.928V348.125H192.576ZM181.392 348.125L185.544 342.173H187.992L183.936 348.125H181.392ZM192.576 341.885V332.717L193.2 333.413H188.28C186.84 333.413 185.736 333.749 184.968 334.421C184.2 335.077 183.816 336.053 183.816 337.349C183.816 338.581 184.176 339.533 184.896 340.205C185.632 340.877 186.712 341.213 188.136 341.213H193.2L192.576 341.885ZM206.232 348.125V335.405H218.016V348.125H215.712V336.845L216.264 337.421H207.984L208.536 336.845V348.125H206.232ZM227.922 348.269C226.642 348.269 225.506 347.989 224.514 347.429C223.522 346.869 222.738 346.101 222.162 345.125C221.586 344.133 221.298 343.013 221.298 341.765C221.298 340.501 221.586 339.381 222.162 338.405C222.738 337.429 223.522 336.669 224.514 336.125C225.506 335.565 226.642 335.285 227.922 335.285C229.186 335.285 230.314 335.565 231.306 336.125C232.314 336.669 233.098 337.429 233.658 338.405C234.234 339.365 234.522 340.485 234.522 341.765C234.522 343.029 234.234 344.149 233.658 345.125C233.098 346.101 232.314 346.869 231.306 347.429C230.314 347.989 229.186 348.269 227.922 348.269ZM227.922 346.253C228.738 346.253 229.466 346.069 230.106 345.701C230.762 345.333 231.274 344.813 231.642 344.141C232.01 343.453 232.194 342.661 232.194 341.765C232.194 340.853 232.01 340.069 231.642 339.413C231.274 338.741 230.762 338.221 230.106 337.853C229.466 337.485 228.738 337.301 227.922 337.301C227.106 337.301 226.378 337.485 225.738 337.853C225.098 338.221 224.586 338.741 224.202 339.413C223.818 340.069 223.626 340.853 223.626 341.765C223.626 342.661 223.818 343.453 224.202 344.141C224.586 344.813 225.098 345.333 225.738 345.701C226.378 346.069 227.106 346.253 227.922 346.253ZM235.643 348.101L235.787 346.157C235.899 346.173 236.003 346.189 236.099 346.205C236.195 346.221 236.283 346.229 236.363 346.229C236.875 346.229 237.275 346.053 237.563 345.701C237.867 345.349 238.091 344.885 238.235 344.309C238.379 343.717 238.483 343.053 238.547 342.317C238.611 341.581 238.659 340.845 238.691 340.109L238.907 335.405H248.675V348.125H246.371V336.749L246.923 337.421H240.395L240.923 336.725L240.755 340.253C240.707 341.373 240.619 342.421 240.491 343.397C240.363 344.373 240.163 345.229 239.891 345.965C239.635 346.701 239.275 347.277 238.811 347.693C238.363 348.109 237.779 348.317 237.059 348.317C236.851 348.317 236.627 348.293 236.387 348.245C236.163 348.213 235.915 348.165 235.643 348.101ZM253.13 348.125V335.405H255.434V340.805H262.682V335.405H264.986V348.125H262.682V342.797H255.434V348.125H253.13ZM282.042 348.125V335.405H284.346V348.125H282.042ZM275.202 339.725C276.818 339.741 278.042 340.109 278.874 340.829C279.722 341.549 280.146 342.565 280.146 343.877C280.146 345.253 279.682 346.317 278.754 347.069C277.842 347.805 276.53 348.165 274.818 348.149L269.466 348.125V335.405H271.77V339.701L275.202 339.725ZM274.65 346.397C275.674 346.413 276.458 346.205 277.002 345.773C277.546 345.341 277.818 344.701 277.818 343.853C277.818 343.021 277.546 342.413 277.002 342.029C276.474 341.645 275.69 341.445 274.65 341.429L271.77 341.381V346.373L274.65 346.397ZM288.826 348.125V335.405H291.13V344.669L298.93 335.405H301.018V348.125H298.714V338.861L290.938 348.125H288.826ZM294.778 333.749C293.61 333.749 292.69 333.469 292.018 332.909C291.362 332.333 291.026 331.509 291.01 330.437H292.57C292.586 331.045 292.786 331.525 293.17 331.877C293.57 332.229 294.098 332.405 294.754 332.405C295.41 332.405 295.938 332.229 296.338 331.877C296.738 331.525 296.946 331.045 296.962 330.437H298.57C298.554 331.509 298.21 332.333 297.538 332.909C296.866 333.469 295.946 333.749 294.778 333.749ZM311.935 348.125V335.405H314.239V340.805H321.487V335.405H323.791V348.125H321.487V342.797H314.239V348.125H311.935ZM333.719 348.269C332.439 348.269 331.303 347.989 330.311 347.429C329.319 346.869 328.535 346.101 327.959 345.125C327.383 344.133 327.095 343.013 327.095 341.765C327.095 340.501 327.383 339.381 327.959 338.405C328.535 337.429 329.319 336.669 330.311 336.125C331.303 335.565 332.439 335.285 333.719 335.285C334.983 335.285 336.111 335.565 337.103 336.125C338.111 336.669 338.895 337.429 339.455 338.405C340.031 339.365 340.319 340.485 340.319 341.765C340.319 343.029 340.031 344.149 339.455 345.125C338.895 346.101 338.111 346.869 337.103 347.429C336.111 347.989 334.983 348.269 333.719 348.269ZM333.719 346.253C334.535 346.253 335.263 346.069 335.903 345.701C336.559 345.333 337.071 344.813 337.439 344.141C337.807 343.453 337.991 342.661 337.991 341.765C337.991 340.853 337.807 340.069 337.439 339.413C337.071 338.741 336.559 338.221 335.903 337.853C335.263 337.485 334.535 337.301 333.719 337.301C332.903 337.301 332.175 337.485 331.535 337.853C330.895 338.221 330.383 338.741 329.999 339.413C329.615 340.069 329.423 340.853 329.423 341.765C329.423 342.661 329.615 343.453 329.999 344.141C330.383 344.813 330.895 345.333 331.535 345.701C332.175 346.069 332.903 346.253 333.719 346.253ZM343.646 348.125V335.405H349.55C351.038 335.405 352.206 335.693 353.054 336.269C353.918 336.829 354.35 337.629 354.35 338.669C354.35 339.709 353.942 340.517 353.126 341.093C352.326 341.653 351.262 341.933 349.934 341.933L350.294 341.309C351.814 341.309 352.942 341.589 353.678 342.149C354.414 342.709 354.782 343.533 354.782 344.621C354.782 345.725 354.366 346.589 353.534 347.213C352.718 347.821 351.462 348.125 349.766 348.125H343.646ZM345.902 346.349H349.598C350.558 346.349 351.278 346.205 351.758 345.917C352.238 345.613 352.478 345.133 352.478 344.477C352.478 343.805 352.254 343.317 351.806 343.013C351.374 342.693 350.686 342.533 349.742 342.533H345.902V346.349ZM345.902 340.877H349.358C350.238 340.877 350.902 340.717 351.35 340.397C351.814 340.061 352.046 339.597 352.046 339.005C352.046 338.397 351.814 337.941 351.35 337.637C350.902 337.333 350.238 337.181 349.358 337.181H345.902V340.877ZM358.388 348.125V335.405H360.692V344.669L368.492 335.405H370.58V348.125H368.276V338.861L360.5 348.125H358.388ZM383.068 342.917C382.396 343.237 381.7 343.493 380.98 343.685C380.276 343.861 379.548 343.949 378.796 343.949C377.26 343.949 376.044 343.589 375.148 342.869C374.268 342.149 373.828 341.037 373.828 339.533V335.405H376.132V339.389C376.132 340.301 376.412 340.973 376.972 341.405C377.548 341.837 378.316 342.053 379.276 342.053C379.884 342.053 380.508 341.973 381.148 341.813C381.804 341.653 382.444 341.429 383.068 341.141V342.917ZM382.9 348.125V335.405H385.204V348.125H382.9ZM395.125 348.269C393.845 348.269 392.709 347.989 391.717 347.429C390.725 346.869 389.941 346.101 389.365 345.125C388.789 344.133 388.501 343.013 388.501 341.765C388.501 340.501 388.789 339.381 389.365 338.405C389.941 337.429 390.725 336.669 391.717 336.125C392.709 335.565 393.845 335.285 395.125 335.285C396.389 335.285 397.517 335.565 398.509 336.125C399.517 336.669 400.301 337.429 400.861 338.405C401.437 339.365 401.725 340.485 401.725 341.765C401.725 343.029 401.437 344.149 400.861 345.125C400.301 346.101 399.517 346.869 398.509 347.429C397.517 347.989 396.389 348.269 395.125 348.269ZM395.125 346.253C395.941 346.253 396.669 346.069 397.309 345.701C397.965 345.333 398.477 344.813 398.845 344.141C399.213 343.453 399.397 342.661 399.397 341.765C399.397 340.853 399.213 340.069 398.845 339.413C398.477 338.741 397.965 338.221 397.309 337.853C396.669 337.485 395.941 337.301 395.125 337.301C394.309 337.301 393.581 337.485 392.941 337.853C392.301 338.221 391.789 338.741 391.405 339.413C391.021 340.069 390.829 340.853 390.829 341.765C390.829 342.661 391.021 343.453 391.405 344.141C391.789 344.813 392.301 345.333 392.941 345.701C393.581 346.069 394.309 346.253 395.125 346.253ZM414.268 348.125L409.348 341.933L411.244 340.781L416.98 348.125H414.268ZM405.052 348.125V335.405H407.356V348.125H405.052ZM406.66 342.749V340.781H410.86V342.749H406.66ZM411.436 342.029L409.3 341.741L414.172 335.405H416.644L411.436 342.029ZM419.9 348.269C419.452 348.269 419.068 348.117 418.748 347.813C418.428 347.493 418.268 347.093 418.268 346.613C418.268 346.133 418.428 345.741 418.748 345.437C419.068 345.133 419.452 344.981 419.9 344.981C420.332 344.981 420.7 345.133 421.004 345.437C421.324 345.741 421.484 346.133 421.484 346.613C421.484 347.093 421.324 347.493 421.004 347.813C420.7 348.117 420.332 348.269 419.9 348.269ZM431.663 348.125V331.325H433.631L441.167 344.021H440.111L447.551 331.325H449.519L449.543 348.125H447.239L447.215 334.949H447.767L441.143 346.085H440.039L433.367 334.949H433.967V348.125H431.663ZM454.388 348.125V335.405H456.692V340.805H463.94V335.405H466.244V348.125H463.94V342.797H456.692V348.125H454.388ZM476.388 348.269C475.028 348.269 473.828 347.989 472.788 347.429C471.764 346.869 470.964 346.101 470.388 345.125C469.828 344.149 469.548 343.029 469.548 341.765C469.548 340.501 469.82 339.381 470.364 338.405C470.924 337.429 471.684 336.669 472.644 336.125C473.62 335.565 474.716 335.285 475.932 335.285C477.164 335.285 478.252 335.557 479.196 336.101C480.14 336.645 480.876 337.413 481.404 338.405C481.948 339.381 482.22 340.525 482.22 341.837C482.22 341.933 482.212 342.045 482.196 342.173C482.196 342.301 482.188 342.421 482.172 342.533H471.348V340.877H480.972L480.036 341.453C480.052 340.637 479.884 339.909 479.532 339.269C479.18 338.629 478.692 338.133 478.068 337.781C477.46 337.413 476.748 337.229 475.932 337.229C475.132 337.229 474.42 337.413 473.796 337.781C473.172 338.133 472.684 338.637 472.332 339.293C471.98 339.933 471.804 340.669 471.804 341.501V341.885C471.804 342.733 471.996 343.493 472.38 344.165C472.78 344.821 473.332 345.333 474.036 345.701C474.74 346.069 475.548 346.253 476.46 346.253C477.212 346.253 477.892 346.125 478.5 345.869C479.124 345.613 479.668 345.229 480.132 344.717L481.404 346.205C480.828 346.877 480.108 347.389 479.244 347.741C478.396 348.093 477.444 348.269 476.388 348.269ZM492.24 348.125V335.405H504.024V348.125H501.72V336.845L502.272 337.421H493.992L494.544 336.845V348.125H492.24ZM513.93 348.269C512.65 348.269 511.514 347.989 510.522 347.429C509.53 346.869 508.746 346.101 508.17 345.125C507.594 344.133 507.306 343.013 507.306 341.765C507.306 340.501 507.594 339.381 508.17 338.405C508.746 337.429 509.53 336.669 510.522 336.125C511.514 335.565 512.65 335.285 513.93 335.285C515.194 335.285 516.322 335.565 517.314 336.125C518.322 336.669 519.106 337.429 519.666 338.405C520.242 339.365 520.53 340.485 520.53 341.765C520.53 343.029 520.242 344.149 519.666 345.125C519.106 346.101 518.322 346.869 517.314 347.429C516.322 347.989 515.194 348.269 513.93 348.269ZM513.93 346.253C514.746 346.253 515.474 346.069 516.114 345.701C516.77 345.333 517.282 344.813 517.65 344.141C518.018 343.453 518.202 342.661 518.202 341.765C518.202 340.853 518.018 340.069 517.65 339.413C517.282 338.741 516.77 338.221 516.114 337.853C515.474 337.485 514.746 337.301 513.93 337.301C513.114 337.301 512.386 337.485 511.746 337.853C511.106 338.221 510.594 338.741 510.21 339.413C509.826 340.069 509.634 340.853 509.634 341.765C509.634 342.661 509.826 343.453 510.21 344.141C510.594 344.813 511.106 345.333 511.746 345.701C512.386 346.069 513.114 346.253 513.93 346.253ZM532.451 347.045V337.421H526.931L526.811 339.869C526.779 340.669 526.723 341.445 526.643 342.197C526.579 342.933 526.467 343.613 526.307 344.237C526.163 344.861 525.947 345.373 525.659 345.773C525.371 346.173 524.987 346.421 524.507 346.517L522.227 346.109C522.723 346.125 523.123 345.965 523.427 345.629C523.731 345.277 523.963 344.797 524.123 344.189C524.299 343.581 524.427 342.893 524.507 342.125C524.587 341.341 524.651 340.533 524.699 339.701L524.891 335.405H534.755V347.045H532.451ZM521.723 351.077V346.109H536.699V351.077H534.539V348.125H523.907V351.077H521.723ZM545.149 348.269C543.869 348.269 542.733 347.989 541.741 347.429C540.749 346.869 539.965 346.101 539.389 345.125C538.813 344.133 538.525 343.013 538.525 341.765C538.525 340.501 538.813 339.381 539.389 338.405C539.965 337.429 540.749 336.669 541.741 336.125C542.733 335.565 543.869 335.285 545.149 335.285C546.413 335.285 547.541 335.565 548.533 336.125C549.541 336.669 550.325 337.429 550.885 338.405C551.461 339.365 551.749 340.485 551.749 341.765C551.749 343.029 551.461 344.149 550.885 345.125C550.325 346.101 549.541 346.869 548.533 347.429C547.541 347.989 546.413 348.269 545.149 348.269ZM545.149 346.253C545.965 346.253 546.693 346.069 547.333 345.701C547.989 345.333 548.501 344.813 548.869 344.141C549.237 343.453 549.421 342.661 549.421 341.765C549.421 340.853 549.237 340.069 548.869 339.413C548.501 338.741 547.989 338.221 547.333 337.853C546.693 337.485 545.965 337.301 545.149 337.301C544.333 337.301 543.605 337.485 542.965 337.853C542.325 338.221 541.813 338.741 541.429 339.413C541.045 340.069 540.853 340.853 540.853 341.765C540.853 342.661 541.045 343.453 541.429 344.141C541.813 344.813 542.325 345.333 542.965 345.701C543.605 346.069 544.333 346.253 545.149 346.253ZM555.076 348.125V335.405H557.38V344.669L565.18 335.405H567.268V348.125H564.964V338.861L557.188 348.125H555.076ZM561.028 333.749C559.86 333.749 558.94 333.469 558.268 332.909C557.612 332.333 557.276 331.509 557.26 330.437H558.82C558.836 331.045 559.036 331.525 559.42 331.877C559.82 332.229 560.348 332.405 561.004 332.405C561.66 332.405 562.188 332.229 562.588 331.877C562.988 331.525 563.196 331.045 563.212 330.437H564.82C564.804 331.509 564.46 332.333 563.788 332.909C563.116 333.469 562.196 333.749 561.028 333.749ZM580.428 347.045V337.421H574.908L574.788 339.869C574.756 340.669 574.7 341.445 574.62 342.197C574.556 342.933 574.444 343.613 574.284 344.237C574.14 344.861 573.924 345.373 573.636 345.773C573.348 346.173 572.964 346.421 572.484 346.517L570.204 346.109C570.7 346.125 571.1 345.965 571.404 345.629C571.708 345.277 571.94 344.797 572.1 344.189C572.276 343.581 572.404 342.893 572.484 342.125C572.564 341.341 572.628 340.533 572.676 339.701L572.868 335.405H582.732V347.045H580.428ZM569.7 351.077V346.109H584.676V351.077H582.516V348.125H571.884V351.077H569.7ZM593.341 348.269C591.981 348.269 590.781 347.989 589.741 347.429C588.717 346.869 587.917 346.101 587.341 345.125C586.781 344.149 586.501 343.029 586.501 341.765C586.501 340.501 586.773 339.381 587.317 338.405C587.877 337.429 588.637 336.669 589.597 336.125C590.573 335.565 591.669 335.285 592.885 335.285C594.117 335.285 595.205 335.557 596.149 336.101C597.093 336.645 597.829 337.413 598.357 338.405C598.901 339.381 599.173 340.525 599.173 341.837C599.173 341.933 599.165 342.045 599.149 342.173C599.149 342.301 599.141 342.421 599.125 342.533H588.301V340.877H597.925L596.989 341.453C597.005 340.637 596.837 339.909 596.485 339.269C596.133 338.629 595.645 338.133 595.021 337.781C594.413 337.413 593.701 337.229 592.885 337.229C592.085 337.229 591.373 337.413 590.749 337.781C590.125 338.133 589.637 338.637 589.285 339.293C588.933 339.933 588.757 340.669 588.757 341.501V341.885C588.757 342.733 588.949 343.493 589.333 344.165C589.733 344.821 590.285 345.333 590.989 345.701C591.693 346.069 592.501 346.253 593.413 346.253C594.165 346.253 594.845 346.125 595.453 345.869C596.077 345.613 596.621 345.229 597.085 344.717L598.357 346.205C597.781 346.877 597.061 347.389 596.197 347.741C595.349 348.093 594.397 348.269 593.341 348.269ZM604.729 348.125V336.821L605.305 337.421H600.073V335.405H611.689V337.421H606.481L607.033 336.821V348.125H604.729ZM617.285 342.821C617.285 342.197 617.389 341.653 617.597 341.189C617.805 340.725 618.061 340.309 618.365 339.941C618.685 339.573 619.029 339.237 619.397 338.933C619.765 338.613 620.109 338.301 620.429 337.997C620.749 337.677 621.005 337.341 621.197 336.989C621.405 336.637 621.509 336.229 621.509 335.765C621.509 334.997 621.205 334.373 620.597 333.893C619.989 333.413 619.149 333.173 618.077 333.173C617.117 333.173 616.285 333.333 615.581 333.653C614.877 333.973 614.277 334.445 613.781 335.069L612.029 333.821C612.701 332.973 613.557 332.317 614.597 331.853C615.637 331.373 616.853 331.133 618.245 331.133C619.397 331.133 620.397 331.309 621.245 331.661C622.093 331.997 622.749 332.485 623.213 333.125C623.693 333.749 623.932 334.509 623.932 335.405C623.932 336.077 623.829 336.653 623.621 337.133C623.413 337.613 623.149 338.037 622.829 338.405C622.509 338.773 622.165 339.117 621.797 339.437C621.445 339.757 621.109 340.077 620.789 340.397C620.469 340.717 620.205 341.069 619.997 341.453C619.789 341.837 619.685 342.293 619.685 342.821H617.285ZM618.509 348.269C618.061 348.269 617.685 348.117 617.381 347.813C617.093 347.509 616.949 347.149 616.949 346.733C616.949 346.285 617.093 345.917 617.381 345.629C617.685 345.341 618.061 345.197 618.509 345.197C618.957 345.197 619.325 345.341 619.613 345.629C619.901 345.917 620.045 346.285 620.045 346.733C620.045 347.149 619.901 347.509 619.613 347.813C619.325 348.117 618.957 348.269 618.509 348.269Z" fill="black"/>
</svg>
