<svg width="35" height="35" viewBox="0 0 35 35" fill="none" xmlns="http://www.w3.org/2000/svg">
<g clip-path="url(#clip0_939_286)">
<path d="M27.5508 29.7284V31.8291C26.5412 32.539 25.4586 33.1391 24.3119 33.6241C22.1541 34.5368 19.8623 34.9998 17.5 34.9998C15.1376 34.9998 12.8459 34.5368 10.688 33.6241C9.54131 33.1391 8.45871 32.539 7.44958 31.8291V29.7284C7.44958 27.4367 8.34155 25.2821 9.96259 23.6614C11.5828 22.0412 13.7374 21.1484 16.0292 21.1484H18.9708C21.2625 21.1484 23.4171 22.0408 25.0378 23.6614C26.658 25.2821 27.5508 27.4367 27.5508 29.7284Z" fill="#EFEFEF"/>
<path d="M22.5415 12.4738C22.5415 15.2534 20.28 17.5149 17.5004 17.5149C14.7209 17.5149 12.4597 15.2534 12.4597 12.4738C12.4597 9.69424 14.7209 7.43311 17.5004 7.43311C20.28 7.43311 22.5415 9.69424 22.5415 12.4738Z" fill="#EFEFEF"/>
<path d="M33.6247 10.688C32.7434 8.60406 31.4811 6.73237 29.8744 5.12521C28.2672 3.51845 26.3959 2.25623 24.3116 1.37489C22.1545 0.462514 19.8624 0 17.5 0C15.1376 0 12.8459 0.462514 10.688 1.37529C8.60406 2.25664 6.73278 3.51886 5.12561 5.12562C3.51845 6.73237 2.25664 8.60406 1.37529 10.6884C0.462922 12.8459 0 15.138 0 17.5C0 19.862 0.462922 22.1541 1.3757 24.312C2.25705 26.3959 3.51886 28.2672 5.12602 29.8744C5.50036 30.2487 5.88858 30.6043 6.29108 30.9402V29.7287C6.29108 27.1275 7.30429 24.6818 9.14332 22.8424C10.9828 21.0029 13.4284 19.9897 16.0296 19.9897H18.9712C21.5728 19.9897 24.0181 21.0029 25.8575 22.8424C27.6965 24.6818 28.7097 27.1275 28.7097 29.7287V30.9407C29.1122 30.6047 29.5009 30.2487 29.8752 29.8744C31.482 28.2676 32.7442 26.3963 33.6255 24.312C34.5383 22.1541 35.0008 19.8624 35.0008 17.5C35.0008 15.1376 34.5383 12.8459 33.6255 10.688H33.6247ZM17.5 18.6732C14.0816 18.6732 11.3004 15.8924 11.3004 12.4736C11.3004 9.05474 14.0816 6.27394 17.5 6.27394C20.9184 6.27394 23.6996 9.05514 23.6996 12.4736C23.6996 15.892 20.9188 18.6732 17.5 18.6732Z" fill="#EFEFEF"/>
</g>
<defs>
<clipPath id="clip0_939_286">
<rect width="35" height="35" fill="white"/>
</clipPath>
</defs>
</svg>
