<svg width="1074" height="13" viewBox="0 0 1074 13" fill="none" xmlns="http://www.w3.org/2000/svg">
<path d="M24.635 0.440313C47.0832 -0.368241 62.4019 0.604951 83.2238 0.813592C129.06 1.27223 189.508 1.15546 236.389 1.31525C271.874 1.43621 307.93 1.6036 343.2 1.75635C345.009 1.76408 346.088 1.86303 346.908 1.86663C354.63 1.90039 367.58 1.85131 375.241 1.88629C391.355 1.95964 419.394 2.02638 434.153 2.15919C440.421 2.21548 446.849 2.25006 449.285 2.48524C451.575 2.50353 452.826 2.30109 453.424 2.29161C453.43 2.29184 453.437 2.29206 453.444 2.29228C455.37 2.2631 460.234 2.42176 461.307 2.41589C461.467 2.41495 460.48 2.2628 463.083 2.31548C463.315 2.32003 463.101 2.42089 465.293 2.42872C465.864 2.43074 473.198 2.29646 475.294 2.29306C482.268 2.2824 498.922 2.45308 507.261 2.47528C508.536 2.47899 509.271 2.42176 510.617 2.42463C511.313 2.42604 512.356 2.49352 512.57 2.49379C513.508 2.49423 517.607 2.21351 516.134 2.78676C520.413 2.7626 519.153 2.568 519.25 2.44428C523.895 2.4399 526.133 2.71842 527.346 2.43368C550.187 2.535 573.028 2.63631 595.869 2.73763C595.876 2.69066 595.883 2.64368 595.89 2.5967C602.622 2.80402 604.933 2.49324 608.775 2.77705C611.145 2.72394 613.515 2.67082 615.885 2.61771C676.793 2.98004 737.559 2.93722 797.781 3.11333C800.323 3.12073 800.957 3.22258 805.148 3.23549C809.776 3.24967 816.286 3.15241 822.385 3.17156C827.735 3.1882 835.628 3.30579 841.594 3.33798C842.94 3.34507 843.915 3.28457 844.066 3.28537C844.958 3.29044 845.002 3.39084 845.867 3.3962C846.901 3.40238 848.151 3.33175 849.346 3.33981C853.812 3.36936 858.678 3.35793 859.244 3.36131C861.967 3.37874 862.568 3.47855 862.792 3.48029C865.822 3.50108 864.686 3.40926 865.441 3.41659C869.356 3.45512 872.122 3.68412 877.482 3.48767C877.336 3.56924 877.19 3.6508 877.044 3.73236C881.146 3.79044 878.437 3.5647 879.275 3.52769C879.617 3.51406 888.446 3.56639 889.127 3.57225C891.499 3.59324 891.562 3.70238 891.767 3.70445C892.266 3.70942 898.233 3.60315 901.292 3.70716C904.911 3.83042 900.65 4.03964 901.549 4.08388C901.7 4.09137 905.489 4.07969 905.998 4.15055C906.559 4.22683 903.282 4.2157 903.333 4.24715C903.368 4.26874 908.808 4.43846 907.765 4.53899C906.926 4.64042 899.546 4.48574 897.982 4.53002C897.724 4.53736 898.211 4.66697 897.982 4.67101C897.064 4.68559 880.058 4.63991 879.28 4.61654C880.166 4.56073 881.051 4.50492 881.937 4.44911C880.76 4.43978 879.582 4.43045 878.405 4.42112C880.079 4.37921 881.753 4.33729 883.428 4.29537C880.941 3.80736 873.446 4.27291 873.137 4.51198C873.002 4.62255 877.582 4.92139 873.319 5.07524C873.967 5.10561 874.615 5.13598 875.263 5.16635C876.599 5.12345 877.935 5.08054 879.271 5.03764C878.381 5.00555 877.492 4.97346 876.602 4.94137C876.93 4.90896 877.257 4.87655 877.585 4.84414C880.082 4.7979 882.579 4.75167 885.076 4.70544C886.36 4.73384 886.092 4.83156 886.975 4.85318C897.978 5.12511 890.801 4.79895 898.006 4.86394C899.034 4.91984 900.063 4.97573 901.092 5.03162C900.729 4.8118 903.92 4.95845 907.78 4.87532C907.319 4.94478 906.858 5.01424 906.396 5.08369C911.988 5.06228 923.322 5.45224 920.264 5.05267C921.545 5.08977 922.826 5.12687 924.107 5.16396C925.189 5.10323 926.271 5.0425 927.354 4.98177C928.849 4.99345 930.344 5.00513 931.84 5.01681C931.846 5.05141 931.853 5.08602 931.86 5.12063C930.667 5.11736 929.475 5.11409 928.282 5.11082C929.177 5.21881 930.072 5.3268 930.967 5.43479C931.847 5.41986 932.727 5.40492 933.607 5.38999C929.916 5.27957 934.783 5.13094 935.962 4.99525C939.074 4.95289 941.061 5.13929 942.105 5.15047C942.595 5.15577 948.374 4.85398 946.108 5.19752C949.081 5.16366 952.054 5.1298 955.027 5.09594C956.19 5.12618 957.352 5.15642 958.514 5.18666C955.991 5.34241 963.302 5.56021 957.916 5.61215C953.894 5.65117 952.903 5.49579 950.994 5.49129C949.274 5.48703 948.364 5.58708 946.492 5.58621C933.899 5.57841 923.642 5.5297 911.684 5.44942C909.321 5.43341 907.172 5.4775 905.585 5.46584C903.793 5.4525 906.038 5.33022 903.755 5.35492C901.358 5.38108 900.839 5.48469 900.206 5.48496C899.812 5.48501 898.564 5.3868 897.415 5.38345C892.693 5.36972 885.773 5.44101 885.102 5.43853C884.345 5.43526 870.99 5.31103 870.351 5.29364C870.012 5.2842 870.716 4.93701 867.772 5.30077C866.854 5.30502 865.936 5.30926 865.018 5.3135C865.166 5.24415 865.315 5.17481 865.464 5.10546C860.024 5.35415 861.895 5.21161 856.651 5.21711C844.095 5.23055 825.572 5.11781 811.839 5.10246C808.773 5.09918 807.604 5.17933 803.976 5.17477C800.606 5.17024 791.806 4.89529 793.719 5.24621C786.22 4.92533 785.013 5.43749 781.259 5.10495C780.805 5.15041 780.35 5.19588 779.896 5.24135C775.821 5.0287 774.563 5.2015 770.113 5.21286C768.196 5.21784 770.407 5.01072 766.536 5.23723C765.796 5.21737 765.057 5.19752 764.317 5.17767C764.489 5.12649 764.661 5.07532 764.834 5.02415C760.535 5.0539 760.258 5.02616 760.748 5.22098C758.673 5.17974 756.598 5.1385 754.523 5.09726C754.264 5.15998 754.006 5.22271 753.748 5.28543C754.742 5.4094 801.862 5.36406 808.425 5.32506C816.12 5.49114 831.581 5.35655 837.798 5.40878C840.286 5.42976 841.384 5.57652 845.005 5.60433C848.624 5.63211 853.18 5.515 855.107 5.51595C861.528 5.51845 891.949 5.6357 871.258 5.75403C871.853 5.82575 872.448 5.89747 873.042 5.96918C881.265 5.75432 878.287 5.89266 885.109 5.93719C887.981 5.95608 894.811 5.81969 894.429 6.13645C889.096 6.1801 883.43 6.062 878.793 6.05307C878.333 6.05223 872.842 6.18137 870.017 6.13371C867.468 6.09029 869.224 5.79238 863.677 6.11646C859.558 5.7721 857.176 6.06669 856.088 6.09558C854.207 6.14568 854.002 5.98105 852.122 5.95647C850.074 5.9294 848.665 6.03418 848.385 6.03408C845.577 6.02837 830.951 6.00061 830.281 5.93252C830.869 5.90514 831.457 5.87776 832.045 5.85038C828.247 5.7925 829.041 5.96254 828.042 5.97971C827.298 5.97694 826.555 5.97416 825.811 5.97138C826.106 5.93745 826.401 5.90352 826.695 5.86959C822.21 5.86392 825.642 5.99481 819.274 5.9731C815.231 5.95919 811.055 5.81422 810.663 5.82289C810.547 5.82537 811.819 5.91862 810.171 5.92583C807.443 5.93761 802.725 5.92159 802.198 5.79824C800.862 5.81159 800.975 5.93112 800.798 5.93332C800.022 5.94268 786.673 5.94433 784.282 5.94442C777.656 5.94449 770.279 5.89759 763.1 5.89676C762.362 5.89662 762.833 5.8215 762.093 5.82181C760.905 5.82227 754.809 5.92455 753.898 5.93038C751.625 5.94453 745.646 5.8795 744.705 5.91154C744.571 5.91608 746.539 6.0252 744.238 6.05055C741.683 6.07858 743.059 5.94353 742.92 5.94174C737.722 5.87905 734.439 5.9661 730.89 5.97445C729.74 5.97708 727.618 5.86625 725.995 5.89244C725.808 5.89541 726.178 5.9932 725.995 5.99742C723.542 6.041 721.248 5.85484 720.187 5.84013C717.59 5.80415 719.004 5.94072 718.868 5.94126C717.139 5.94045 714.811 5.88589 712.18 5.88455C700.453 5.87858 690.883 5.85879 678.416 5.81368C676.85 5.80806 674.992 5.70922 674.753 5.70841C674.013 5.70695 674.224 5.81736 672.084 5.80866C667.571 5.78988 663.388 5.783 658.92 5.76788C658.021 5.76481 657.637 5.66197 656.952 5.65778C654.651 5.64474 646.806 5.88826 646.678 5.55645C642.111 5.83655 639.079 5.57484 635.405 5.56695C626.701 5.54794 613.073 5.56802 604.396 5.5047C602.569 5.49123 601.712 5.40381 600.696 5.39627C598.873 5.38254 588.453 5.39962 587.909 5.38466C586.838 5.35583 587.481 4.98372 581.978 5.29354C578.752 5.30736 579.133 5.15498 578.466 5.14476C573.267 5.06797 568.208 5.39579 569.154 5.08468C563.101 5.15228 559.177 5.3143 556.707 5.01364C556.739 5.15695 553.892 5.23456 550.461 5.17C553.975 4.93966 553.54 4.78464 562.037 4.85339C562.171 4.85448 561.915 4.95731 562.049 4.9584C563.262 4.96893 565.794 4.92401 567.861 4.93566C569.93 4.94732 568.781 5.01477 569.609 5.01582C570.367 5.01662 570.342 4.91744 571.439 4.91922C574.997 4.92571 578.146 4.90756 580.17 4.91169C581.445 4.91438 582.872 5.00562 583.862 5.0085C587.687 5.01894 595.795 4.97455 600.664 4.99824C601.678 5.00342 601.253 5.09989 603.472 5.11445C603.731 5.11615 604.677 5.01701 606.62 5.00155C608.563 4.98608 610.07 5.04107 611.319 5.03416C612.362 5.02839 611.926 4.93661 614.065 4.93718C615.849 4.93779 636.05 5.06184 637.146 5.07948C638.724 5.10489 639.474 5.23419 640.437 5.2215C640.606 5.21868 640.894 5.09674 641.481 5.08966C651.167 4.97277 672.602 5.20271 683.669 5.2339C706.802 5.29951 728.143 5.28943 751.481 5.32887C751.897 5.30872 752.313 5.28857 752.729 5.26842C750.37 5.26074 748.011 5.25305 745.652 5.24537C745.637 5.18755 745.623 5.12973 745.608 5.07191C742.418 5.05347 742.841 5.19134 742.93 5.27406C741.75 5.23563 740.57 5.1972 739.39 5.15877C738.371 5.35716 730.501 5.20032 726.443 5.18881C723.804 5.18112 720.663 5.24873 719.272 5.23872C716.331 5.21784 716.409 5.09382 716.178 5.09116C715.785 5.0872 711.68 5.18483 708.72 5.17198C704.342 5.1532 703.869 4.96104 697.877 5.10561C690.199 4.98427 681.692 5.0093 673.416 5.00141C674.992 4.82966 667.576 4.97496 664.231 4.96245C643.828 4.88576 618.75 4.73737 598.078 4.60742C595.422 4.59088 593.415 4.48115 591.935 4.48027C591.132 4.4797 590.782 4.60115 589.667 4.5817C589.471 4.57801 589.335 4.46309 587.261 4.43981C582.097 4.38144 569.235 4.5351 565.98 4.30581C548.327 4.28836 530.673 4.27092 513.019 4.25347C512.576 4.20539 512.132 4.15731 511.689 4.10922C508.335 4.33858 495.077 4.15945 488.611 4.15187C477.232 4.1388 462.713 4.17087 452.743 4.14993C450.576 4.14538 448.801 4.07238 446.751 4.06778C445.868 4.06592 444.771 4.15067 443.852 4.14845C433.543 4.12512 419.585 3.99387 409.196 3.96573C385.608 3.9016 363.394 3.82356 339.494 3.75783C258.983 3.53707 178.935 3.43326 99.1108 3.14862C98.0407 3.1448 98.0944 3.04383 97.2651 3.04071C92.3693 3.02152 81.4361 3.07303 75.9068 3.05235C71.5014 3.036 64.5094 2.86101 62.9929 3.0123C78.6432 3.29355 95.1785 3.32398 111.471 3.4373C112.63 3.44531 112.773 3.54187 112.916 3.54405C115.554 3.58513 113.888 3.44789 117.713 3.45304C118.992 3.45476 130.799 3.79605 129.395 3.48646C132.223 3.6169 152.157 3.73605 156.004 3.70678C157.173 3.69785 156.346 3.60493 156.578 3.60103C157.585 3.58397 158.039 3.71009 158.939 3.71594C161.338 3.73067 167.44 3.64722 168.599 3.6513C171.267 3.66015 179.264 3.78503 182.786 3.77135C186.014 3.75892 185.41 3.6268 188.202 3.62295C190.402 3.62026 188.005 3.72293 192.917 3.77034C195.351 3.79364 203.867 3.74 205.937 3.74601C208.006 3.75204 210.308 3.83675 213.161 3.83908C217.272 3.84259 226.215 3.8252 230.398 3.81238C230.648 3.8117 231.256 3.71206 231.872 3.71596C233.146 3.72393 232.763 3.84805 233.725 3.86357C234.688 3.87905 251.367 3.91233 254.199 3.92198C256.152 3.92837 257.5 3.8577 258.579 3.8615C259.426 3.86467 259.516 3.96926 260.38 3.97294C260.648 3.97372 262.924 3.88974 265.198 3.89848C267.346 3.90686 275.505 4.01679 276.45 4.02036C277.065 4.0225 276.391 3.94641 278.21 3.95347C279.868 3.96011 280.957 4.05954 281.902 4.0637C284.095 4.07322 286.546 3.99828 288.873 4.00466C295.561 4.02309 295.216 4.14133 295.618 4.14638C296.73 4.16039 297.177 4.05246 297.542 4.05128C299.084 4.04661 302.864 4.03744 304.238 4.03721C305.951 4.03691 306.676 4.14283 308.495 4.14848C309.851 4.15236 312.589 4.05914 315.683 4.06322C322.656 4.07191 330.95 4.07696 337.798 4.10078C339.84 4.10778 340.153 4.20344 340.778 4.20772C344.058 4.23028 345.895 4.12969 346.832 4.1338C353.511 4.16277 365.425 4.36369 371.623 4.39583C374.147 4.40881 385.197 4.36425 391.43 4.39615C392.143 4.39965 391.476 4.47199 392.269 4.46267C394.168 4.44033 393.992 4.28856 394.955 4.29594C395.419 4.29997 396.479 4.38833 397.832 4.40075C404.85 4.46523 409.677 4.41297 412.879 4.42688C443.627 4.56047 474.982 4.69142 503.697 4.78844C506.899 4.79918 510.869 4.72075 515.702 4.82219C515.851 4.86962 516 4.91705 516.148 4.96447C516.317 4.91879 516.487 4.8731 516.656 4.82741C522.131 4.81834 524.2 4.76493 529.791 4.84003C530.272 4.84636 531.742 5.06519 532.652 4.80137C538.19 5.01054 535.152 4.80708 539.263 4.80109C543.373 4.7951 547.368 4.86623 551.354 4.89124C553.538 4.99307 544.37 5.18653 543.772 5.18409C542.81 5.18044 541.81 5.04504 540.883 5.0353C538.137 5.00623 535.481 5.10363 534.866 4.98359C531.317 5.09828 535.735 5.04868 535.291 5.16C532.923 5.10651 530.554 5.05302 528.186 4.99954C526.978 5.37903 513.892 4.84143 514.801 5.13572C513.76 5.0743 512.719 5.01288 511.678 4.95146C507.112 5.30403 504.428 5.03859 498.339 4.91199C498.778 4.96006 499.217 5.00814 499.656 5.05621C499.532 5.07537 494.157 5.13454 496.079 4.94081C490.569 5.1874 490.802 4.75121 485.862 5.05265C482.928 5.08461 484.693 4.90631 479.441 4.89418C476.328 4.88688 472.464 4.97153 468.986 4.9681C468.185 4.967 467.837 4.85977 467.124 4.8577C466.412 4.85566 466.064 4.95879 465.2 4.9589C463.416 4.95934 461.105 4.8795 459.99 4.8833C458.991 4.8864 457.563 4.97409 455.155 4.98152C446.748 5.00809 449.288 4.88432 447.96 4.83606C446.533 4.7847 445.507 4.95454 442.663 4.92622C442.378 4.92327 443.116 4.81772 442.189 4.81925C441.441 4.82038 441.064 4.93635 438.586 4.95096C437.6 4.9569 422.283 4.93736 419.95 4.93269C416.374 4.92545 408.408 4.80316 404.707 4.79308C403.281 4.78895 401.757 4.8785 400.242 4.87346C395.221 4.85672 387.183 4.82535 380.815 4.80223C375.082 4.78128 365.017 4.5445 361.877 4.72265C353.825 4.7235 351.87 4.55775 351.263 4.55381C349.622 4.54304 348.862 4.64686 346.793 4.64576C319.995 4.62935 284.707 4.45648 259.327 4.39101C200.452 4.23996 141.255 4.12548 82.1751 3.91043C82.0167 3.95697 81.8583 4.0035 81.6999 4.05003C88.6825 4.10067 96.8886 4.20621 103.782 4.24496C112.985 4.2964 126.638 4.14046 133.387 4.48133C130.65 4.50153 126.19 4.36538 126.269 4.53079C131.163 4.55685 136.057 4.5829 140.951 4.60895C140.805 4.53224 140.66 4.45552 140.514 4.3788C145.624 4.3715 150.85 4.40335 155.978 4.40737C156.869 4.40816 156.238 4.33707 157.014 4.33897C157.882 4.34125 157.293 4.41002 157.456 4.41106C159.649 4.41815 160.311 4.34877 160.579 4.35058C161.265 4.3554 160.731 4.42172 162.711 4.44651C166.384 4.49274 169.014 4.32007 168.15 4.61799C169.336 4.62144 170.522 4.62489 171.707 4.62835C172.015 4.54746 172.322 4.46657 172.629 4.38568C179.921 4.73711 183.286 4.1677 187.315 4.63901C188.644 4.5727 189.973 4.50638 191.302 4.44006C192.051 4.52403 192.8 4.60799 193.548 4.69196C193.695 4.6222 193.841 4.55243 193.987 4.48267C201.147 4.55528 208.771 4.49323 215.619 4.52127C220.39 4.5408 221.533 4.57184 225.758 4.57887C235.157 4.59427 225.823 4.70635 233.632 4.87951C233.226 4.79227 232.82 4.70503 232.413 4.61779C233.707 4.59002 235.001 4.56225 236.294 4.53449C237.194 4.6073 238.095 4.68011 238.995 4.75292C242.99 4.4005 245.577 4.7019 246.121 4.70349C246.561 4.70413 248.07 4.48936 252.797 4.68875C250.838 4.38341 256.404 4.6975 256.85 4.70056C257.273 4.703 262.693 4.6519 264.893 4.66112C266.623 4.66829 270.314 4.74354 272.891 4.74789C275.166 4.75171 274.935 4.64931 275.101 4.64874C277.901 4.64844 276.146 4.72237 278.171 4.73214C280.195 4.7419 281.766 4.65979 282.203 4.66881C282.423 4.67358 281.687 4.7662 282.694 4.77827C285.396 4.8111 290.283 4.74237 293.377 4.75385C294.474 4.75781 295.856 4.84222 297.077 4.84824C298.949 4.85719 299.825 4.75298 300.913 4.75932C301.291 4.76181 303.706 4.93378 306.708 4.91718C307.279 4.91377 308.958 4.56965 311.186 5.0706C311.358 5.00153 311.53 4.93245 311.702 4.86337C321.771 4.72044 324.571 5.29384 329.049 4.80526C336.359 4.88257 331.34 5.06336 332.143 5.09563C332.661 5.11606 335.045 5.06928 335.307 5.07311C335.77 5.08045 335.69 5.14294 336.199 5.14407C345.518 5.15959 341.381 5.02912 344.332 4.96268C351.351 4.80454 356.826 5.21698 344.619 5.06239C344.619 5.09739 344.618 5.13238 344.618 5.16737C347.624 5.14268 355.254 5.18079 352.706 5.35083C350.699 5.48483 332.597 5.34084 342.849 5.56687C345.176 5.61803 346.382 5.49023 350.413 5.7482C353.078 5.76932 353.463 5.45144 357.073 5.58999C356.48 5.47697 355.886 5.36396 355.293 5.25095C360.216 5.12023 366.288 5.3325 370.069 5.28117C371.354 5.26367 375.984 4.74659 374.904 5.27389C377.064 5.24711 387.237 5.37445 389.127 5.33241C389.582 5.32225 390.175 5.04156 396.753 5.15931C397.21 5.19604 397.667 5.23277 398.124 5.2695C392.107 5.35482 402.733 5.49038 399.846 5.74997C398.866 5.62666 394.094 5.53929 393.326 5.47647C392.016 5.36838 395.921 5.24537 390.945 5.26751C387.807 5.70628 396.776 5.52629 395.404 5.9476C401.938 5.76809 402.59 5.95942 404.07 5.97162C410.392 6.02208 414.371 5.98859 420.336 6.05561C421.79 5.97249 410.991 5.81493 409.653 5.84872C414.577 5.55342 406.104 5.51474 402.527 5.6882C402.227 5.59374 401.927 5.49928 401.628 5.40482C406.282 5.46911 410.823 5.50839 415.434 5.44504C415.734 5.4809 416.034 5.51677 416.334 5.55264C415.3 5.60232 414.265 5.652 413.231 5.70168C417.065 5.79913 414.766 5.51954 419.874 5.77351C420.033 5.66859 420.191 5.56367 420.35 5.45874C425.248 5.508 430.146 5.55726 435.044 5.60652C437.595 5.40263 447.019 5.50879 445.293 5.77736C449.097 5.80776 444.401 5.64847 447.966 5.59228C449.518 5.56791 452.55 5.56863 453.299 5.64443C452.976 5.90403 448.438 5.92315 447.064 6.09806C447.897 6.15821 469.002 6.03367 467.12 6.33286C468.805 6.3744 468.031 6.21519 471.07 6.18385C479.587 6.09664 492.778 6.44529 499.637 6.07602C491.585 5.83593 489.202 6.05844 483.031 6.04963C479.089 6.04413 455.056 6.01108 460.425 5.75125C459.542 5.78367 458.659 5.81609 457.777 5.84851C456.885 5.76392 455.992 5.67934 455.1 5.59475C457.615 5.59027 460.13 5.5858 462.644 5.58132C463.244 5.66486 463.844 5.74839 464.444 5.83192C464.722 5.77434 464.999 5.71676 465.276 5.65918C466.335 5.65066 467.393 5.64215 468.452 5.63364C468.155 5.70296 467.857 5.77228 467.559 5.8416C469.191 5.85836 470.823 5.87512 472.455 5.89187C472.016 5.7968 471.577 5.70174 471.138 5.60667C478.823 5.60547 476.22 5.65663 480.482 5.84445C483.664 5.87166 478.289 5.67573 485.021 5.64955C492.851 5.61918 487.714 5.8908 497.853 5.85904C497.999 5.81267 498.145 5.76631 498.291 5.71994C500.521 5.77322 502.75 5.82651 504.979 5.87979C504.685 5.82075 504.39 5.76171 504.096 5.70266C508.697 5.73861 515.039 5.64604 516.563 5.87874C511.899 5.75526 511.944 6.15395 513.156 6.23075C515.66 6.38838 552.645 6.35624 559.814 6.36726C568.981 6.38128 575.909 6.52913 584.283 6.35735C578.609 6.17993 558.655 6.25362 554.874 6.13132C554.5 6.11931 554.606 5.75425 552.197 6.15831C544.44 6.066 535.166 6.15546 525.473 6.11526C525.769 6.01094 526.066 5.90663 526.362 5.80231C532.319 6.04334 537.834 5.56808 537.057 5.97445C538.243 5.9779 539.428 5.98135 540.614 5.98481C540.614 5.91442 540.615 5.84402 540.615 5.77363C542.402 5.77884 544.189 5.78404 545.977 5.78925C545.977 5.85964 545.976 5.93003 545.976 6.00042C547.457 6.00474 548.937 6.00905 550.417 6.01336C550.572 5.94362 550.726 5.87388 550.88 5.80414C555.313 5.96283 570.426 5.61706 563.782 6.01688C565.864 6.02295 567.946 6.02901 570.028 6.03508C570.021 5.98359 570.014 5.93209 570.008 5.8806C570.903 5.87629 571.798 5.87198 572.693 5.86767C572.398 5.9134 572.103 5.95913 571.808 6.00486C575.91 5.93334 579.798 6.18993 582.491 6.03659C580.715 5.99622 578.939 5.95585 577.162 5.91548C580.569 5.99226 586.846 5.87202 587.408 5.8733C589.12 5.87759 590.022 5.98427 591.877 5.99496C593.552 6.00435 593.321 5.92372 593.633 5.92744C602.665 6.03515 599.222 6.45798 603.441 5.95784C603.889 6.02913 604.338 6.10042 604.787 6.17172C605.384 6.11507 605.982 6.05842 606.58 6.00177C609.247 6.01504 611.915 6.0283 614.582 6.04156C613.693 5.95149 612.803 5.86142 611.914 5.77134C615.912 5.74395 617.777 5.92477 618.164 5.92993C619.26 5.94332 619.761 5.83469 620.1 5.83547C636.393 5.89244 626.497 5.96055 634.638 6.39782C637.541 6.24398 634.604 6.07273 634.193 5.90642C638.053 5.99512 639.258 5.95291 643.333 5.97394C644.393 5.97952 645.533 6.07191 646.202 6.07506C646.781 6.07781 648.593 5.98843 649.984 5.99209C652.303 5.99814 655.389 6.06355 658.563 6.0714C661.203 6.07768 669.283 6.03436 674.92 6.05007C677.325 6.05708 676.767 6.13463 677.388 6.1366C677.646 6.13735 679.521 6.04797 681.063 6.05209C693.646 6.08663 706.541 6.18421 719.187 6.21928C728.096 6.24418 737.148 6.19428 746.075 6.22802C747.975 6.23531 746.969 6.30201 747.798 6.30689C748.083 6.30834 748.426 6.18785 751.363 6.24526C752.425 6.26596 751.204 6.34737 752.247 6.35464C752.755 6.35813 752.971 6.25226 755.94 6.23661C761.334 6.20796 764.233 6.35838 764.715 6.35555C765.623 6.35002 765.358 6.26111 766.561 6.26145C772.446 6.26309 777.359 6.26245 782.611 6.27035C785.063 6.27397 801.972 6.3054 802.9 6.32395C804.978 6.36522 803.044 6.54364 805.708 6.54514C806.454 6.50072 807.201 6.45631 807.947 6.41189C806.762 6.37304 805.576 6.33419 804.39 6.29534C807.654 6.36402 811.355 6.29109 813.772 6.3013C814.219 6.30332 818.327 6.39876 820.423 6.39574C819.532 6.42773 818.641 6.45972 817.75 6.49171C818.065 6.52213 818.38 6.55255 818.695 6.58296C822.886 6.55045 827.32 6.56451 831.617 6.58337C833.167 6.59004 832.643 6.66019 834.212 6.66722C843.351 6.70895 841.044 6.40424 849.835 6.98921C846.866 6.92985 836.035 6.96946 834.461 6.94626C833.364 6.93003 829.112 6.445 830.671 6.93461C821.896 6.90694 829.518 6.6616 821.323 6.69621C821.486 6.75589 821.65 6.81556 821.813 6.87524C818.952 6.90423 816.839 6.92799 815.101 6.81846C814.517 7.10397 804.797 6.90762 799.465 6.91146C791.76 6.9165 783.054 6.9612 775.421 6.9513C772.791 6.94782 771.302 6.83092 770.972 6.83031C770.49 6.82971 769.135 6.92435 768.172 6.92225C764.578 6.91459 753.644 6.71609 750.923 6.98187C772.309 7.04416 793.694 7.10644 815.079 7.16873C812.391 7.02637 834.023 7.07623 835.12 7.08611C836.135 7.09508 835.281 7.18705 835.582 7.19366C837.829 7.24071 839.748 7.10936 840.461 7.11144C841.005 7.11304 842.104 7.18049 844.039 7.18472C844.394 7.18556 844.492 7.11789 844.874 7.1188C847.398 7.12615 849.889 7.13437 852.422 7.14139C852.576 7.1425 853.214 7.24362 853.854 7.24566C854.495 7.24752 855.129 7.1502 855.291 7.15036C857.315 7.15696 860.785 7.23157 862.712 7.23789C863.38 7.2398 862.917 7.16577 863.665 7.16865C865.966 7.17711 865.208 7.31719 868.053 7.28884C869.007 7.27928 868.945 7.17029 870.771 7.18995C872.064 7.20393 871.924 7.39744 872.129 7.40509C872.413 7.41442 876.875 7.27429 878.335 7.40546C875.144 7.73124 881.824 7.43311 881.503 7.29079C883.271 7.33154 885.039 7.37229 886.808 7.41305C887.411 7.379 888.014 7.34495 888.617 7.3109C895.751 7.49301 900.104 7.40882 907.122 7.47893C907.461 7.48238 913.374 7.57921 913.098 7.62878C909.557 7.7051 906.026 7.69878 903.761 7.53201C900.033 7.82656 899.969 7.58299 893.95 7.60596C891.934 7.61383 891.791 7.69627 891.559 7.69665C883.721 7.71503 871.167 7.71412 865.887 7.45648C864.407 7.51769 869.728 7.55918 867.659 7.60141C866.53 7.62455 839.372 7.62282 848.049 7.36913C847.149 7.37424 846.248 7.37934 845.348 7.38445C844.446 7.64532 839.968 7.57202 840.477 7.31106C840.053 7.36354 839.628 7.41601 839.204 7.46848C838.365 7.51148 837.373 7.53293 835.982 7.54332C830.655 7.58274 798.963 7.39903 797.277 7.43181C797.239 7.49396 797.201 7.5561 797.162 7.61824C811.163 7.72947 824.746 7.61433 840.013 7.83704C839.57 7.77736 839.127 7.71768 838.683 7.658C844.775 7.75753 850.867 7.85706 856.959 7.95658C850.511 8.04348 840.252 8.10235 833.484 7.99563C832.281 7.97661 833.163 7.89775 832.887 7.88708C832.165 7.85936 831.387 7.99837 828.793 8.00455C826.198 8.01071 819.678 7.89157 819.08 7.89265C817.929 7.8951 814.819 8.04769 812.858 8.03992C810.281 8.0296 812.009 7.93459 811.491 7.93097C809.352 7.9149 807.433 7.95889 805.757 7.94661C803.269 7.92836 798.099 7.73737 796.359 7.99065C798.137 8.00762 799.914 8.0246 801.692 8.04158C792.052 8.10615 784.515 7.75395 775.017 7.98097C772.858 8.2875 780.706 8.26808 774.07 8.38226C775.275 8.38129 776.48 8.38033 777.685 8.37936C777.967 8.31467 778.25 8.24999 778.532 8.1853C780.608 8.23814 782.683 8.29097 784.758 8.34381C784.166 8.2837 783.574 8.22358 782.982 8.16347C790.339 8.14087 797.769 8.10263 800.336 8.42397C800.488 8.34853 800.639 8.27309 800.791 8.19764C807.621 8.3098 817.877 8.01803 815.96 8.43469C816.283 8.41325 816.607 8.39182 816.93 8.37038C821.059 8.46871 819.296 8.28897 820.848 8.27376C821.291 8.2695 829.316 8.38303 825.759 8.49802C833.588 8.61663 831.175 8.21496 833.332 8.20392C838.343 8.41403 847.359 8.14702 843.568 8.44491C844.315 8.45868 845.061 8.47245 845.807 8.48622C848.26 8.25031 850.677 8.53236 853.334 8.63205C854.235 8.64016 855.135 8.64828 856.036 8.65639C856.639 8.57636 857.242 8.49634 857.845 8.41631C866.316 8.83023 863.637 7.75789 867.505 8.66355C866.901 8.7153 866.298 8.76705 865.695 8.8188C864.265 8.84007 862.835 8.86133 861.405 8.8826C867.172 8.92299 872.939 8.96339 878.707 9.00379C886.026 9.2758 890.193 9.01594 898.325 9.23793C899.086 9.21634 899.847 9.19476 900.609 9.17317C899.832 9.37346 896.879 9.33509 902.38 9.442C902.849 9.58657 899.133 9.59428 897.44 9.47948C897.032 9.45149 900.506 9.35191 896.601 9.33666C893.946 9.32617 898.766 9.51231 890.813 9.42539C891.108 9.46124 891.402 9.49709 891.697 9.53295C890.835 9.52942 889.972 9.52589 889.11 9.52236C888.343 9.43916 887.577 9.35595 886.81 9.27275C884.839 9.38396 883.732 9.54462 879.229 9.49663C880.451 9.44947 878.794 9.28205 876.565 9.27831C876.565 9.3369 876.565 9.39549 876.565 9.45408C871.169 9.47606 873.032 9.30958 868.546 9.43073C868.097 9.38283 867.649 9.33493 867.2 9.28704C864.756 9.4719 855.759 9.5763 857.401 9.29329C854.876 9.56563 849.576 9.424 847.606 9.19457C847.454 9.25231 847.303 9.31006 847.151 9.3678C846.102 9.37654 845.053 9.38529 844.003 9.39403C843.418 9.35713 842.833 9.32023 842.248 9.28333C841.504 9.31636 840.76 9.34939 840.017 9.38242C839.568 9.32272 839.119 9.26303 838.671 9.20333C837.475 9.26984 836.28 9.33634 835.084 9.40284C834.353 9.35412 833.622 9.30541 832.891 9.25669C832.815 9.37826 825.57 9.38427 823.546 9.29844C822.943 9.33208 822.34 9.36572 821.737 9.39937C821.442 9.34053 821.147 9.28169 820.853 9.22285C820.404 9.26792 819.955 9.313 819.506 9.35808C818.472 9.30868 817.438 9.25928 816.404 9.20989C812.185 9.48186 812.05 9.23206 811.087 9.23102C809.301 9.22908 803.22 9.38938 802.204 9.37726C801.189 9.36508 800.699 9.26163 799.879 9.24965C786.37 9.05002 791.923 9.33998 789.212 9.37543C787.75 9.39477 786.715 9.29658 785.422 9.30336C783.21 9.31453 772.053 9.40797 771.411 9.39377C770.476 9.37326 772.678 8.93085 769.639 9.03767C769.538 9.27838 763.042 9.01621 766.078 9.36115C763.402 9.32386 760.727 9.28657 758.051 9.24927C758.353 9.53584 755.055 9.34249 751.461 9.34787C746.368 9.35526 734.902 9.5097 735.322 9.21786C734.102 9.28165 732.882 9.34543 731.662 9.40922C723.316 9.29266 715.129 9.36548 706.845 9.34487C682.258 9.28418 655.584 9.14287 631.114 9.01383C629.937 9.00755 630.107 8.91231 629.26 8.90772C624.81 8.88419 613.243 8.91822 607.01 8.87892C605.013 8.86642 604.041 8.7702 603.408 8.76407C601.259 8.74266 601.765 8.86717 600.776 8.86077C599.214 8.85057 590.956 8.71231 588.112 8.69205C586.704 8.68202 585.037 8.77493 583.388 8.73994C583.246 8.73707 583.508 8.63707 583.388 8.63496C580.383 8.61388 582.19 8.70624 581.174 8.6987C573.924 8.64483 566.175 8.62025 558.31 8.57656C556.357 8.56559 553.368 8.48586 551.691 8.47428C551.052 8.47005 552.198 8.54984 549.988 8.53707C549.231 8.5327 548.973 8.43253 548.118 8.42359C544.435 8.38574 543.202 8.70162 540.038 8.43546C533.929 8.43457 523.296 8.48564 517.722 8.47116C516.403 8.46762 515.762 8.40703 514.505 8.40442C513.613 8.40253 512.044 8.48892 510.653 8.48597C509.262 8.48298 507.066 8.38996 504.391 8.38534C501.574 8.38031 498.071 8.42156 497.436 8.4194C496.669 8.41717 496.312 8.30672 495.545 8.30587C493.227 8.30263 487.019 8.39208 484.031 8.39501C480.821 8.39798 478.894 8.33932 477.797 8.33718C476.781 8.33568 475.597 8.42456 475.132 8.42402C474.411 8.42332 474.24 8.31493 473.324 8.31316C471.826 8.31056 470.281 8.37391 468.035 8.36917C427.583 8.28481 387.923 8.11002 348.568 7.91684C344.181 7.89526 341.702 7.9637 335.237 7.91036C332.616 7.88864 333.72 7.78051 331.68 7.79563C330.771 7.80249 331 7.89073 329.85 7.89162C324.767 7.89513 318.845 7.79651 316.642 7.7915C315.768 7.78937 314.77 7.88592 312.978 7.88215C299.629 7.85454 283.835 7.78061 269.468 7.75603C261.861 7.74303 250.345 7.76016 241.614 7.74143C217.492 7.68983 191.542 7.59121 169.542 7.537C136.323 7.45469 103.263 7.45036 70.115 7.24497C85.6224 7.53072 106.74 7.57215 124.005 7.6485C173.873 7.86843 226.971 7.88331 278.079 8.03745C295.861 8.091 318.282 8.15077 337.749 8.26312C338.632 8.26816 340.462 8.19701 342.371 8.21067C342.776 8.21374 347.803 8.3679 349.496 8.37424C347.892 8.12157 354.526 8.36192 356.578 8.36191C359.164 8.36165 364.559 8.25343 370.613 8.34114C376.106 8.42055 374.591 8.51153 374.894 8.5184C376.837 8.56272 377.515 8.41096 379.004 8.39976C385.086 8.35548 416.37 8.53592 425.101 8.56698C427.357 8.57496 427.421 8.67287 427.929 8.67471C429.275 8.67928 431.192 8.58834 433.349 8.59528C437.237 8.60801 441.715 8.71329 443.856 8.71987C448.974 8.73584 458.688 8.65533 465.341 8.67259C467.212 8.6774 467.097 8.77876 467.944 8.78088C471.672 8.78995 481.383 8.6984 486.011 8.71082C493.529 8.73096 501.262 8.81922 508.904 8.80802C509.388 8.8548 509.873 8.90158 510.357 8.94836C511.121 8.90297 511.885 8.85759 512.649 8.81221C525.571 8.88613 538.725 8.82227 551.575 8.86639C553.056 8.87141 560.385 8.97957 561.608 8.9835C562.624 8.98646 563.625 8.87699 565.132 8.89794C567.243 8.92706 565.256 9.13528 568.705 9.08412C569.632 9.07027 568.733 8.97604 570.596 8.95292C571.212 8.9452 583.155 8.94287 583.797 8.95108C584.867 8.96488 585.82 9.16393 586.097 9.16896C587.532 9.19529 587.471 9.04449 588.434 9.03356C591.276 9.00071 594.988 9.11285 595.45 9.11197C601.032 9.1004 611.469 9.01057 617.328 9.09879C618.138 9.11107 618.04 9.22295 618.183 9.22701C619.101 9.25292 619.672 9.12688 620.545 9.12647C625.245 9.12572 632.604 9.23314 637.331 9.26874C637.875 9.27271 639.024 9.21463 639.995 9.22341C645.489 9.27393 643.707 9.36731 644.019 9.37245C644.759 9.38507 646.061 9.28014 648.03 9.27916C653.105 9.27597 662.835 9.31993 668.275 9.34423C672.35 9.36279 672.288 9.48711 672.556 9.49036C673.128 9.4965 674.716 9.40172 677.398 9.39826C682.561 9.39112 681.973 9.48721 684.095 9.48918C684.273 9.4897 683.963 9.39307 686.318 9.39006C690.866 9.38432 701.084 9.50818 705.952 9.51744C707.825 9.52113 708.263 9.43011 710.181 9.43393C713.22 9.43963 720.081 9.55946 720.622 9.56078C720.774 9.56122 721.114 9.45601 722.006 9.45861C722.987 9.46148 723.952 9.51895 724.683 9.52073C728.847 9.53139 736.021 9.36696 734.027 9.7402C735.361 9.6505 736.696 9.5608 738.031 9.47111C746.752 9.51518 755.225 9.50237 763.867 9.50852C765.81 9.50996 767.433 9.58647 769.073 9.58776C770.713 9.58902 777.95 9.49134 779.159 9.49263C781.317 9.49504 793.581 9.51825 795.106 9.53115C798.085 9.55603 800.974 9.72109 802.187 9.69398C803.159 9.67215 802.26 9.58127 804.115 9.56166C807.326 9.52775 812.781 9.65702 813.762 9.65811C814.181 9.65862 813.397 9.58753 817.319 9.59401C819.433 9.59735 820.568 9.67646 821.335 9.67834C821.573 9.67863 821.216 9.55468 825.399 9.58337C828.289 9.60341 829.521 9.70183 829.824 9.70306C830.279 9.70502 831.378 9.60703 833.205 9.61587C837.477 9.63714 845.287 9.77591 849.344 9.79654C850.129 9.80059 849.862 9.67756 852.991 9.69791C855.229 9.71253 854.838 9.80865 855.676 9.81498C857.005 9.82484 858.985 9.71151 861.918 9.72391C865.61 9.7396 893.024 9.94297 894.442 9.97916C895.396 10.0034 896.503 10.008 896.976 10.0622C896.57 10.1117 896.165 10.1612 895.759 10.2107C891.562 10.0207 893.255 10.2288 892.141 10.2386C890.527 10.2525 884.444 10.2089 882.972 10.2497C882.448 10.2645 883.648 10.3761 880.831 10.4235C877.808 10.4742 876.464 10.2778 875.26 10.5373C870.971 10.2328 866.85 10.5307 871.817 10.628C874.59 10.6822 901.791 10.8657 907.345 10.8981C911.849 10.9242 920.284 10.8705 925.822 10.9067C929.077 10.9282 937.093 10.9651 936.754 11.104C939.644 11.13 936.586 10.9819 937.193 10.9643C938.461 10.9275 947.479 11.0499 949.185 11.0511C957.604 11.0573 968.228 10.9319 976.405 11.1322C976.024 11.1685 975.643 11.2048 975.262 11.2411C973.425 11.3045 964.9 11.1815 963.936 11.3583C976.404 11.3946 988.872 11.4309 1001.34 11.4672C1001.11 11.3137 1016.57 11.3608 1017.3 11.432C1017.03 11.5052 1016.76 11.5785 1016.49 11.6517C1007.75 11.3452 1008.53 11.719 1002.67 11.5047C1000.28 11.4949 1001 11.6194 999.82 11.6392C988.104 11.8361 999.633 11.3876 990.664 11.4709C993.364 11.6563 986.019 11.6997 982.727 11.7127C981.978 11.7155 972.14 11.6418 970.972 11.6412C964.408 11.638 953.136 11.7024 946.617 11.5862C941.481 11.5596 938.653 11.6778 933.99 11.6934C930.45 11.7053 931.465 11.6194 929.798 11.6135C926.303 11.6008 925.151 11.868 922.914 11.4842C920.544 11.5243 918.174 11.5644 915.804 11.6044C915.804 11.5459 915.804 11.4873 915.804 11.4287C914.316 11.4243 912.827 11.42 911.339 11.4157C910.901 11.4728 910.462 11.5299 910.024 11.587C905.3 11.4933 907.273 11.3579 906.391 11.1895C905.37 11.1751 904.35 11.1607 903.329 11.1464C902.539 11.2714 901.748 11.3965 900.958 11.5215C896.401 11.4979 891.844 11.4742 887.287 11.4506C886.993 11.3913 886.698 11.3321 886.403 11.2729C886.394 11.3312 886.384 11.3896 886.374 11.4479C878.657 11.4375 870.94 11.427 863.223 11.4165C861.17 11.5042 873.535 11.6112 874.471 11.6196C879.679 11.6657 893.511 11.6121 893.528 11.8203C896.766 11.6744 906.513 11.7414 909.544 11.9366C904.942 11.912 900.34 11.8874 895.738 11.8628C895.887 11.933 896.035 12.0032 896.184 12.0734C890.451 11.7753 889.611 11.7883 883.716 12.0371C883.711 11.9435 883.706 11.8499 883.701 11.7563C879.589 12.0697 872.326 11.4966 872.116 11.8977C869.928 11.8588 867.74 11.8199 865.551 11.781C860.826 11.8162 868.163 12.1465 849.661 11.9715C848.386 11.9593 848.652 11.8577 846.735 11.8592C846.182 11.8597 843.015 11.9994 836.96 11.9662C836.015 11.961 835.943 11.872 834.963 11.8579C832.698 11.8245 828.187 11.987 830.235 11.7068C821.266 11.5972 824.982 11.8429 822.2 11.9281C820.345 11.9847 820.719 11.8164 819.114 11.8502C817.128 11.892 818.585 12.0669 810.632 11.9652C811.525 11.9562 812.417 11.9472 813.309 11.9382C812.861 11.8905 812.412 11.8428 811.963 11.7952C807.424 11.8932 807.853 11.7319 805.712 11.9863C802.413 11.8604 799.558 11.8429 795.046 11.8509C786.28 11.8665 790.773 12.1605 780.769 11.7531C779.148 11.8015 777.527 11.8499 775.906 11.8983C773.242 11.7788 775.397 11.6454 771.421 11.6057C774.532 11.8905 766.142 11.7655 764.723 12.0073C764.575 11.9483 764.426 11.8892 764.278 11.8302C763.389 11.8276 762.501 11.825 761.613 11.8224C761.61 11.8694 761.607 11.9164 761.604 11.9634C760.421 11.9248 759.239 11.8861 758.056 11.8475C757.166 11.8915 756.276 11.9355 755.387 11.9795C753.924 11.877 752.462 11.7744 751 11.6719C750.081 11.6625 749.163 11.6531 748.245 11.6437C748.535 11.7146 748.826 11.7854 749.116 11.8562C747.936 11.8294 746.756 11.8026 745.576 11.7757C746.949 11.8946 746.085 12.0267 742.411 12.0125C739.379 12.0008 742.795 11.7711 736.276 11.8518C735.821 11.8576 735.016 12.0262 728.854 12.0346C721.465 12.0448 725.055 11.9314 723.738 11.9233C723.48 11.9219 721.222 12.0013 719.109 12.0075C717.909 12.011 716.754 11.9382 716.596 11.9379C715.856 11.9389 715.639 12.0365 714.614 12.0371C712.011 12.038 708.516 11.9797 705.966 11.9771C704.806 11.9759 703.716 12.0309 703.198 12.0301C702.396 12.0284 701.378 11.9366 700.567 11.9346C697.571 11.9277 693.022 12.2094 691.632 11.7956C688.751 12.164 682.717 11.6909 683.158 11.9449C675.462 11.8271 654.931 12.0773 655.534 11.6545C651.174 12.0048 651.564 11.743 649.738 11.7432C647.696 11.7432 648.754 11.8167 647.131 11.8088C643.341 11.7904 639.72 11.7496 635.948 11.7372C636.54 11.6807 637.133 11.6243 637.725 11.5678C633.766 11.5376 635.129 11.677 631.09 11.6913C623.661 11.7172 626.792 11.6183 625.696 11.4626C625.989 11.6107 617.23 11.5623 616.338 11.5403C615.807 11.5269 618.138 11.344 612.774 11.3895C613.067 11.4488 613.36 11.508 613.653 11.5673C611.209 11.4803 604.571 11.5623 603.445 11.5394C602.927 11.5287 600.162 11.0498 597.629 11.415C597.323 11.3557 597.018 11.2965 596.712 11.2372C593.9 11.2992 591.088 11.3612 588.276 11.4232C587.827 11.3167 587.379 11.2102 586.93 11.1037C586.038 11.1011 585.145 11.0985 584.253 11.0959C584.845 11.191 585.437 11.2861 586.029 11.3812C580.519 11.3229 573.787 11.4506 572.653 11.1323C571.473 11.1873 570.292 11.2422 569.112 11.2972C568.344 11.1902 567.576 11.0831 566.808 10.9761C561.343 10.9866 561.253 11.0564 557.516 11.1572C557.662 11.0758 557.809 10.9945 557.955 10.9131C555.199 11.0199 550.168 11.1122 546.19 11.115C544.3 11.1162 541.053 10.994 540.608 11.003C540.157 11.0124 535.721 11.4423 535.241 11.0575C528.713 11.2083 525.84 11.0265 523.191 11.023C521.471 11.0209 520.685 11.1106 518.742 11.1144C515.959 11.1201 513.159 11.0674 511.554 11.0691C510.635 11.0703 510.464 11.1595 509.831 11.1605C506.837 11.1655 508.591 11.0789 505.435 11.0757C505.144 11.0759 502.836 11.1786 500.236 11.157C498.782 11.145 495.022 11.0109 494.69 11.0102C493.219 11.008 494.394 11.2576 489.365 10.9587C489.511 11.0059 489.657 11.0531 489.803 11.1003C483.578 11.2009 482.596 10.9894 481.338 10.9713C481.178 10.9697 479.662 11.0459 478.755 11.0322C477.224 11.0087 476.606 10.8965 476.267 10.8906C475.072 10.8702 471.047 10.9071 468.417 10.7927C468.969 11.1085 459.75 11.1934 457.709 10.8317C456.077 10.8971 454.445 10.9626 452.813 11.028C452.075 10.9673 451.337 10.9065 450.599 10.8458C450.15 10.9029 449.701 10.9599 449.252 11.017C446.874 10.8815 444.496 10.746 442.119 10.6105C441.967 10.7389 441.815 10.8672 441.663 10.9955C440.997 10.9789 440.332 10.9624 439.666 10.9458C439.146 10.8419 438.627 10.7381 438.107 10.6342C437.275 10.6513 436.443 10.6684 435.61 10.6856C435.404 10.759 435.198 10.8325 434.992 10.9059C430.517 10.9782 432.818 10.2786 424.292 10.8747C422.966 10.8125 421.64 10.7502 420.314 10.688C418.815 10.9678 416.009 10.7876 413.744 10.8129C412.148 10.8308 412.234 10.9439 410.06 10.9401C407.884 10.9362 407.962 10.8285 407.793 10.8273C406.019 10.8155 404.681 10.9068 403.38 10.884C403.184 10.8806 402.693 10.751 401.035 10.738C399.376 10.7251 398.376 10.8585 395.906 10.8256C394.64 10.8089 394.275 10.6998 393.152 10.687C387.801 10.6249 382.411 11.1562 378.4 10.4957C377.496 10.5753 370.933 10.8439 368.125 10.8192C363.758 10.78 365.441 10.6577 363.705 10.6293C363.456 10.6251 362.126 10.6642 358.462 10.6458C357.806 10.6425 357.958 10.7148 357.864 10.7154C353.593 10.7016 345.299 10.6207 340.608 10.5968C340.188 10.5946 337.993 10.7884 334.276 10.5082C328.764 10.6912 318.385 10.2334 311.116 10.5122C310.109 10.5156 308.886 10.4403 308.44 10.4415C304.596 10.4525 306.004 10.6741 297.319 10.3304C298.022 10.4433 295.989 10.5376 293.119 10.5208C288.802 10.4955 291.869 10.2976 288.4 10.3044C288.4 10.3628 288.4 10.4212 288.399 10.4796C280.419 10.2993 278.831 10.5443 270.823 10.5224C267.943 10.5143 263.688 10.3725 263.001 10.3702C262.736 10.3698 259.585 10.5014 259.284 10.5016C257.59 10.5009 256.634 10.4332 255.171 10.4285C250.338 10.4131 244.57 10.5794 245.614 10.25C244.285 10.3163 242.956 10.3826 241.627 10.4489C236.607 10.0792 232.851 10.5577 231.8 10.2097C230.902 10.2783 230.004 10.3469 229.106 10.4155C207.572 10.3168 186.038 10.218 164.504 10.1193C163.647 10.2278 154.257 10.161 153.775 10.1424C151.564 10.0577 153.901 9.82255 149.388 9.86471C148.889 9.96925 148.389 10.0738 147.889 10.1783C142.218 10.1963 144.946 10.0988 142.708 10.0204C141.772 10.0308 142.074 10.1139 140.808 10.1162C133.941 10.129 119.861 10.0918 112.353 10.0767C110.838 10.0737 111.067 9.99743 110.597 9.99586C109.304 9.9928 106.752 10.0823 104.158 10.0748C88.1152 10.0273 65.3824 9.90648 49.2324 9.77807C48.1355 9.76924 48 9.67713 47.2598 9.6704C46.234 9.66145 43.9425 9.72891 42.8636 9.71802C41.8473 9.70801 41.1966 9.63646 40.1091 9.62516C35.1331 9.57262 28.4422 9.67082 23.1188 9.44994C22.6711 9.43131 17.0942 9.04586 16.968 9.02127C16.2283 8.87539 21.1858 8.66404 13.0444 8.43002C20.3219 8.26769 18.0496 7.93663 8.59707 7.75058C13.3384 7.7235 18.0798 7.69642 22.8211 7.66934C22.8281 7.6309 22.835 7.59247 22.8419 7.55404C18.5265 7.35091 14.2446 7.27502 7.68169 7.23829C7.88645 7.20328 8.09121 7.16827 8.29597 7.13327C14.0931 6.97226 21.0858 6.95975 25.5008 6.7299C19.0273 6.5314 12.5539 6.33291 6.08037 6.13441C6.40381 6.10728 6.72725 6.08014 7.0507 6.05301C10.1543 5.98913 16.9333 5.96607 19.5108 5.90559C29.3549 5.67502 10.8963 5.6865 13.9288 5.53717C24.3212 5.57313 34.7137 5.6091 45.1062 5.64507C45.471 5.52966 5.49147 5.09151 5.90433 4.74111C9.17074 4.72703 12.4371 4.71294 15.7035 4.69885C14.248 4.6053 12.7925 4.51175 11.3369 4.4182C11.7381 4.39109 12.1394 4.36398 12.5406 4.33687C18.0515 4.28354 23.5625 4.23022 29.0734 4.1769C12.3186 4.19783 4.53275 4.12454 0.521576 3.40955C0.975968 3.39297 1.43036 3.37639 1.88475 3.35981C5.51306 3.81036 22.6464 3.71795 31.7519 3.65676C29.8965 3.52247 21.879 3.59869 20.1849 3.51626C19.7049 3.49265 21.3794 3.40807 20.2673 3.35903C17.3605 3.23151 4.97264 3.04224 6.77335 2.90165C7.93295 2.81133 27.8663 2.74083 31.7545 2.76201C22.6411 2.56709 13.2506 2.49103 4.11056 2.25976C9.88107 1.99124 14.9919 1.65694 25.5237 1.67212C28.7343 1.53176 6.4399 1.25943 5.9229 1.1762C9.78163 1.09975 13.6404 1.0233 17.4991 0.946859C14.2354 0.960749 10.9718 0.97464 7.70808 0.98853C7.69861 0.959206 7.68915 0.929883 7.67968 0.900559C16.1343 0.78921 23.8695 0.562163 33.5454 0.607254C33.2337 0.45135 27.4441 0.449904 24.635 0.440313ZM950.521 11.9528C950.716 12.0818 947.169 12.0504 945.171 12.0421C945.471 12.0664 945.771 12.0907 946.071 12.115C941.809 12.0782 933.874 12.0058 933.579 12.2543C930.538 12.2765 931.883 12.0635 930.902 12.036C930.519 12.025 926.55 12.1397 923.375 11.9768C922.621 11.9752 921.866 11.9737 921.112 11.9721C920.965 12.0534 920.819 12.1348 920.673 12.2161C919.621 12.1138 918.57 12.0115 917.518 11.9091C928.514 11.9236 939.509 11.9382 950.505 11.9527C950.51 11.9527 950.516 11.9527 950.521 11.9528ZM840.919 11.7391C836.915 11.6813 830.781 11.5906 832.02 11.8182C834.549 11.8137 837.079 11.8093 839.609 11.8049C840.045 11.783 840.482 11.761 840.919 11.7391ZM442.586 10.4025C439.242 10.1723 436.162 10.3541 430.99 10.2992C430.997 10.3458 431.003 10.3924 431.01 10.439C433.126 10.3333 438.717 10.424 442.586 10.4025ZM1049.88 11.3993C1050.62 11.4187 1051.35 11.4382 1052.09 11.4576C1049.09 11.6993 1048.56 11.5213 1045.17 11.5357C1044.96 11.5366 1045.04 11.5942 1044.96 11.5943C1044.14 11.5958 1043.37 11.5245 1042.62 11.5234C1041.17 11.5213 1040 11.5878 1037.44 11.5779C1035.46 11.57 1035.44 11.46 1034.74 11.4608C1034.15 11.4618 1028.28 11.7471 1024.5 11.6055C1017.31 11.3359 1047.69 11.3696 1049.88 11.3993ZM1071.19 11.6682C1070.47 11.6672 1069.76 11.6661 1069.05 11.6651C1071.19 11.5023 1066.88 11.5154 1063.71 11.5097C1063.81 11.348 1070.51 11.4368 1073.5 11.3973C1072.73 11.4876 1071.96 11.5779 1071.19 11.6682ZM981.292 11.0591C984.074 11.0507 983.61 11.2516 983.494 11.3115C982.608 11.3089 981.723 11.3063 980.837 11.3038C980.989 11.2222 981.141 11.1407 981.292 11.0591ZM1002.21 11.0499C1001.35 11.1847 995.308 11.2272 992.446 11.2302C992.321 11.2298 993.107 11.1567 991.083 11.1578C990.475 11.1583 984.495 11.4152 985.811 11.1077C991.276 11.0884 996.74 11.0691 1002.2 11.0498C1002.21 11.0499 1002.21 11.0499 1002.21 11.0499ZM1008.31 11.1488C1007.17 11.1886 1006.04 11.2284 1004.9 11.2683C1004.31 11.2021 1003.72 11.1358 1003.13 11.0696C1004.43 11.0571 1005.72 11.0446 1007.02 11.0321C1007.45 11.071 1007.88 11.1099 1008.31 11.1488ZM152.192 8.47216C152.457 8.5419 152.721 8.61164 152.986 8.68137C154.011 8.72663 158.998 8.44085 157.419 8.37813C155.677 8.40948 153.935 8.44082 152.192 8.47216ZM131.137 8.26618C130.101 8.22838 129.064 8.19057 128.027 8.15276C126.834 8.26626 125.641 8.37977 124.448 8.49328C129.628 8.58725 135.14 8.6942 134.252 8.34667C135.438 8.35012 136.623 8.35357 137.809 8.35703C136.81 8.49675 136.944 8.54413 140.047 8.64369C140.726 8.4472 143.935 8.55766 147.608 8.52472C144.936 8.50534 142.265 8.48597 139.593 8.46659C139.593 8.4316 139.594 8.39661 139.594 8.36161C145.548 8.3916 138.148 8.14808 134.269 8.27592C133.963 8.22844 133.658 8.18096 133.352 8.13348C132.614 8.17771 131.876 8.22195 131.137 8.26618ZM561.544 9.5906C560.806 9.55325 560.068 9.5159 559.33 9.47856C556.468 9.92864 562.294 9.51075 566.439 9.88561C565.07 9.60603 571.391 9.63596 571.753 9.6185C571.026 9.52361 570.299 9.42872 569.572 9.33383C566.896 9.41942 564.22 9.50501 561.544 9.5906ZM540.621 9.2135C543.18 9.44957 530.607 9.42696 526.389 9.3643C525.363 9.34893 523.535 9.21808 522.795 9.23177C522.346 9.27685 521.897 9.32192 521.448 9.367C520.917 9.20514 512.68 9.36139 509.434 9.43821C509.129 9.37893 508.824 9.31965 508.518 9.26037C507.335 9.28012 506.152 9.29987 504.969 9.31962C505.118 9.26186 505.267 9.20411 505.416 9.14636C504.521 9.21374 503.625 9.28112 502.73 9.34849C499.216 9.41611 501.384 9.10521 498.744 9.19651C495.809 9.29787 500.617 9.50076 500.527 9.62344C502.909 9.59867 508.323 9.54347 510.74 9.54699C512.127 9.54914 510.554 9.76481 516.536 9.52908C517.847 9.5919 519.158 9.65472 520.469 9.71753C522.876 9.63076 525.283 9.54398 527.69 9.4572C528.139 9.54009 528.587 9.62298 529.036 9.70587C529.293 9.71938 534.86 9.55036 534.562 9.4882C536.817 9.65072 541.446 9.692 546.321 9.7141C546.791 9.67112 547.26 9.62813 547.73 9.58515C543.014 9.6672 546.229 9.53385 544.824 9.44485C544.013 9.39353 541.531 9.29012 540.621 9.2135ZM185.048 8.38903C177.129 8.56498 182.032 8.41505 173.473 8.3901C174.07 8.49723 174.667 8.60435 175.265 8.71147C179.474 8.53119 186.398 8.6794 185.057 8.38905C185.054 8.38904 185.051 8.38904 185.048 8.38903ZM101.289 8.4954C105.819 8.44484 103.546 8.27433 109.288 8.23856C109.291 8.23856 109.293 8.23857 109.296 8.23858C106.327 8.21813 103.358 8.19769 100.39 8.17724C100.689 8.28329 100.989 8.38935 101.289 8.4954ZM366.08 9.13908C370.422 9.19752 369.568 9.11303 373.508 9.28827C379.377 9.1067 374.409 9.12031 374.41 8.93996C373.069 8.98894 371.727 9.03793 370.386 9.08692C367.135 8.90879 370.219 8.83287 370.219 8.81667C370.216 8.81666 370.213 8.81665 370.211 8.81664C370.211 8.76251 370.316 8.75142 369.069 8.71505C368.073 8.8564 367.076 8.99774 366.08 9.13908ZM384.667 8.97044C383.178 9.08587 382.508 9.23769 386.422 9.32589C386.425 9.32589 386.428 9.3259 386.43 9.32591C386.746 9.05915 390.498 9.28614 392.21 9.27317C392.659 9.24538 393.108 9.2176 393.557 9.18981C390.594 9.11669 387.631 9.04357 384.667 8.97044ZM450.158 8.91523C450.174 9.21097 446.888 9.22953 451.512 9.51547C452.409 9.51279 453.307 9.51012 454.205 9.50744C454.795 9.44426 455.384 9.38108 455.974 9.3179C467.36 9.88613 470.758 8.98492 451.512 9.2695C451.51 9.2697 451.507 9.2699 451.504 9.27009C451.056 9.1518 450.607 9.03352 450.158 8.91523ZM430.102 8.88183C429.957 9.03664 429.812 9.19145 429.667 9.34625C427.153 8.96448 423.903 9.3123 418.972 9.03374C418.526 9.07964 418.08 9.12554 417.633 9.17144C415.791 9.0622 397.687 8.97955 401.608 9.22974C403.32 9.339 407.05 9.20824 407.372 9.21235C408.459 9.22723 409.878 9.36472 411.714 9.36232C412.775 9.36075 415.013 9.21052 417.179 9.21711C422.021 9.23192 430.859 9.6785 437.227 9.2987C437.685 9.34682 438.144 9.39495 438.602 9.44308C443.327 9.42828 441.75 9.27543 446.146 9.46505C449.185 8.73659 428.473 9.44994 432.787 8.86463C432.784 8.86462 432.782 8.86462 432.779 8.86461C431.887 8.87035 430.994 8.87609 430.102 8.88183ZM300.009 8.72386C299.724 8.59063 294.243 8.77896 295.531 8.46547C293.742 8.57073 291.953 8.67599 290.164 8.78125C290.178 8.81079 290.191 8.84033 290.205 8.86987C291.983 8.85185 293.761 8.83384 295.539 8.81582C295.545 8.86263 295.552 8.90945 295.559 8.95626C298.208 8.7947 309.264 8.90064 308.927 9.06538C309.518 8.99712 310.109 8.92885 310.7 8.86059C315.987 9.06657 320.538 8.8772 326.298 9.07997C326.744 9.02329 327.191 8.96661 327.637 8.90992C327.928 8.95756 328.218 9.0052 328.509 9.05284C330.607 9.06485 332.705 9.07686 334.804 9.08887C341.643 8.92038 328.356 8.63776 326.746 8.66075C326.532 8.664 326.564 8.78524 325.227 8.80037C322.851 8.82684 309.552 8.66749 305.44 8.73541C305.405 8.65495 305.37 8.57448 305.335 8.49402C303.559 8.57064 301.784 8.64725 300.009 8.72386ZM475.568 9.30539C475.868 9.38805 476.168 9.47071 476.468 9.55337C481.648 9.48677 484.91 9.56767 483.582 9.29333C483.58 9.29333 483.577 9.29332 483.574 9.29331C480.905 9.29734 478.237 9.30136 475.568 9.30539ZM860.541 10.4962C860.406 10.3333 857.929 10.2653 854.729 10.3725C854.883 10.4202 855.037 10.4678 855.191 10.5155C856.859 10.3819 858.939 10.6292 864.085 10.6122C864.085 10.5304 864.086 10.4486 864.086 10.3668C862.904 10.41 861.723 10.4531 860.541 10.4962ZM471.098 9.25697C469.52 9.15594 465.087 9.43559 468.003 9.45852C470.233 9.47593 471.945 9.31122 471.098 9.25697ZM83.4722 8.28543C84.6428 8.30593 85.8134 8.32643 86.9839 8.34693C87.594 8.27913 88.2041 8.21132 88.8142 8.14352C88.8115 8.14352 88.8087 8.14351 88.806 8.1435C87.0281 8.19081 85.2501 8.23812 83.4722 8.28543ZM351.234 9.10926C355.204 9.11065 359.175 9.11205 363.145 9.11344C363.185 9.06819 363.224 9.02293 363.264 8.97768C359.286 9.13166 357.688 8.94856 356.76 8.93493C356.764 8.93495 356.768 8.93496 356.772 8.93497C353.795 8.89037 350.957 8.85568 348.14 8.79325C349.171 8.89859 350.203 9.00393 351.234 9.10926ZM337.625 8.78338C338.293 9.10588 339.166 9.14575 345.266 8.93808C345.025 8.89791 344.784 8.85774 344.542 8.81756C341.382 8.83195 339.538 8.90059 340.093 8.73503C339.27 8.75114 338.448 8.76726 337.625 8.78338ZM399.8 9.06701C399.068 8.96283 393.258 9.04839 393.574 9.10075C393.698 9.12155 401.226 9.27125 399.8 9.06701ZM904.645 10.5539C903.306 10.5266 901.968 10.4993 900.63 10.472C902.41 10.4424 904.191 10.4128 905.971 10.3832C905.529 10.4401 905.087 10.497 904.645 10.5539ZM919.341 10.1408C920.295 10.1844 917.191 10.4636 922.896 10.5546C918.744 10.5486 914.593 10.5426 910.441 10.5366C912.388 10.4957 914.335 10.4548 916.282 10.4139C915.943 10.3301 915.603 10.2463 915.264 10.1625C916.623 10.1553 917.982 10.148 919.341 10.1408ZM923.797 10.3649C921.562 10.1394 933.335 10.1572 934.432 10.1872C934.676 10.1943 935.837 10.3637 936.265 10.4007C934.487 10.3957 932.709 10.3907 930.932 10.3857C931.526 10.4397 932.121 10.4938 932.716 10.5478C930.635 10.5596 928.554 10.5715 926.474 10.5833C927.363 10.5334 928.253 10.4835 929.143 10.4336C927.361 10.4107 925.579 10.3878 923.797 10.3649ZM876.562 10.2805C878.051 10.2903 879.539 10.3001 881.028 10.31C880.731 10.2273 880.433 10.1447 880.136 10.062C879.245 10.0594 878.354 10.0568 877.463 10.0542C877.163 10.1296 876.863 10.2051 876.562 10.2805ZM906.893 10.2632C904.725 10.6507 898.821 9.77262 905.723 10.1115C906.418 10.1459 907.098 10.2258 906.893 10.2632ZM938.844 10.247C943.473 9.97342 942.427 10.6042 938.058 10.4059C937.838 10.3954 938.497 10.2672 938.844 10.247ZM973.546 10.339C973.921 10.3422 974.576 10.5493 978.155 10.3646C978.746 10.3897 979.336 10.4148 979.927 10.4399C978.544 10.5313 966.717 10.5535 968.352 10.355C970.162 10.3571 971.673 10.3272 973.546 10.339ZM962.096 9.54634C960.32 9.54687 958.545 9.5474 956.77 9.54792C957.355 9.61392 957.941 9.67991 958.526 9.7459C957.652 9.76086 956.779 9.77581 955.906 9.79076C954.414 9.67554 952.921 9.56031 951.429 9.44509C955.288 9.43863 959.146 9.43217 963.005 9.4257C962.702 9.46592 962.399 9.50613 962.096 9.54634ZM914.902 9.2502C918.317 9.34082 922.502 9.26714 928.049 9.29704C928.052 9.29725 928.055 9.29746 928.057 9.29767C928.334 9.29942 928.824 9.38916 929.715 9.39527C930.474 9.40029 945.455 9.34695 944.286 9.49325C938.489 9.61056 936.325 9.40024 934.933 9.72906C934.65 9.65805 934.368 9.58704 934.086 9.51603C928.513 9.37827 926.921 9.61661 923.791 9.69661C923.804 9.64375 923.816 9.59089 923.828 9.53803C921.738 9.52666 919.648 9.51528 917.558 9.5039C917.852 9.53955 918.147 9.5752 918.442 9.61084C917.702 9.60869 916.963 9.60653 916.223 9.60438C914.422 9.4424 912.138 9.39922 914.902 9.2502ZM970.147 9.65707C971.789 9.26064 987.778 9.58203 995.083 9.51914C991.247 9.74955 985.307 9.56576 981.125 9.55111C973.04 9.52301 978.628 9.68714 977.256 9.74797C976.578 9.77805 971.993 9.50745 970.147 9.65707ZM902.426 9.28405C906.457 9.3282 908.714 9.2424 912.2 9.3998C911.908 9.42824 911.616 9.45669 911.324 9.48513C910.13 9.45484 900.393 9.34186 902.426 9.28405ZM1005.79 9.65529C998.001 9.48854 1001.84 9.863 997.792 9.57891C1000.46 9.56937 1003.12 9.55984 1005.79 9.55031C1005.79 9.5853 1005.79 9.6203 1005.79 9.65529ZM462.192 7.72167C458.911 7.70294 455.247 7.61905 453.285 7.7647C455.514 7.79459 457.744 7.82448 459.973 7.85437C460.713 7.81013 461.452 7.7659 462.192 7.72167ZM555.757 6.51535C555.008 6.47689 552.046 6.57534 551.734 6.57443C551.154 6.57274 551.312 6.52045 551.304 6.50665C547.508 6.50515 551.01 6.67896 548.201 6.70635C547.721 6.71082 541.123 6.61073 538.439 6.60956C534.31 6.60775 530.187 6.58514 528.644 6.58347C526.04 6.58049 521.205 6.68913 516.925 6.683C515.16 6.68027 514.545 6.58022 512.771 6.57752C501.382 6.56091 478.963 6.63051 468.859 6.53873C466.363 6.51596 463.982 6.38037 462.662 6.38702C461.621 6.43098 460.58 6.47494 459.539 6.51891C456.339 6.08654 455.266 6.45969 451.815 6.48909C449.623 6.50763 448.598 6.37931 448.303 6.37876C446.351 6.37554 445.387 6.43241 443.854 6.43782C442.133 6.44373 439.66 6.37999 439.045 6.38842C438.667 6.39416 439.873 6.56428 433.195 6.54166C426.39 6.51856 419.671 6.48138 412.75 6.45343C415.057 6.96313 417.046 6.62468 419.871 6.61455C420.63 6.61182 420.149 6.69029 420.809 6.68869C422.673 6.6846 426.241 6.61652 427.784 6.64003C429.449 6.6654 428.879 6.84884 430.992 6.78671C431.099 6.7835 430.761 6.70607 431.258 6.69471C436.253 6.58279 437.887 6.72052 444.201 6.74278C448.384 6.75777 473.791 6.75591 474.662 6.80831C479.21 7.08928 452.439 7.01313 449.309 6.98287C448.213 6.97225 449.362 6.8912 448.363 6.87209C447.94 6.86438 444.134 7.01424 440.373 7.01666C435.825 7.01961 426.686 6.88321 422.351 6.87445C385.093 6.79939 348.351 6.59512 311.128 6.48458C310.334 6.48227 309.289 6.57565 306.703 6.56813C258.439 6.42579 208.417 6.20407 159.538 6.10714C148.882 6.08597 138.313 6.14587 127.558 6.04268C126.224 6.10919 124.889 6.17569 123.555 6.2422C126.968 6.19617 133.222 6.37361 133.791 6.3776C133.996 6.3789 135.291 6.3033 137.377 6.31358C140.311 6.32777 141.598 6.40034 141.838 6.40104C142.585 6.40343 142.096 6.32881 142.809 6.33124C148.124 6.34989 152.236 6.34109 157.114 6.35459C162.625 6.36996 165.417 6.51444 169.431 6.37643C169.885 6.43614 170.339 6.49585 170.793 6.55556C173.792 6.31178 191.645 6.39174 198.877 6.42618C201.159 6.43709 200.758 6.53847 201.525 6.54071C202.014 6.54201 201.822 6.40717 207.792 6.45093C210.797 6.47307 211.585 6.57318 213.092 6.5744C213.911 6.57492 213.778 6.47752 214.955 6.48095C221.759 6.50076 227.314 6.54842 233.975 6.58578C235.848 6.59617 235.869 6.67719 236.288 6.67736C237.831 6.67823 240.515 6.54894 244.438 6.56072C250.894 6.58023 263.762 6.61818 269.041 6.70013C269.817 6.71225 270.46 6.81125 271.03 6.81151C271.894 6.81154 272.234 6.71119 272.386 6.71109C275.275 6.71774 273.536 6.80691 275.472 6.78965C276.515 6.78035 277.603 6.66794 280.028 6.66194C283.229 6.654 282.599 6.78936 283.936 6.77952C284.078 6.77778 284.12 6.68251 285.435 6.68318C290.42 6.68642 297.651 6.68545 302.368 6.69954C303.723 6.70349 304.731 6.77064 306.621 6.77723C310.429 6.79044 332.073 6.81255 333.848 6.8547C334.036 6.85913 332.111 6.99425 335.178 6.99896C336.069 6.94296 336.96 6.88696 337.852 6.83097C339.341 6.92909 340.831 7.02722 342.32 7.12535C342.268 6.80114 351.033 6.77663 350.945 7.10774C351.904 7.12396 352.863 7.14018 353.822 7.1564C355.82 6.93328 357.15 7.02167 361.011 6.89842C361.612 6.97036 362.214 7.0423 362.815 7.11424C362.967 7.06789 363.118 7.02154 363.27 6.97519C365.329 7.23476 368.709 6.99 369.119 6.98978C370.697 6.98875 371.882 7.05666 372.623 7.05675C375.387 7.05811 381.371 6.98672 384.599 7.03731C384.751 7.03987 384.601 7.14783 385.52 7.16389C387.177 7.19289 387.339 7.03466 389.547 7.2275C389.994 7.18201 390.44 7.13652 390.886 7.09102C391.36 7.11661 391.833 7.1422 392.306 7.16779C395.101 7.16352 397.895 7.15925 400.689 7.15498C398.147 7.3311 401.072 7.44211 403.836 7.30574C404.772 7.25949 403.943 7.14536 404.254 7.12935C404.683 7.1077 417.223 7.20111 418.052 7.27574C418.646 7.24227 419.239 7.2088 419.833 7.17533C420.133 7.2466 420.433 7.31787 420.733 7.38913C421.06 7.36547 421.388 7.34181 421.715 7.31814C424.979 7.45163 433.45 7.19192 434.986 7.21886C435.806 7.23322 435.068 7.53111 439 7.51192C439.137 7.42992 439.274 7.34792 439.41 7.26592C440.311 7.25675 441.212 7.24757 442.112 7.23839C443.802 7.25066 446.261 7.40062 446.34 7.4985C446.868 7.44145 447.396 7.3844 447.924 7.32734C449.341 7.52237 456.904 7.47674 459.946 7.3648C460.835 7.42496 461.725 7.48513 462.614 7.54529C463.809 7.47879 465.005 7.41229 466.2 7.34578C468.969 7.33277 466.044 7.4406 466.634 7.45202C467.882 7.47574 474.245 7.29773 473.825 7.54133C474.693 7.54447 475.561 7.5476 476.428 7.55074C476.875 7.48206 477.321 7.41337 477.767 7.34469C479.256 7.59031 481.834 7.51264 487.12 7.61606C487.563 7.56181 488.007 7.50756 488.45 7.45331C490.085 7.53701 491.719 7.62071 493.353 7.7044C493.689 7.61342 494.025 7.52245 494.361 7.43147C495.072 7.42031 495.783 7.40916 496.494 7.39801C497.937 7.6082 500.531 7.39316 501.851 7.48197C503.777 7.61158 502.287 7.75499 498.711 7.77311C498.978 7.92391 509.631 7.88605 512.087 7.88226C511.925 7.85249 511.763 7.82272 511.6 7.79295C509.089 7.80883 506.577 7.8247 504.065 7.84058C501.961 7.45718 508.782 7.57823 511.912 7.53874C512.198 7.53491 513.821 7.39671 516.976 7.41921C518.197 7.42806 522.963 7.65085 523.872 7.66512C531.218 7.78192 525.817 7.46767 533.004 7.75031C531.506 7.54551 535.635 7.7241 539.934 7.69787C540.666 7.69338 546.871 7.54897 547.29 7.54596C549.903 7.5275 547.058 7.69638 550.838 7.66127C551.293 7.616 551.747 7.57074 552.202 7.52547C553.082 7.52804 553.962 7.5306 554.842 7.53316C560.181 7.96391 561.424 7.66177 563.322 7.62805C564.09 7.61444 563.102 7.71989 565.091 7.70278C565.839 7.69644 566.67 7.60874 568.685 7.60827C574.989 7.60694 577.128 7.99896 582.925 7.61435C583.814 7.67512 584.704 7.7359 585.593 7.79668C586.193 7.72864 586.794 7.66061 587.395 7.59258C591.986 7.80844 590.328 7.59622 591.987 7.60351C596.366 7.62261 605.328 7.68841 606.112 7.85766C609.893 7.48514 614.412 7.93098 615.903 7.92036C616.788 7.87635 617.674 7.83234 618.56 7.78833C619.6 7.83815 620.641 7.88798 621.682 7.9378C621.177 7.55969 626.568 7.94576 627.085 7.95293C627.682 7.9603 635.975 7.87299 639.062 7.88405C642.145 7.89514 647.516 8.01284 647.989 8.01442C648.533 8.01601 653.78 7.92892 657.882 7.94192C661.472 7.95348 682.737 8.16084 681.398 7.98905C680.006 7.9385 678.026 7.89243 676.314 7.86561C670.999 7.78319 639.803 7.60659 631.83 7.5566C615.842 7.45685 599.166 7.41814 583.106 7.33473C582.161 7.32987 582.017 7.23183 581.207 7.22728C579.976 7.22087 576.853 7.30948 575.64 7.30383C571.11 7.28218 565.598 7.25019 563.172 7.24066C557.751 7.21993 554.033 7.15032 549.931 7.12886C548.647 7.1223 542.154 7.2244 537.705 7.16038C536.898 7.13057 536.092 7.10076 535.286 7.07094C537.578 7.04556 543.591 6.98014 546.383 6.97875C550.537 6.97714 552.703 7.06263 554.237 7.06572C555.521 7.0684 562.084 6.99734 565.072 7.00389C566 7.00589 566.19 7.10882 566.983 7.11078C571.29 7.12086 576.963 7.13464 580.7 7.04514C579.175 7.07346 588.697 7.164 589.197 7.1651C590.053 7.16756 590.982 7.07448 592.73 7.07957C596.09 7.08941 595.664 7.28852 599.864 7.10035C600.903 7.16176 601.943 7.22318 602.982 7.2846C603.047 7.01785 616.183 7.4192 619.92 7.10566C620.019 7.06931 602.948 6.91564 601.539 6.90625C593.085 6.84959 580.575 6.8786 572.371 6.80787C569.902 6.7866 562.139 6.60171 561.553 6.60303C560.608 6.60485 561.461 6.70016 561.053 6.70228C552.7 6.74697 556.868 6.57255 555.757 6.51535ZM923.793 9.10032C921.255 9.08194 918.717 9.06356 916.18 9.04519C916.364 8.98713 916.548 8.92908 916.733 8.87102C917.895 8.89719 919.058 8.92336 920.22 8.94954C921.114 8.91715 922.007 8.88476 922.901 8.85237C923.198 8.93502 923.496 9.01767 923.793 9.10032ZM930.048 8.87318C932.249 8.85009 932.356 8.97396 932.864 8.98148C934.379 9.00421 935.69 8.95807 937.162 8.96409C935.466 9.25265 931.858 9.10764 930.048 8.87318ZM884.594 8.6352C885.09 8.65069 888.402 8.97631 892.17 8.69328C894.989 8.79487 897.807 8.89646 900.626 8.99805C895.837 8.84144 889.21 8.97044 886.865 8.95797C885.974 8.95324 885.804 8.85576 885.092 8.85211C880.99 8.83241 877.001 9.04055 876.583 8.71807C880.462 8.82272 883.961 8.6161 884.594 8.6352ZM909.349 8.82144C910.005 8.89049 910.661 8.95953 911.317 9.02858C908.946 9.02168 906.574 9.01477 904.203 9.00786C904.845 8.94178 905.486 8.8757 906.127 8.80962C907.201 8.81356 908.275 8.8175 909.349 8.82144ZM726.922 8.06794C728.384 8.07301 729.847 8.07808 731.31 8.08316C731.23 8.03399 729.556 8.02931 728.94 7.99447C728.943 7.99448 728.945 7.99449 728.948 7.99449C728.261 7.95515 728.555 7.89301 727.307 7.86154C727.179 7.93034 727.05 7.99914 726.922 8.06794ZM121.783 6.02708C119.331 6.01642 96.691 5.95012 98.6191 6.13417C99.5909 6.22612 107.334 6.17096 109.617 6.17902C112.695 6.18979 121.006 6.40698 121.783 6.02708ZM81.6864 5.87551C81.2936 6.05218 95.4429 6.12168 96.8264 6.09477C96.5327 6.06856 96.0802 6.0108 95.6888 5.99686C93.7806 5.93001 84.7365 5.933 81.6864 5.87551ZM645.015 7.31608C646.156 7.40933 647.296 7.50257 648.436 7.59581C648.136 7.47796 647.837 7.36011 647.537 7.24225C646.696 7.26686 645.856 7.29147 645.015 7.31608ZM534.369 7.12259C515.367 7.06155 496.365 7.00051 477.363 6.93947C479.035 6.89571 480.706 6.85196 482.378 6.8082C498.751 6.87315 516.212 6.97324 532.024 6.94426C532.806 7.0037 533.587 7.06315 534.369 7.12259ZM879.241 8.0929C874.373 8.07697 870.306 8.15105 865.01 7.99895C870.058 7.88121 872.556 8.09341 877.461 7.91254C877.464 7.91255 877.467 7.91256 877.47 7.91257C878.06 7.97268 878.651 8.03279 879.241 8.0929ZM770.544 7.7409C772.024 7.66343 773.505 7.58596 774.986 7.50848C773.205 7.5033 771.425 7.49811 769.644 7.49293C769.944 7.57558 770.244 7.65824 770.544 7.7409ZM368.622 6.18513C363.529 6.34881 350.503 5.98779 346.363 6.19049C346.096 6.2038 348.556 6.30159 344.578 6.46543C347.582 6.43826 349.704 6.40779 349.928 6.27045C350.82 6.31984 351.712 6.36923 352.605 6.41863C354.085 6.38754 355.566 6.35645 357.046 6.32536C356.885 6.46228 357.002 6.4553 359.277 6.36787C360.314 6.40568 361.35 6.44349 362.387 6.4813C362.827 6.42439 363.266 6.36749 363.706 6.31058C364.603 6.39457 365.501 6.47857 366.398 6.56256C369.898 6.48447 367.767 6.32058 368.622 6.18513ZM386.448 6.27062C385.62 6.23797 362.009 6.26786 372.739 6.57309C375.527 6.57246 378.316 6.57184 381.105 6.57121C378.797 6.11078 386.396 6.53866 387.02 6.54999C390.006 6.60301 393.813 6.5062 395.98 6.51811C397.844 6.52847 398.95 6.61308 400.261 6.6148C404.726 6.62077 411.779 6.63834 412.75 6.45343C409.279 6.43941 405.754 6.42713 402.144 6.42132C398.328 6.41513 394.973 6.22817 387.802 6.45034C386.029 6.41906 386.661 6.27899 386.448 6.27062ZM779.443 7.54039C779.264 7.72845 788.275 7.7096 788.333 7.63525C788.351 7.59162 785.416 7.58411 784.997 7.56633C784.995 7.56632 784.992 7.56631 784.989 7.56631C784.815 7.55856 785.701 7.48896 784.322 7.46488C782.696 7.49005 781.069 7.51522 779.443 7.54039ZM156.997 5.70791C155.78 5.59854 127.954 5.55555 127.134 5.60384C126.911 5.61726 127.221 5.66458 127.134 5.69111C133.626 5.56072 142.854 5.76431 149.015 5.79391C150.733 5.80206 150.22 5.72559 150.317 5.72446C150.321 5.72447 150.325 5.72448 150.33 5.7245C151.304 5.72715 155.704 5.92312 156.997 5.70791ZM337.452 6.25059C338.635 6.28354 339.818 6.31648 341.001 6.34943C341.301 6.29191 341.601 6.2344 341.902 6.17689C341.899 6.17688 341.896 6.17687 341.893 6.17686C340.413 6.20144 338.933 6.22602 337.452 6.25059ZM296.468 5.93897C296.756 5.9809 297.044 6.02283 297.331 6.06477C300.31 6.07914 303.288 6.09351 306.267 6.10788C305.966 6.1302 305.666 6.15252 305.366 6.17484C309.869 6.24995 311.735 6.11096 314.134 6.13873C314.131 6.13872 314.128 6.13872 314.125 6.13871C314.384 6.14187 314.696 6.22841 315.656 6.23411C317.858 6.24721 324.168 6.29745 324.931 6.21351C326.545 6.03438 313.845 6.08465 311.477 6.06935C310.407 6.06236 309.12 5.98368 308.469 5.98002C307.756 5.9763 306.784 6.07466 305.047 6.06649C304.539 6.06395 298.903 5.92849 296.468 5.93897ZM243.895 5.90852C244.813 6.00384 246.731 5.91994 247.436 5.93714C247.604 5.94121 246.295 6.01494 247.882 6.04281C248.331 5.99122 248.78 5.93963 249.229 5.88804C247.451 5.89487 245.673 5.90169 243.895 5.90852ZM794.584 7.49538C794.325 7.47474 789.487 7.46793 789.255 7.47986C786.356 7.6405 796.376 7.65137 794.584 7.49538ZM916.671 7.65749C914.446 7.40526 940.848 7.72376 943.407 7.71828C943.279 7.87236 936.998 7.69878 940.288 7.92037C937.149 7.79463 928.471 7.83127 926.429 7.7915C925.189 7.76745 924.877 7.63313 924.689 7.62836C923.955 7.61119 917.455 7.74641 916.671 7.65749ZM965.224 7.8868C962.715 7.85019 960.205 7.81359 957.696 7.77699C960.657 7.76811 963.618 7.75924 966.579 7.75037C966.127 7.79584 965.675 7.84132 965.224 7.8868ZM968.38 7.8258C968.3 7.67586 976.816 7.81471 979.055 7.78671C976.53 8.03402 972.321 7.78166 968.38 7.8258ZM826.675 7.20251C822.752 7.09209 821.064 7.54353 825.836 7.35875C825.981 7.3526 826.839 7.20823 826.675 7.20251ZM367.412 5.53954C366.743 5.53477 358.423 5.36257 357.941 5.43444C356.417 5.66374 361.878 5.58591 363.708 5.6795C366.659 5.83111 362.317 5.93631 369.523 5.871C369.229 5.91693 368.934 5.96286 368.639 6.0088C372.856 6.03658 371.477 5.70841 372.234 5.66893C372.465 5.65694 375.102 5.69187 375.578 5.67257C381.521 5.42874 368.033 5.54352 367.412 5.53954ZM729.541 6.8848C721.729 6.72467 725.089 6.93603 717.073 6.90036C716.805 7.00245 728.524 6.97202 729.541 6.8848ZM443.479 5.94602C435.4 5.96298 428.756 5.8091 421.22 5.96786C421.71 6.24757 445.574 6.02399 443.479 5.94602ZM63.8726 4.5584C95.3061 5.14556 131.566 5.08802 165.034 5.17774C168.681 5.18766 169.031 5.29901 170.351 5.29088C171.215 5.28564 171.064 5.19633 172.213 5.19926C213.744 5.30578 253.51 5.30535 293.293 5.47441C295.799 5.48523 307.989 5.71158 310.595 5.43142C312.566 5.21886 303.807 5.36356 302.347 5.35735C301.251 5.35275 301.204 5.25002 300.473 5.24753C299.697 5.24491 300.338 5.31687 299.437 5.31531C295.621 5.30912 291.456 5.26959 288.005 5.26553C254.162 5.22438 221.236 5.11205 187.571 5.00413C183.496 4.9912 184.335 4.91144 184.129 4.91049C184.127 4.91069 184.124 4.91088 184.121 4.91108C162.272 4.83969 137.319 4.95141 114.177 4.81356C97.8811 4.70953 81.585 4.60551 65.289 4.50149C64.8168 4.52046 64.3447 4.53943 63.8726 4.5584ZM384.664 5.87969C382.632 5.56379 382.176 5.87501 374.882 5.7273C374.288 5.77847 373.694 5.82964 373.101 5.8808C376.959 5.88045 380.818 5.88009 384.676 5.87973C384.672 5.87972 384.668 5.87971 384.664 5.87969ZM336.484 5.62645C335.252 5.2042 318.939 5.45257 311.594 5.35133C310.247 5.55766 320.925 5.49431 323.443 5.52377C324.701 5.53836 331.434 5.77421 336.553 5.66938C336.53 5.65507 336.507 5.64076 336.484 5.62645ZM889.048 6.96182C887.861 6.97057 886.674 6.97932 885.487 6.98807C888.457 7.04311 891.427 7.09814 894.397 7.15318C889.659 7.10947 884.92 7.06576 880.182 7.02206C881.065 6.93776 881.948 6.85346 882.831 6.76916C884.903 6.83338 886.976 6.8976 889.048 6.96182ZM873.674 6.9616C881.972 6.95305 873.309 7.16038 871.238 7.05094C869.999 6.98533 872.827 6.96265 873.674 6.9616ZM852.091 6.7492C855.962 6.60796 863.782 6.62024 861.002 6.91675C856.819 6.76191 854.123 6.8726 848.059 6.77286C848.945 6.71705 849.831 6.66124 850.716 6.60543C850.72 6.60544 850.724 6.60545 850.729 6.60547C851.183 6.65338 851.637 6.70129 852.091 6.7492ZM877.465 6.78832C882.899 6.97915 867.165 6.87348 872.111 6.77272C872.343 6.76811 877.251 6.781 877.465 6.78832ZM98.6243 4.34468C97.9693 4.44231 102.149 4.45263 103.54 4.46337C109.568 4.51051 117.299 4.48971 123.568 4.5217C123.096 4.48757 122.624 4.45344 122.152 4.41931C114.309 4.39444 106.467 4.36956 98.6243 4.34468ZM143.178 4.57943C147.485 4.59198 151.793 4.60452 156.1 4.61707C156.501 4.61824 158.385 4.53831 156.985 4.51344C152.382 4.53544 147.78 4.55743 143.178 4.57943ZM411.857 5.36199C408.554 5.29663 418.065 5.03862 417.636 5.34342C415.71 5.34961 413.783 5.3558 411.857 5.36199ZM442.588 5.32943C440.517 5.35249 438.446 5.37555 436.375 5.39861C436.372 5.36341 436.369 5.3282 436.367 5.293C438.441 5.30514 440.514 5.31729 442.588 5.32943ZM81.6912 4.22518C83.8846 4.35201 89.1184 4.34871 92.3822 4.36068C90.1345 4.25065 84.7761 4.28592 81.6912 4.22518ZM362.375 5.09458C362.642 5.17743 349.505 5.11852 354.054 4.98734C356.827 5.02308 359.601 5.05883 362.375 5.09458ZM335.692 4.89541C338.51 4.88566 340.692 4.92021 340.112 5.04744C338.618 5.03759 337.124 5.02775 335.63 5.0179C335.651 4.97707 335.671 4.93624 335.692 4.89541ZM837.361 6.46094C832.612 6.45871 827.864 6.45648 823.116 6.45424C823.292 6.41956 823.469 6.38488 823.645 6.35019C828.222 6.35213 832.8 6.35407 837.377 6.35601C837.372 6.39099 837.366 6.42597 837.361 6.46094ZM79.007 3.9012C75.7461 3.91469 72.4851 3.92819 69.2242 3.94168C72.4877 3.97478 75.7512 4.00789 79.0148 4.04099C79.0149 3.9942 79.015 3.94741 79.0152 3.90062C79.0125 3.90081 79.0097 3.90101 79.007 3.9012ZM902.406 6.19448C887.902 5.98809 906.41 5.86849 910.237 6.12085C910.241 6.12066 910.245 6.12047 910.249 6.12028C910.584 6.14257 909.875 6.2436 910.433 6.28682C908.957 6.23593 907.48 6.18504 906.004 6.13416C904.657 6.18822 903.311 6.24227 901.964 6.29633C901.52 6.27226 901.077 6.24818 900.634 6.2241C901.225 6.21423 901.815 6.20435 902.406 6.19448ZM960.947 6.27343C974.099 6.33077 960.641 6.54938 954.131 6.32682C954.178 6.27984 959.735 6.26814 960.947 6.27343ZM926.478 6.22858C924.406 6.24594 922.333 6.2633 920.26 6.28066C919.996 6.25039 919.731 6.22012 919.467 6.18985C921.058 6.16518 922.649 6.14052 924.239 6.11586C924.986 6.15343 925.732 6.19101 926.478 6.22858ZM858.32 5.57475C854.985 5.53263 850.73 5.84825 861.439 5.79318C861.433 5.75797 861.428 5.72275 861.423 5.68754C860.996 5.69192 859.743 5.72129 859.675 5.71846C859.479 5.70909 859.71 5.59223 858.32 5.57475ZM985.304 5.41727C985.678 5.40497 985.883 5.03432 989.778 5.4297C990.955 5.40973 992.133 5.38976 993.31 5.3698C993.614 5.45247 993.918 5.53514 994.222 5.61781C989.665 5.54113 989.182 5.70519 988.852 5.70775C987.337 5.71882 988.458 5.63698 987.481 5.63296C984.957 5.62279 979.223 5.66324 981.824 5.42789C982.761 5.34361 984.929 5.42957 985.304 5.41727ZM976.393 5.18015C976.946 5.21274 975.165 5.31616 975.583 5.34807C975.948 5.3759 981.44 5.5027 979.953 5.68183C979.051 5.67148 978.149 5.66112 977.248 5.65076C976.942 5.59962 976.637 5.54848 976.331 5.49734C975.458 5.54118 974.585 5.58502 973.711 5.62887C972.24 5.50058 969.109 5.33083 972.828 5.24056C971.461 5.24716 970.094 5.25376 968.727 5.26035C968.018 5.3177 967.31 5.37504 966.602 5.43238C966.973 5.34293 967.345 5.25348 967.716 5.16403C970.609 5.1694 973.501 5.17477 976.393 5.18015ZM1018.77 5.33837C1018.61 5.38468 1018.44 5.43099 1018.27 5.4773C1023.3 5.40493 1031.11 5.39463 1026.67 5.67509C1019.87 5.6797 1013.07 5.6843 1006.27 5.6889C1005.82 5.65239 1005.37 5.61588 1004.91 5.57937C1009.99 5.72975 1008.42 5.14815 1012.83 5.32657C1013.58 5.3568 1011.42 5.5523 1016.1 5.43677C1015.93 5.38929 1015.76 5.34181 1015.6 5.29433C1016.66 5.30901 1017.72 5.32369 1018.77 5.33837ZM1061.94 5.53428C1053.34 5.4416 1062.81 5.29843 1064.4 5.44501C1064.39 5.445 1064.39 5.44499 1064.39 5.44499C1068.74 5.84612 1059.38 5.63119 1058.81 5.63199C1058.05 5.63322 1056.29 5.90618 1052.16 5.48872C1055.42 5.50391 1058.68 5.51909 1061.94 5.53428ZM1033.87 5.38295C1034.59 5.3759 1034.19 5.44536 1034.5 5.44522C1034.51 5.44523 1034.51 5.44524 1034.51 5.44525C1039.11 5.4435 1050.06 5.41215 1051.24 5.64351C1047.84 5.65261 1032.6 5.65747 1031.68 5.49985C1032.41 5.46088 1033.14 5.42192 1033.87 5.38295ZM1001.49 5.45831C998.663 5.30252 1005.02 5.3014 1006.69 5.37459C1007.01 5.39031 1004.41 5.61969 1001.49 5.45831ZM784.785 4.44629C778.57 4.51695 786.736 4.62933 783.909 4.75989C785.096 4.75155 786.283 4.7432 787.47 4.73486C786.575 4.63867 785.68 4.54248 784.785 4.44629ZM501.401 3.34075C499.952 3.32013 500.638 3.40686 500.513 3.40774C499.561 3.40261 498.664 3.33097 498.298 3.33721C491.545 3.45688 496.036 3.54112 496.104 3.55786C496.246 3.6421 494.471 3.73501 496.93 3.83797C498.422 3.81261 499.915 3.78726 501.408 3.7619C502.149 3.81065 502.889 3.8594 503.63 3.90814C506.596 3.81683 502.715 3.77811 502.276 3.6442C502.107 3.59157 504.896 3.53728 501.401 3.34075ZM773.649 4.1331C772.641 4.27741 770.17 4.45596 772.595 4.61097C772.598 4.61098 772.601 4.61099 772.604 4.611C773.052 4.63937 774.879 4.65958 775.44 4.69921C779.442 4.5147 777.909 4.30752 773.649 4.1331ZM528.175 3.15507C530.582 3.19646 532.988 3.23786 535.395 3.27925C535.354 3.36742 535.313 3.4556 535.271 3.54377C533.984 3.51622 532.696 3.48866 531.408 3.46111C530.956 3.50008 530.504 3.53904 530.053 3.57801C531.651 3.68337 533.25 3.78873 534.849 3.89409C536.775 3.86451 538.702 3.83493 540.629 3.80534C539.743 3.75617 538.858 3.70701 537.973 3.65784C542.681 3.62012 541.656 3.83184 545.552 3.92527C546.887 3.84737 548.222 3.76947 549.556 3.69158C551.488 3.77939 553.42 3.86721 555.351 3.95503C558.598 3.92609 558.883 3.86432 556.699 3.76426C558.313 3.66188 560.08 3.83545 562.024 3.79747C562.184 3.79442 561.882 3.69269 562.024 3.69188C572.075 3.65317 571.539 3.91645 573.145 3.9324C574.277 3.94343 578.8 3.77788 578.872 3.71715C578.959 3.63528 569.554 3.28406 584.284 3.31849C576.669 3.07232 568.011 3.27511 573.608 3.62003C571.198 3.57994 560.57 3.63098 559.892 3.61914C558.904 3.60138 559.251 3.47772 558.013 3.47085C557.282 3.46696 555.344 3.74631 549.557 3.4804C548.817 3.52504 548.078 3.56968 547.338 3.61432C546.645 3.57385 545.952 3.53338 545.259 3.49291C546.687 3.35994 548.114 3.22698 549.542 3.09402C543.888 3.22654 539.199 2.93299 535.756 3.15884C532.78 3.12272 531.333 3.09137 532.613 2.97452C531.719 2.97192 530.825 2.96931 529.932 2.96671C529.346 3.0295 528.76 3.09228 528.175 3.15507ZM755.384 4.29047C752.427 4.14495 751.363 4.4372 751.823 4.45526C754.417 4.55472 756.924 4.36617 755.384 4.29047ZM506.771 3.51325C510.034 3.59884 513.297 3.68444 516.561 3.77003C516.561 3.67665 516.561 3.58327 516.562 3.48989C513.298 3.49767 510.034 3.50546 506.771 3.51325ZM785.695 4.23898C785.995 4.30984 786.295 4.3807 786.595 4.45156C790.17 4.20634 793.718 4.58345 795.485 4.51285C795.868 4.49742 795.095 4.37159 794.364 4.34296C793.909 4.32508 786.328 4.21722 785.695 4.23898ZM934.509 4.70599C933.178 4.74911 931.846 4.79222 930.514 4.83534C930.588 4.75682 930.662 4.67831 930.736 4.59979C931.393 4.58705 932.051 4.57432 932.709 4.56159C933.309 4.60972 933.909 4.65786 934.509 4.70599ZM919.356 4.78697C916.981 4.77375 914.605 4.76052 912.23 4.7473C921.291 4.70148 913.855 4.64458 919.357 4.5581C919.357 4.63439 919.356 4.71068 919.356 4.78697ZM895.313 4.55765C895.605 4.5115 895.898 4.46536 896.19 4.41921C898.565 4.42613 900.941 4.43305 903.316 4.43997C901.814 4.27243 900.312 4.1049 898.811 3.93736C897.94 3.93442 897.07 3.93147 896.199 3.92853C895.904 4.13824 895.609 4.34794 895.313 4.55765ZM437.238 2.80293C435.802 2.79593 430.806 2.92396 431.02 2.97707C433.095 3.04761 435.17 3.11814 437.245 3.18868C437.255 3.09512 437.264 3.00157 437.274 2.90801C437.567 2.95545 437.861 3.0029 438.154 3.05034C439.334 3.01878 440.514 2.98723 441.695 2.95567C442.289 3.03919 442.884 3.12271 443.479 3.20623C444.077 3.11459 444.674 3.02295 445.272 2.93131C439.574 2.74915 439.77 2.9152 438.584 2.91C437.983 2.90745 437.602 2.8484 437.389 2.81863C437.339 2.81339 437.288 2.80816 437.238 2.80293ZM509.028 2.92414C502.224 2.88107 498.334 3.11612 493.412 2.89574C496.568 3.34384 516.956 2.94987 524.143 3.3368C524.889 3.26858 525.636 3.20037 526.382 3.13215C522.468 3.18343 519.757 3.03056 517.848 3.00415C516.332 2.98318 516.49 3.0574 516.375 3.056C516.369 3.05599 516.364 3.05597 516.358 3.05596C512.809 3.01533 511.711 2.94112 509.028 2.92414ZM790.751 3.90948C788.923 3.79294 785.723 3.79474 785.687 3.95699C787.468 4.00917 789.248 4.06135 791.029 4.11353C790.663 4.0709 791.063 3.92941 790.751 3.90948ZM892.552 4.09613C891.125 4.03913 887.754 4.07561 889.207 4.22005C889.469 4.24569 892.826 4.15692 890.856 4.40429C894.128 4.40991 893.363 4.12886 892.552 4.09613ZM625.297 3.59542C626.498 3.59423 627.698 3.59305 628.899 3.59187C629.179 3.52718 629.459 3.46248 629.739 3.39779C628.258 3.46366 626.777 3.52954 625.297 3.59542ZM806.182 3.84212C807.778 4.16737 810.505 3.86332 813.5 4.13565C814.607 4.1409 815.713 4.14616 816.82 4.15142C816.822 4.15143 816.825 4.15143 816.828 4.15144C816.858 4.06405 816.888 3.97666 816.919 3.88926C813.34 3.87355 809.761 3.85784 806.182 3.84212ZM550.434 3.21929C551.173 3.26213 551.912 3.30498 552.652 3.34782C553.968 3.30425 555.285 3.26068 556.602 3.21712C555.89 3.18107 555.178 3.14502 554.466 3.10897C553.122 3.14574 551.778 3.18252 550.434 3.21929ZM825.633 3.87131C821.763 3.81988 820.306 4.09434 825.256 4.10946C827.342 4.11554 829.688 3.92508 825.633 3.87131ZM363.299 2.69133C364.625 2.71899 365.951 2.74666 367.277 2.77432C367.729 2.71705 368.181 2.65977 368.632 2.6025C366.854 2.63211 365.077 2.66172 363.299 2.69133ZM910.905 4.18132C910.75 4.23946 910.594 4.2976 910.438 4.35574C909.255 4.34049 908.073 4.32525 906.89 4.31C907.187 4.25268 907.485 4.19536 907.782 4.13805C908.823 4.15247 909.864 4.1669 910.905 4.18132ZM372.222 2.75333C373.282 2.7676 374.342 2.78188 375.402 2.79616C376.114 2.76975 376.827 2.74334 377.539 2.71693C376.547 2.68577 375.555 2.6546 374.563 2.62343C373.783 2.66673 373.002 2.71003 372.222 2.75333ZM862.32 4.00502C860.831 3.93023 854.882 4.13241 860.24 4.20404C863.654 4.24955 862.543 4.01639 862.32 4.00502ZM870.347 3.95821C864.675 3.80748 868.926 4.50105 875.696 4.07938C868.882 4.12005 870.68 3.96729 870.347 3.95821ZM920.223 3.75193C920.365 3.7527 920.483 3.85098 921.622 3.85793C925.724 3.88256 931.14 3.93703 934.074 3.95157C941.127 3.98655 962.733 3.87242 965.259 4.16325C965.785 4.22431 964.573 4.39866 964.787 4.40845C965.415 4.43582 969.029 4.36004 968.361 4.48904C964.815 4.4777 961.269 4.46635 957.722 4.45501C958.593 4.36518 959.464 4.27535 960.335 4.18552C951.499 4.20909 954.424 4.21192 951.882 4.40565C950.387 4.32337 948.891 4.2411 947.396 4.15882C944.141 4.22767 940.885 4.29651 937.629 4.36536C938.368 4.30912 939.106 4.25288 939.844 4.19664C934.94 4.07422 936.302 4.1491 933.618 4.28287C933.613 4.22447 933.608 4.16607 933.602 4.10766C928.867 4.23618 927.945 4.05851 926.91 4.05338C924.788 4.04376 922.081 4.72672 913.988 4.01574C910.574 4.3364 910.653 3.66406 908.647 4.00019C902.871 3.61108 913.857 3.77782 919.056 3.80529C919.059 3.8053 919.061 3.80531 919.064 3.80531C919.457 3.80751 918.834 3.74301 920.223 3.75193ZM890.546 4.00789C894.045 3.7146 880.228 3.64595 884.799 4.09735C885.48 4.11357 886.161 4.1298 886.842 4.14602C888.079 4.09999 889.317 4.05395 890.555 4.00791C890.552 4.00791 890.549 4.0079 890.546 4.00789ZM760.729 3.42837C747.931 3.5158 755.207 3.71156 759.541 3.55369C760.406 3.52239 760.88 3.47741 760.729 3.42837ZM499.307 2.66267C499.12 2.69855 498.933 2.73442 498.746 2.77029C503.038 2.74871 511.336 2.91335 511.222 2.66747C507.251 2.66587 503.279 2.66427 499.307 2.66267ZM533.256 2.60104C532.335 2.58354 528.57 2.53762 529.024 2.63082C530.656 2.70068 532.287 2.77053 533.919 2.84039C534.679 2.80191 535.439 2.76344 536.199 2.72496C535.138 2.70803 533.506 2.60564 533.256 2.60104Z" fill="#AEFF58"/>
</svg>
