<svg width="41" height="36" viewBox="0 0 41 36" fill="none" xmlns="http://www.w3.org/2000/svg">
<path d="M38.8131 17.2247C44.2771 -5.81532 29.5577 2.18739 21.4591 10.2844C11.7409 -0.820101 6.419 0.452327 4.97284 2.47661C-3.35708 11.499 6.96601 29.7538 21.717 34.0915C27.9644 34.7855 37.0763 24.5486 38.8131 17.2247Z" fill="#0077FF"/>
<path d="M30.3395 32.1684C27.9643 34.0209 25.1387 35.6416 21.5784 35.3385L21.363 35.2952C21.1213 35.2209 20.8798 35.1442 20.6384 35.0653C16.7833 33.8099 13.0507 31.8471 10.0519 29.0914C7.08298 26.3563 4.60723 23.0595 2.93466 19.3649C1.28508 15.6849 0.364115 11.4568 1.38567 7.36318C1.89431 5.33577 2.9445 3.43289 4.40662 1.95384L4.34578 2.02863C5.99063 -0.0025402 8.64098 0.301031 10.4666 0.961163C13.0758 1.92669 15.1845 3.63984 17.1137 5.43927C17.9537 6.23311 18.7712 7.08114 19.5342 7.92763C20.1142 8.57037 20.6755 9.2243 21.22 9.88465C21.2968 9.97772 21.3605 10.0768 21.3962 10.1601C21.4319 10.2435 21.4369 10.3041 21.4087 10.3285C21.3805 10.353 21.3209 10.3398 21.2429 10.2936C21.165 10.2473 21.0751 10.1718 20.9923 10.0849C20.3999 9.46265 19.7932 8.84974 19.1689 8.24959C18.4892 7.59699 17.7708 6.94276 17.0488 6.33336C17.0477 6.12605 16.9594 5.88892 16.7029 5.59742C16.5716 5.44828 16.3636 5.25628 16.1765 5.13745C16.0117 5.03326 15.8723 4.97824 15.7409 4.9277C15.6048 4.87604 15.4716 4.82463 15.3231 4.72746C15.0693 4.56141 14.8256 4.4577 14.5392 4.33195C14.4378 4.28831 14.3353 4.24538 14.232 4.20113C13.4821 3.70441 12.7122 3.25347 11.9159 2.87479C11.6199 2.70289 11.3431 2.55847 11.0999 2.45974C10.8904 2.3747 10.6619 2.31833 10.4572 2.28645C10.3324 2.24577 10.1988 2.20481 10.0739 2.16985C9.25997 1.94078 8.41776 1.82643 7.64448 1.92336C7.04836 1.93947 6.39654 2.05877 5.81708 2.5509C5.70569 2.64817 5.60211 2.75471 5.51447 2.86355L5.46192 2.92815C5.31086 3.07772 5.16582 3.22698 5.02888 3.3761C4.65689 3.77959 4.32944 4.20675 4.11649 4.6087C3.9714 4.88103 3.80033 5.15435 3.64254 5.4361C3.43015 5.81443 3.24163 6.21183 3.1726 6.60309C3.12912 6.84879 3.10824 7.07835 3.09459 7.29057C3.07293 7.62881 3.07 7.91839 3.02604 8.17548C2.94366 8.66091 2.9442 9.08291 2.95734 9.46052C2.97426 9.90969 3.01038 10.2823 2.96687 10.616C2.96031 10.6657 2.95176 10.7228 2.94252 10.7873C2.89457 11.1253 2.82522 11.6896 2.97878 12.471C3.03421 12.7521 3.1213 13.0046 3.21198 13.2512C3.3443 13.6107 3.48395 13.9566 3.55066 14.3407C3.56073 14.3985 3.55872 14.4621 3.55716 14.5203C3.55516 14.5943 3.55398 14.6594 3.57864 14.691C3.65067 14.7831 3.74613 14.9389 3.8505 15.0982C3.92737 15.2162 4.01027 15.3406 4.0931 15.453C4.42491 16.4134 4.82313 17.3397 5.28434 18.2534C5.49317 18.6666 5.71639 19.0791 5.95036 19.4848C6.0043 19.7261 6.07117 19.9702 6.16267 20.219C6.28367 20.5461 6.49418 20.9314 6.7879 21.4244C7.00598 21.7895 7.26156 22.2012 7.56746 22.6912C8.12847 23.5947 8.84795 24.4246 9.34814 24.9173C9.45371 25.0219 9.55996 25.1248 9.67526 25.2345C10.1152 25.6476 10.6605 26.1689 11.7501 27.0845C12.7845 27.9473 13.6978 28.6288 14.4005 29.1173C14.7595 29.3669 15.0623 29.5655 15.299 29.7113C15.7036 29.961 16.2048 30.2589 16.7176 30.5387C17.5189 30.9792 18.3508 31.3673 18.8325 31.5588C19.0038 31.6275 19.1848 31.6962 19.381 31.7678C19.9247 31.965 20.5848 32.1909 21.4988 32.4658C21.732 32.5355 21.9439 32.5969 22.1399 32.6531L21.8825 32.6014C22.3656 32.6476 22.7574 32.6312 23.1722 32.5924C23.3974 32.5696 23.6023 32.5835 23.8307 32.5851C24.1422 32.5897 24.492 32.5729 24.9052 32.377C25.0039 32.3301 25.1001 32.2742 25.2029 32.2126C25.3911 32.0999 25.5965 31.9693 25.8171 31.8696C25.8949 31.8344 25.9693 31.8129 26.0426 31.791C26.123 31.7671 26.2039 31.7416 26.2822 31.6986C26.5781 31.5361 26.867 31.3542 27.113 31.1903C27.4368 30.9748 27.6962 30.7863 27.8697 30.6781C28.1795 30.4849 28.4786 30.2286 28.7777 29.9573C29.0035 29.7524 29.2339 29.5348 29.46 29.3409C30.1157 28.7812 30.9474 27.9225 31.7148 26.9619C32.005 26.599 32.2895 26.3253 32.6472 25.9648C32.8694 25.7402 33.1196 25.4819 33.4097 25.1427C33.5743 24.9501 33.6763 24.759 33.7687 24.5821C33.854 24.4191 33.9321 24.2668 34.0434 24.134C34.1418 24.0166 34.2412 23.9685 34.3358 23.9222C34.4408 23.8711 34.5409 23.8207 34.6224 23.6806C34.6658 23.606 34.7013 23.5039 34.7422 23.3827C34.7585 23.3348 34.7757 23.2837 34.7945 23.2302C34.8022 23.2386 34.8101 23.2445 34.8163 23.2486C34.8603 23.2778 34.9734 23.1547 35.0833 23.032C35.1271 22.9831 35.1705 22.9343 35.2089 22.8959C35.3505 22.7552 35.5489 22.4441 35.6891 22.1989C35.7484 22.0956 35.8162 22.0106 35.8946 21.911C35.9639 21.823 36.0436 21.7201 36.1305 21.5843C36.1802 21.5067 36.227 21.452 36.2657 21.4068C36.2937 21.374 36.3175 21.3461 36.3349 21.3178C36.3499 21.2933 36.3474 21.2658 36.3444 21.2349C36.3423 21.2126 36.3399 21.1885 36.3438 21.1625C36.3533 21.0995 36.3836 21.0276 36.4142 20.9823C36.4284 20.9614 36.4426 20.9465 36.4568 20.9316C36.4732 20.9143 36.4897 20.8971 36.506 20.8702C36.5806 20.7469 36.6269 20.6145 36.673 20.4778C36.7243 20.3264 36.7773 20.1658 36.867 20.0055C36.8953 19.955 36.9305 19.9036 36.9643 19.8538C36.9998 19.8014 37.0334 19.7519 37.057 19.7047C37.1523 19.5147 37.1931 19.3181 37.227 19.1396C37.2492 19.0219 37.2705 18.9071 37.3029 18.8072C37.3624 18.624 37.3535 18.5131 37.3469 18.4319C37.3435 18.3898 37.3404 18.3556 37.347 18.3233C37.358 18.2953 37.3693 18.2672 37.3808 18.2385C37.393 18.213 37.4055 18.1867 37.413 18.1606C37.4136 18.1586 37.4141 18.1567 37.4146 18.1547C37.479 17.9965 37.5435 17.8438 37.6045 17.6932C37.6971 17.4637 37.784 17.23 37.8467 16.9956C37.8817 16.863 37.9125 16.729 37.9373 16.5925C37.9535 16.5037 37.9556 16.4105 37.9574 16.3164C37.9596 16.2011 37.9613 16.084 37.9879 15.9713C38.0511 15.7026 38.138 15.4419 38.2207 15.1893C38.3432 14.82 38.472 14.3868 38.4876 14.0226C38.4933 13.8997 38.4871 13.7792 38.4802 13.6596C38.4763 13.5929 38.4721 13.5263 38.4697 13.4598C38.4919 13.4775 38.5135 13.4887 38.5338 13.499C38.5754 13.5204 38.6112 13.5387 38.6326 13.6065C38.6833 13.7665 38.757 13.9554 38.8362 13.95C38.8577 13.9485 38.8799 13.9567 38.9022 13.9653C38.958 13.9871 39.0153 14.009 39.0666 13.8738C39.1012 13.7825 39.1835 13.5494 39.1633 13.3923C39.159 13.3581 39.143 13.3351 39.1252 13.3096C39.0936 13.2618 39.0545 13.2172 39.0686 13.057C39.0708 13.0308 39.0736 13.0024 39.0765 12.9731C39.0883 12.8563 39.1005 12.7273 39.0765 12.6752C39.0489 12.6153 39.0065 12.6212 38.9571 12.6279C38.8926 12.6368 38.8164 12.6466 38.7445 12.5174C38.7303 12.4919 38.7305 12.4472 38.7305 12.4136C38.7305 12.39 38.7304 12.3719 38.7254 12.3694C38.7196 12.3666 38.706 12.3722 38.6887 12.3794C38.6278 12.4052 38.5222 12.4477 38.5504 12.2088C38.558 12.1444 38.5722 12.0719 38.5848 12.0074C38.6034 11.9123 38.6181 11.8342 38.6033 11.8217C38.5977 11.817 38.5914 11.8134 38.5848 11.8103C38.596 11.7352 38.6068 11.6606 38.6173 11.5866C38.6473 11.4952 38.6611 11.3586 38.6777 11.1747C38.6816 11.1309 38.6857 11.085 38.69 11.0376C38.7092 10.8813 38.7268 10.7276 38.7429 10.5767C38.7607 10.4574 38.7833 10.3324 38.813 10.2028C38.8718 9.9534 38.9543 9.70122 39.0303 9.46901C39.0624 9.3707 39.0935 9.27415 39.1215 9.17715C39.124 9.21519 39.127 9.24974 39.1317 9.27652C39.1631 9.45997 39.2303 9.53863 39.2925 9.61072C39.3338 9.65887 39.3727 9.70467 39.3955 9.77979C39.4371 9.91777 39.4937 9.90776 39.5358 9.89958C39.5576 9.89544 39.5754 9.89231 39.5849 9.91119C39.5926 9.92612 39.5947 9.96215 39.5971 9.99274C39.5992 10.0206 39.6013 10.0496 39.607 10.0684C39.6757 10.2979 39.7272 10.2344 39.8028 10.1391C39.8443 10.0868 39.8928 10.0258 39.9553 9.99996C40.0211 9.97853 40.0398 9.98737 40.0587 10.1082C40.0958 10.0197 40.1331 9.91977 40.1697 9.8182C40.1695 9.77801 40.1509 9.74681 40.1195 9.70313C40.0637 9.62473 40.0507 9.38119 40.0368 9.19736C40.0305 9.11198 40.0244 9.03871 40.0157 8.99746C39.9687 8.7792 39.9007 8.84365 39.8415 8.89811C39.8089 8.92833 39.7785 8.95611 39.7555 8.9342C39.7456 8.92489 39.7357 8.93807 39.7256 8.95136C39.7178 8.96163 39.7098 8.97218 39.7017 8.97254C39.6427 8.97483 39.6 8.84765 39.5586 8.73347C39.535 8.66734 39.512 8.60836 39.488 8.57109C39.4806 8.55959 39.4732 8.55051 39.466 8.542C39.4554 8.52959 39.4453 8.51752 39.4365 8.4986C39.4164 8.45546 39.4016 8.36675 39.3843 8.27166C39.3755 8.22289 39.3661 8.17242 39.3552 8.12523C39.3411 8.06413 39.3167 8.04338 39.2913 8.02144C39.2733 8.00596 39.2548 7.98979 39.2385 7.95948C39.2093 7.90451 39.1933 7.79274 39.1771 7.69171C39.1701 7.64765 39.163 7.60547 39.1552 7.57031C39.1521 7.556 39.1475 7.54942 39.1419 7.54835C39.111 7.39614 39.0734 7.21116 39.0357 7.05791C38.8421 6.30915 38.6413 5.6468 38.3137 4.81499C38.2457 4.65065 38.1548 4.49465 38.0536 4.35838C37.7551 3.8678 37.3757 3.50134 36.8855 3.2585C36.809 3.16687 36.698 3.07552 36.5456 2.99527C36.2639 2.84618 35.9182 2.77709 35.5095 2.75367C35.1924 2.73684 34.8572 2.74367 34.4329 2.77276C33.7288 2.82242 32.9953 2.9775 32.1875 3.26234C31.3962 3.53796 30.4893 3.96771 29.8874 4.29468C29.5497 4.47654 29.1849 4.6345 28.8416 4.79248C28.3539 5.01735 27.9351 5.226 27.7362 5.45663C27.6733 5.52982 27.624 5.61734 27.5779 5.70151C27.5447 5.76164 27.5121 5.82078 27.4762 5.87296C27.3424 5.95664 27.2087 6.04177 27.075 6.12796C26.8123 6.24806 26.4251 6.45785 26.1223 6.76272C25.9869 6.85584 25.8518 6.9502 25.7225 7.04112C25.4402 7.24047 25.1654 7.43925 24.8904 7.64327C24.8006 7.70982 24.7102 7.77743 24.6199 7.84556C24.619 7.8462 24.6181 7.84683 24.6173 7.84747C24.4354 7.98461 24.2534 8.12419 24.0754 8.26254C23.9988 8.32216 23.9224 8.38201 23.8463 8.44206C23.6529 8.59467 23.4598 8.74973 23.2717 8.90289C23.1725 8.9836 23.0704 9.06779 22.9699 9.15116C22.8065 9.28676 22.6435 9.42407 22.4829 9.56108C22.2231 9.78283 21.9614 10.0117 21.7084 10.2379C21.6668 10.275 21.6227 10.3062 21.5854 10.3243C21.5481 10.3423 21.5204 10.3458 21.508 10.3333C21.4956 10.3208 21.4993 10.293 21.5176 10.2556C21.5359 10.2183 21.5676 10.1744 21.6053 10.1332C21.8354 9.88171 22.0751 9.6271 22.3136 9.37955C22.4609 9.22665 22.6108 9.07331 22.7616 8.92161C22.8543 8.8283 22.9488 8.73433 23.0404 8.64364C23.2142 8.47171 23.3937 8.29745 23.5738 8.12581C23.6446 8.05825 23.7158 7.99086 23.7872 7.92365C23.9534 7.76717 24.1242 7.60931 24.2951 7.4538C24.2961 7.45287 24.2972 7.45193 24.2982 7.45099C24.3823 7.37449 24.4666 7.2984 24.5504 7.22342C24.8089 6.99215 25.0682 6.76585 25.336 6.53872C25.4738 6.42135 25.62 6.29932 25.7652 6.17963C25.8462 6.11295 25.9271 6.04676 26.0067 5.98212C26.0503 5.94683 26.0946 5.91121 26.1391 5.87553C27.164 5.0535 28.2262 4.28518 29.3603 3.59176C30.4911 2.90379 31.6847 2.286 32.9838 1.85686C34.2779 1.44318 35.729 1.16145 37.2315 1.62752C40.5958 2.81309 40.9328 6.65346 40.9885 9.24374C40.9978 12.0772 40.5524 14.8112 39.9886 17.5035C39.2973 20.5802 37.847 23.2783 36.1569 25.7699C35.4588 26.7869 34.6837 27.7887 33.871 28.7234C33.0489 29.6679 32.1897 30.5512 31.2436 31.3973C30.9597 31.6512 30.6524 31.9142 30.3395 32.1684Z" fill="#AEFF58"/>
</svg>
